<svg xmlns="http://www.w3.org/2000/svg" xmlns:xlink="http://www.w3.org/1999/xlink" width="46.837" height="46.853" viewBox="0 0 46.837 46.853">
  <defs>
    <clipPath id="clip-path">
      <path id="Path_21006" data-name="Path 21006" d="M-.219-1.809H10.472l4.605,13.075L10.5,25.216-.219,25.175Z" transform="translate(0.219 1.809)" fill="#014cec" stroke="#fff" strokeWidth="0.5"/>
    </clipPath>
  </defs>
  <g id="Group_147020" data-name="Group 147020" transform="translate(-1245.851 -4508.434)">
    <g id="Group_19840" data-name="Group 19840" transform="translate(1246.101 4508.684)">
      <path id="Path_21005" data-name="Path 21005" d="M-878.488-943.4v-1.809a1.447,1.447,0,0,0,.081-.249,8.613,8.613,0,0,1,6.609-7.229c.213-.049.427-.094.64-.141,0-.167,0-.287,0-.406a8.521,8.521,0,0,1,5.231-8.093,20.416,20.416,0,0,1,2.453-.7h1.718a1.836,1.836,0,0,0,.258.073,8.522,8.522,0,0,1,5.97,3.6c.058.079.126.15.186.22.043-.025.059-.029.067-.04.072-.1.144-.193.215-.289a8.5,8.5,0,0,1,4.652-3.242c.49-.138,1-.217,1.495-.323h1.718a1.431,1.431,0,0,0,.25.081,8.523,8.523,0,0,1,7.167,6.451,26.846,26.846,0,0,1,.362,2.688,8.44,8.44,0,0,1,6.645,5.424,8.436,8.436,0,0,1-1.315,8.506,8.455,8.455,0,0,1,1.3,8.546,8.477,8.477,0,0,1-6.692,5.4c-.024,4.122-1.751,7.2-5.643,8.628-4.153,1.523-7.56.125-10.214-3.293-2.584,3.358-5.927,4.767-10.007,3.366-4.014-1.379-5.815-4.488-5.848-8.69a.659.659,0,0,0-.1-.045c-.087-.024-.176-.042-.264-.062a8.474,8.474,0,0,1-6.578-6.036c-.154-.482-.234-.988-.349-1.482v-1.809a1.387,1.387,0,0,0,.081-.248,8.262,8.262,0,0,1,1.023-3.049c.243-.426.529-.828.8-1.253a8.654,8.654,0,0,1-1.605-3.145C-878.306-942.5-878.388-942.952-878.488-943.4Zm21.795,4.567c0-4.869.01-9.737,0-14.605a5.871,5.871,0,0,0-6-5.876,5.908,5.908,0,0,0-5.761,6.028c.006.369.091.547.5.633a8.233,8.233,0,0,1,4.072,2.215,1.365,1.365,0,0,1,.3,1.653,1.258,1.258,0,0,1-1.442.673,2.382,2.382,0,0,1-.912-.541,5.864,5.864,0,0,0-8.227.327A5.849,5.849,0,0,0-874-940.1c.921.9.921,1.545,0,2.445a5.867,5.867,0,0,0,.529,8.866,5.862,5.862,0,0,0,7.655-.436,1.4,1.4,0,0,1,2.018-.038,1.39,1.39,0,0,1-.186,2.041,8.476,8.476,0,0,1-4.1,2.161.379.379,0,0,0-.361.411,5.924,5.924,0,0,0,5.619,6.209,5.881,5.881,0,0,0,6.134-5.965Q-856.685-931.623-856.693-938.835Zm2.713,10.356c0,1.43-.024,2.787.005,4.143a5.651,5.651,0,0,0,3.36,5.309,5.5,5.5,0,0,0,6.154-.706,5.655,5.655,0,0,0,2.078-5.928,2.407,2.407,0,0,1-.066-.8,1.431,1.431,0,0,1,1.6-1.129,5.812,5.812,0,0,0,5.516-3.669,5.847,5.847,0,0,0-1.392-6.442,1.4,1.4,0,0,1-.007-2.351,5.847,5.847,0,0,0,1.4-6.44,5.881,5.881,0,0,0-5.51-3.691c-1.289,0-1.831-.683-1.543-1.951a5.867,5.867,0,0,0-4.446-7.04,5.73,5.73,0,0,0-6.948,4.407,35.7,35.7,0,0,0-.193,5.4c0,.022.035.045.07.086.768,0,1.552-.024,2.333.01a.679.679,0,0,0,.739-.456,3.853,3.853,0,0,1,3.811-2.249,3.828,3.828,0,0,1,3.579,2.544,3.844,3.844,0,0,1-.864,4.343,4.057,4.057,0,0,1-6.594-1.122c-.064-.133-.184-.337-.283-.339-.927-.026-1.855-.016-2.784-.016v6.275c.047.021.073.044.1.044,2.065,0,4.129.013,6.194-.005.13,0,.308-.186.381-.327a4,4,0,0,1,3.492-2.357,4.029,4.029,0,0,1,4.208,3.332,4.068,4.068,0,0,1-2.727,4.591,4.043,4.043,0,0,1-4.951-2.167.519.519,0,0,0-.573-.349c-1.9.011-3.8.006-5.7.006h-.424v6.331c.8,0,1.585-.02,2.364.008a.7.7,0,0,0,.776-.467,4.019,4.019,0,0,1,4.839-2.066,4.091,4.091,0,0,1,2.819,4.378,4.051,4.051,0,0,1-3.977,3.564,4,4,0,0,1-3.764-2.36c-.07-.136-.219-.325-.336-.329C-852.134-928.492-853.035-928.48-853.98-928.48Zm11.755-10.395a1.372,1.372,0,0,0-1.338-1.361,1.37,1.37,0,0,0-1.372,1.326,1.371,1.371,0,0,0,1.36,1.384A1.372,1.372,0,0,0-842.225-938.875Zm-3.617,9.021a1.372,1.372,0,0,0-1.36-1.339,1.37,1.37,0,0,0-1.35,1.348,1.372,1.372,0,0,0,1.382,1.362A1.372,1.372,0,0,0-845.842-929.853Zm0-18.065a1.372,1.372,0,0,0-1.337-1.361,1.372,1.372,0,0,0-1.372,1.326,1.371,1.371,0,0,0,1.359,1.384A1.373,1.373,0,0,0-845.842-947.918Z" transform="translate(878.488 962.032)" stroke="#fff" strokeWidth="0.5"/>
    </g>
    <g id="Mask_Group_257" data-name="Mask Group 257" transform="translate(1270.595 4518.187)" clip-path="url(#clip-path)">
      <g id="Group_19839" data-name="Group 19839" transform="translate(-24.494 -9.503)">
        <path id="Path_21005-2" data-name="Path 21005" d="M-878.488-943.4v-1.809a1.447,1.447,0,0,0,.081-.249,8.613,8.613,0,0,1,6.609-7.229c.213-.049.427-.094.64-.141,0-.167,0-.287,0-.406a8.521,8.521,0,0,1,5.231-8.093,20.416,20.416,0,0,1,2.453-.7h1.718a1.836,1.836,0,0,0,.258.073,8.522,8.522,0,0,1,5.97,3.6c.058.079.126.15.186.22.043-.025.059-.029.067-.04.072-.1.144-.193.215-.289a8.5,8.5,0,0,1,4.652-3.242c.49-.138,1-.217,1.495-.323h1.718a1.431,1.431,0,0,0,.25.081,8.523,8.523,0,0,1,7.167,6.451,26.846,26.846,0,0,1,.362,2.688,8.44,8.44,0,0,1,6.645,5.424,8.436,8.436,0,0,1-1.315,8.506,8.455,8.455,0,0,1,1.3,8.546,8.477,8.477,0,0,1-6.692,5.4c-.024,4.122-1.751,7.2-5.643,8.628-4.153,1.523-7.56.125-10.214-3.293-2.584,3.358-5.927,4.767-10.007,3.366-4.014-1.379-5.815-4.488-5.848-8.69a.659.659,0,0,0-.1-.045c-.087-.024-.176-.042-.264-.062a8.474,8.474,0,0,1-6.578-6.036c-.154-.482-.234-.988-.349-1.482v-1.809a1.387,1.387,0,0,0,.081-.248,8.262,8.262,0,0,1,1.023-3.049c.243-.426.529-.828.8-1.253a8.654,8.654,0,0,1-1.605-3.145C-878.306-942.5-878.388-942.952-878.488-943.4Zm21.795,4.567c0-4.869.01-9.737,0-14.605a5.871,5.871,0,0,0-6-5.876,5.908,5.908,0,0,0-5.761,6.028c.006.369.091.547.5.633a8.233,8.233,0,0,1,4.072,2.215,1.365,1.365,0,0,1,.3,1.653,1.258,1.258,0,0,1-1.442.673,2.382,2.382,0,0,1-.912-.541,5.864,5.864,0,0,0-8.227.327A5.849,5.849,0,0,0-874-940.1c.921.9.921,1.545,0,2.445a5.867,5.867,0,0,0,.529,8.866,5.862,5.862,0,0,0,7.655-.436,1.4,1.4,0,0,1,2.018-.038,1.39,1.39,0,0,1-.186,2.041,8.476,8.476,0,0,1-4.1,2.161.379.379,0,0,0-.361.411,5.924,5.924,0,0,0,5.619,6.209,5.881,5.881,0,0,0,6.134-5.965Q-856.685-931.623-856.693-938.835Zm2.713,10.356c0,1.43-.024,2.787.005,4.143a5.651,5.651,0,0,0,3.36,5.309,5.5,5.5,0,0,0,6.154-.706,5.655,5.655,0,0,0,2.078-5.928,2.407,2.407,0,0,1-.066-.8,1.431,1.431,0,0,1,1.6-1.129,5.812,5.812,0,0,0,5.516-3.669,5.847,5.847,0,0,0-1.392-6.442,1.4,1.4,0,0,1-.007-2.351,5.847,5.847,0,0,0,1.4-6.44,5.881,5.881,0,0,0-5.51-3.691c-1.289,0-1.831-.683-1.543-1.951a5.867,5.867,0,0,0-4.446-7.04,5.73,5.73,0,0,0-6.948,4.407,35.7,35.7,0,0,0-.193,5.4c0,.022.035.045.07.086.768,0,1.552-.024,2.333.01a.679.679,0,0,0,.739-.456,3.853,3.853,0,0,1,3.811-2.249,3.828,3.828,0,0,1,3.579,2.544,3.844,3.844,0,0,1-.864,4.343,4.057,4.057,0,0,1-6.594-1.122c-.064-.133-.184-.337-.283-.339-.927-.026-1.855-.016-2.784-.016v6.275c.047.021.073.044.1.044,2.065,0,4.129.013,6.194-.005.13,0,.308-.186.381-.327a4,4,0,0,1,3.492-2.357,4.029,4.029,0,0,1,4.208,3.332,4.068,4.068,0,0,1-2.727,4.591,4.043,4.043,0,0,1-4.951-2.167.519.519,0,0,0-.573-.349c-1.9.011-3.8.006-5.7.006h-.424v6.331c.8,0,1.585-.02,2.364.008a.7.7,0,0,0,.776-.467,4.019,4.019,0,0,1,4.839-2.066,4.091,4.091,0,0,1,2.819,4.378,4.051,4.051,0,0,1-3.977,3.564,4,4,0,0,1-3.764-2.36c-.07-.136-.219-.325-.336-.329C-852.134-928.492-853.035-928.48-853.98-928.48Zm11.755-10.395a1.372,1.372,0,0,0-1.338-1.361,1.37,1.37,0,0,0-1.372,1.326,1.371,1.371,0,0,0,1.36,1.384A1.372,1.372,0,0,0-842.225-938.875Zm-3.617,9.021a1.372,1.372,0,0,0-1.36-1.339,1.37,1.37,0,0,0-1.35,1.348,1.372,1.372,0,0,0,1.382,1.362A1.372,1.372,0,0,0-845.842-929.853Zm0-18.065a1.372,1.372,0,0,0-1.337-1.361,1.372,1.372,0,0,0-1.372,1.326,1.371,1.371,0,0,0,1.359,1.384A1.373,1.373,0,0,0-845.842-947.918Z" transform="translate(878.488 962.032)" fill="#014cec" stroke="#fff" strokeWidth="0.5"/>
      </g>
    </g>
  </g>
</svg>
