<svg xmlns="http://www.w3.org/2000/svg" width="18.715" height="17.706" viewBox="0 0 18.715 17.706">
  <g id="Group_44469" data-name="Group 44469" transform="translate(-1600.398 -42.476)">
    <g id="Icon_ionic-ios-more" data-name="Icon ionic-ios-more" transform="translate(1600.398 42.476)">
      <path id="Path_24268" data-name="Path 24268" d="M17.6,15.328a2.283,2.283,0,1,0,2.283,2.283A2.282,2.282,0,0,0,17.6,15.328Z" transform="translate(-8.251 -15.328)"/>
      <path id="Path_24269" data-name="Path 24269" d="M6.783,15.328a2.283,2.283,0,1,0,2.283,2.283,2.282,2.282,0,0,0-2.283-2.283Z" transform="translate(-4.5 -15.328)"/>
      <path id="Path_24270" data-name="Path 24270" d="M28.439,15.328a2.283,2.283,0,1,0,2.283,2.283,2.282,2.282,0,0,0-2.283-2.283Z" transform="translate(-12.007 -15.328)"/>
    </g>
    <g id="Icon_ionic-ios-more-2" data-name="Icon ionic-ios-more" transform="translate(1600.398 49.046)">
      <path id="Path_24268-2" data-name="Path 24268" d="M17.6,15.328a2.283,2.283,0,1,0,2.283,2.283A2.282,2.282,0,0,0,17.6,15.328Z" transform="translate(-8.251 -15.328)"/>
      <path id="Path_24269-2" data-name="Path 24269" d="M6.783,15.328a2.283,2.283,0,1,0,2.283,2.283,2.282,2.282,0,0,0-2.283-2.283Z" transform="translate(-4.5 -15.328)"/>
      <path id="Path_24270-2" data-name="Path 24270" d="M28.439,15.328a2.283,2.283,0,1,0,2.283,2.283,2.282,2.282,0,0,0-2.283-2.283Z" transform="translate(-12.007 -15.328)"/>
    </g>
    <g id="Icon_ionic-ios-more-3" data-name="Icon ionic-ios-more" transform="translate(1600.398 55.616)">
      <path id="Path_24268-3" data-name="Path 24268" d="M17.6,15.328a2.283,2.283,0,1,0,2.283,2.283A2.282,2.282,0,0,0,17.6,15.328Z" transform="translate(-8.251 -15.328)"/>
      <path id="Path_24269-3" data-name="Path 24269" d="M6.783,15.328a2.283,2.283,0,1,0,2.283,2.283,2.282,2.282,0,0,0-2.283-2.283Z" transform="translate(-4.5 -15.328)"/>
      <path id="Path_24270-3" data-name="Path 24270" d="M28.439,15.328a2.283,2.283,0,1,0,2.283,2.283,2.282,2.282,0,0,0-2.283-2.283Z" transform="translate(-12.007 -15.328)"/>
    </g>
  </g>
</svg>
