<svg xmlns="http://www.w3.org/2000/svg" width="13.057" height="13.617" viewBox="0 0 13.057 13.617">
  <g id="Group_152662" data-name="Group 152662" transform="translate(-424.841 -3302.007)">
    <g id="Group_152595" data-name="Group 152595" transform="translate(429.898 3302.007)">
      <path id="Path_103203" data-name="Path 103203" d="M109.261,6.277,103.2.218a.747.747,0,0,0-1.054,0L101.7.664a.746.746,0,0,0,0,1.054l5.089,5.089L101.7,11.9a.747.747,0,0,0,0,1.054l.446.446a.747.747,0,0,0,1.054,0l6.066-6.065a.752.752,0,0,0,0-1.057Z" transform="translate(-101.478 0)" fill="#00a79e"/>
    </g>
    <g id="Group_152661" data-name="Group 152661" transform="translate(424.841 3303.5)">
      <path id="Path_103203-2" data-name="Path 103203" d="M107.554,4.9,102.823.17a.583.583,0,0,0-.822,0l-.348.348a.582.582,0,0,0,0,.822l3.973,3.973-3.977,3.977a.583.583,0,0,0,0,.823l.348.348a.583.583,0,0,0,.822,0l4.735-4.735a.587.587,0,0,0,0-.825Z" transform="translate(-101.478 0)" fill="#00a79e"/>
    </g>
  </g>
</svg>
