<svg xmlns="http://www.w3.org/2000/svg" xmlns:xlink="http://www.w3.org/1999/xlink" width="1961.059" height="989.386" viewBox="0 0 1961.059 989.386">
  <defs>
    <clipPath id="clip-path">
      <rect id="Rectangle_53290" data-name="Rectangle 53290" width="1961.059" height="989.386" fill="none"/>
    </clipPath>
  </defs>
  <g id="Group_147039" data-name="Group 147039" opacity="0.1">
    <g id="Group_147038" data-name="Group 147038" clip-path="url(#clip-path)">
      <path id="Path_50548" data-name="Path 50548" d="M102.909,0h.681c27.3,33.2,54.069,67.175,80.749,101.044C272.39,212.817,359.474,323.37,461.462,400.324,696.62,577.764,1011.168,576.517,1599.826,0h.743C1011.393,577.136,696.54,578.35,461.122,400.713c-102.04-77-189.148-187.572-277.221-299.376C157.142,67.368,130.293,33.285,102.909,0M79.719,0h.705c34.833,38.819,68.967,79.123,103.059,119.381C278.115,231.12,372.438,342.5,480.558,420.7,734.117,604.1,1063.707,604.909,1651.384,0h.729C1063.948,605.528,734.051,604.685,480.224,421.1c-108.173-78.24-202.516-189.642-297.167-301.405C148.873,79.325,114.649,38.911,79.719,0M52.41,0h.731c42.894,43.948,85,90.41,127.189,136.976C282.094,249.28,384.406,362.192,499.672,441.857,772.441,630.376,1117.894,632.582,1700.578,0h.715C1118.151,633.2,772.389,630.97,499.348,442.259,384.031,362.563,281.7,249.627,179.915,137.3,137.615,90.617,95.41,44.038,52.41,0M20.943,0H21.7C73.025,48.475,123.631,100.9,174.6,153.7,284.258,267.3,395.584,382.632,519.289,464.042,811.931,656.628,1173.969,659.219,1747.317,0h.7C1174.24,659.836,811.893,657.219,518.975,464.45c-123.748-81.438-235.1-196.792-344.78-310.418C123.112,101.11,72.388,48.566,20.943,0M0,12.92v-.7C55.236,61.273,110.246,114.988,165.954,169.387,284.508,285.158,406.228,404.02,540.005,487.512,853,682.856,1232.136,684.455,1791.5,0h.68C1232.426,685.069,852.977,683.448,539.7,487.929,405.874,404.4,284.133,285.523,165.561,169.735,109.984,115.463,55.1,61.872,0,12.92M0,45.441v-.685c50.776,43.7,101.956,90.994,153.99,139.082,128.7,118.941,262.612,242.7,408.531,328.675C896.114,709.055,1292.547,707.911,1833.015,0h.664C1292.855,708.519,896.106,709.646,562.228,512.938c-145.963-86-279.9-209.783-408.62-328.743C101.7,136.227,50.653,89.046,0,45.441M0,78.051v-.678c45.261,37.8,91.278,78.207,138.2,119.414C278.542,320.032,427,450.4,587.623,539.256,941.8,735.182,1355.265,729.188,1871.751,0h.646C1355.591,729.787,941.808,735.772,587.345,539.688,426.663,450.8,278.188,320.413,137.825,197.15,91.034,156.056,45.14,115.756,0,78.051m0,32.686v-.667c38.48,31.218,77.792,64.159,117.944,97.8C271.651,336.661,437.639,475.743,616.162,567.887,990.594,761.15,1420.242,747.894,1907.575,0h.628C1420.587,748.485,990.622,761.738,615.9,568.326,437.323,476.155,271.31,337.053,117.582,208.242,77.558,174.707,38.365,141.867,0,110.737M0,143.5v-.66c30.134,23.777,60.943,48.516,92.39,73.767,168.927,135.646,356.3,286.1,556.637,381.863C1043.017,786.791,1487.253,763.508,1940.252,0h.621c-453.254,764.1-897.808,787.381-1292.1,598.915C448.38,503.124,260.985,352.648,92.037,216.984,60.712,191.832,30.022,167.189,0,143.5m0,32.827v-.653q29.689,22.805,60.423,46.624C246.382,366.1,460.1,531.369,687.1,630.949,1096.715,810.633,1549.659,776.32,1961.059,16.087v1.128C1549.6,776.932,1096.58,811.13,686.871,631.4,459.8,531.794,246.059,366.5,60.075,222.679Q29.529,199.06,0,176.324m0,32.888v-.646q10.165,7.608,20.473,15.332C224.874,377.011,471.5,561.756,731.241,665.166c416.137,165.678,865.967,122.431,1229.818-594.2V72.15C1597.12,788.2,1147.237,831.337,731.025,665.628,471.222,562.192,224.561,377.422,20.134,224.289Q10,216.7,0,209.212m0,32.946v-.64c218.665,159.647,495.081,356.995,782.209,459.3,418.775,149.217,860.358,96.146,1178.849-570.958v1.229c-318.614,666.472-760.221,719.432-1179.042,570.2C494.956,599,218.638,401.78,0,242.157m0,33v-.635c230.631,164.362,532.674,366.5,840.653,462.945,416.575,130.457,844.03,67.422,1120.405-544v1.3C1684.525,805.5,1257.072,868.4,840.48,737.944,532.564,641.516,230.619,439.5,0,275.157M0,308.2v-.628C266.972,493.431,638.6,724.669,999.178,796.1c376.659,74.616,741.244-25.253,961.881-533.426v1.337C1740.251,771.485,1375.7,871.2,999.066,796.594,638.527,725.171,266.99,494.05,0,308.2m0,33.091v-.624C272.082,525.835,661.605,753.034,1032.725,821.789c375,69.475,731.189-22.893,928.334-483.975v1.343c-197.359,460.369-553.5,552.589-928.44,483.125C661.549,753.536,272.112,526.448,0,341.291m0,33.135V373.8C276.46,557.858,682.66,780.347,1063.538,847c148.5,25.986,293.137,28.282,424.725-4.629s250.1-101.021,346.388-215.852c48.058-57.311,90.573-126.266,126.408-208.286v1.334c-35.75,81.56-78.116,150.182-125.978,207.262-96.367,114.923-214.993,183.092-346.678,216.029-131.67,32.931-276.391,30.635-424.965,4.636C682.614,780.851,276.5,558.466,0,374.426M0,407.6v-.613C294.83,599.12,746.319,829.653,1152.723,880.775c139.4,17.536,273.486,13.962,394.117-19.512s227.787-96.84,313.361-198.895c38.153-45.5,72.011-98.693,100.857-160.349v1.27c-28.757,61.244-62.469,114.119-100.428,159.389C1774.981,764.821,1667.718,828.244,1547,861.746s-254.874,37.072-394.344,19.528C746.293,830.155,294.889,599.728,0,407.6m0,33.219v-.612C214.254,576.963,515.763,731.341,822.43,826.048c229.14,70.765,461.148,108.211,661.749,80.088,200.562-28.117,369.735-121.787,473.257-313.252q1.828-3.38,3.623-6.805v1.144q-1.56,2.955-3.14,5.885C1854.307,784.742,1684.99,878.493,1484.26,906.633c-200.691,28.135-432.782-9.322-662-80.111C515.688,731.845,214.27,577.546,0,440.822m0,33.246v-.6C229.018,616.715,562.623,777.242,895.4,867.708c226.57,61.593,452.741,90.7,645.219,59.765C1718.126,898.94,1866.98,819.325,1961.059,667v1.009c-94.192,151.975-242.977,231.449-420.348,259.958-192.566,30.954-418.82,1.835-645.464-59.778C562.563,777.749,229.048,617.3,0,474.068m0,33.284v-.6C244.227,656.54,612.662,822.892,971.842,907.792c222.846,52.674,442.112,73.992,625.9,40.539,150.91-27.467,277.895-91.878,363.313-206.17v.883c-85.5,114.036-212.423,178.335-363.209,205.781-183.879,33.467-403.225,12.145-626.141-40.546C612.619,823.4,244.275,657.121,0,507.352m0,33.309v-.6c259.6,156.2,665.192,327.815,1050.4,405.887,218.154,44.214,429.755,58.427,604.565,22.844,124.239-25.291,229.887-75.749,306.1-158.464v.778c-76.256,82.536-181.847,132.91-305.982,158.177-174.891,35.6-386.569,21.387-604.793-22.842C665.163,868.388,259.667,696.847,0,540.661M1546.747,0C960.23,548.3,659.583,551.95,441.664,380.884c-96.7-75.915-177.105-186.212-258.988-298.541C162.64,54.859,142.516,27.254,122.043,0h.661c20.4,27.163,40.455,54.674,60.422,82.064,81.862,112.3,162.242,222.57,258.891,298.438C659.676,551.363,960.019,547.686,1545.987,0Z" transform="translate(0 0.002)" fill="#fff"/>
    </g>
  </g>
</svg>
