<svg xmlns="http://www.w3.org/2000/svg" xmlns:xlink="http://www.w3.org/1999/xlink" width="1920" height="1462" viewBox="0 0 1920 1462">
  <defs>
    <clipPath id="clip-path">
      <rect id="Rectangle_55369" data-name="Rectangle 55369" width="1920" height="1462" transform="translate(0 750)" fill="#fff" stroke="#707070" stroke-width="1"/>
    </clipPath>
    <radialGradient id="radial-gradient" cx="0.5" cy="0.5" r="0.5" gradientUnits="objectBoundingBox">
      <stop offset="0" stop-color="#26e1d7" stop-opacity="0.722"/>
      <stop offset="1" stop-color="#fff" stop-opacity="0"/>
    </radialGradient>
    <radialGradient id="radial-gradient-2" cx="0.5" cy="0.5" r="0.5" gradientUnits="objectBoundingBox">
      <stop offset="0" stop-color="#e5fadf"/>
      <stop offset="1" stop-color="#fff" stop-opacity="0"/>
    </radialGradient>
  </defs>
  <g id="Group_152788" data-name="Group 152788" transform="translate(0 -750)">
    <g id="Mask_Group_339" data-name="Mask Group 339" clip-path="url(#clip-path)">
      <ellipse id="Ellipse_9725" data-name="Ellipse 9725" cx="1115" cy="1234" rx="1115" ry="1234" transform="translate(-751 49)" opacity="0.2" fill="url(#radial-gradient)"/>
      <ellipse id="Ellipse_9726" data-name="Ellipse 9726" cx="1115" cy="1235" rx="1115" ry="1235" transform="translate(644 386)" opacity="0.59" fill="url(#radial-gradient-2)"/>
    </g>
    <g id="Mask_Group_356" data-name="Mask Group 356" clip-path="url(#clip-path)">
      <ellipse id="Ellipse_9741" data-name="Ellipse 9741" cx="1115" cy="1234" rx="1115" ry="1234" transform="translate(-751 49)" opacity="0.2" fill="url(#radial-gradient)"/>
      <ellipse id="Ellipse_9742" data-name="Ellipse 9742" cx="1115" cy="1235" rx="1115" ry="1235" transform="translate(644 386)" opacity="0.59" fill="url(#radial-gradient-2)"/>
    </g>
    <g id="Mask_Group_357" data-name="Mask Group 357" clip-path="url(#clip-path)">
      <path id="Path_103513" data-name="Path 103513" d="M62.234,16.5C36.306,16.5,14.7,37.935,14.7,61.513H31.985c0,25.722,21.606,45.013,45.373,45.013s45.373-21.434,45.373-45.013H105.446C107.607,37.935,86,16.5,62.234,16.5ZM79.519,89.378c-15.125,0-28.088-12.861-28.088-27.865H34.146c0-15,12.964-27.865,28.088-27.865S90.322,46.509,90.322,61.513h17.285C107.607,76.517,94.643,89.378,79.519,89.378Z" transform="matrix(0.643, 0.766, -0.766, 0.643, 30.628, 1887.914)" fill="#00a79e" opacity="0.06"/>
      <path id="Path_103514" data-name="Path 103514" d="M62.234,16.5C36.306,16.5,14.7,37.935,14.7,61.513H31.985c0,25.722,21.606,45.013,45.373,45.013s45.373-21.434,45.373-45.013H105.446C107.607,37.935,86,16.5,62.234,16.5ZM79.519,89.378c-15.125,0-28.088-12.861-28.088-27.865H34.146c0-15,12.964-27.865,28.088-27.865S90.322,46.509,90.322,61.513h17.285C107.607,76.517,94.643,89.378,79.519,89.378Z" transform="translate(1807.389 860.318) rotate(-23)" fill="#00a79e" opacity="0.06"/>
    </g>
  </g>
</svg>
