<svg xmlns="http://www.w3.org/2000/svg" width="266.638" height="184.256" viewBox="0 0 266.638 184.256">
  <g id="Group_52101" data-name="Group 52101" transform="translate(2 -38.882)" opacity="0.09">
    <path id="Path_49255" data-name="Path 49255" d="M238.457,40.882H24.182A24.21,24.21,0,0,0,0,65.064V196.956a24.21,24.21,0,0,0,24.182,24.182H238.457a24.21,24.21,0,0,0,24.182-24.182V65.064A24.209,24.209,0,0,0,238.457,40.882Zm9.068,156.074a9.079,9.079,0,0,1-9.068,9.068H24.182a9.079,9.079,0,0,1-9.068-9.068V65.064A9.079,9.079,0,0,1,24.182,56H238.457a9.079,9.079,0,0,1,9.068,9.068Z" fill="#bcbcbc" stroke="#f9f5ee" stroke-width="4"/>
    <path id="Path_49256" data-name="Path 49256" d="M217.347,83.8H147.892a6.045,6.045,0,1,0,0,12.091h69.455a6.045,6.045,0,0,0,0-12.091Zm0,81.875H147.892a6.045,6.045,0,0,0,0,12.091h69.455a6.045,6.045,0,0,0,0-12.091Zm0-46.9H175.313a6.045,6.045,0,1,0,0,12.091h42.034a6.045,6.045,0,0,0,0-12.091Zm0,23.451H175.313a6.045,6.045,0,1,0,0,12.091h42.034a6.045,6.045,0,0,0,0-12.091ZM85.48,133.6A31.083,31.083,0,1,0,54.4,102.52,31.112,31.112,0,0,0,85.48,133.6Zm0-47.051a15.969,15.969,0,1,1-15.967,15.97A15.982,15.982,0,0,1,85.48,86.551ZM97.5,139.189H73.643A30.351,30.351,0,0,0,43.325,169.5v13.059a7.557,7.557,0,1,0,15.113,0V169.5a15.221,15.221,0,0,1,15.2-15.2H97.5a15.221,15.221,0,0,1,15.2,15.2v13.059a7.557,7.557,0,0,0,15.114,0V169.5A30.351,30.351,0,0,0,97.5,139.189Z" transform="translate(0.328 0.231)" fill="#bcbcbc" stroke="#f9f5ee" stroke-width="4"/>
  </g>
</svg>
