<svg xmlns="http://www.w3.org/2000/svg" width="23" height="23" viewBox="0 0 23 23">
  <g id="Group_106717" data-name="Group 106717" transform="translate(3841 3861)">
    <path id="Path_49323" data-name="Path 49323" d="M11.5,0A11.5,11.5,0,1,1,0,11.5,11.5,11.5,0,0,1,11.5,0Z" transform="translate(-3841 -3861)" fill="#f7931a" fillRule="evenodd"/>
    <path id="Path_49324" data-name="Path 49324" d="M1006.1,718.424c.222-1.483-.907-2.28-2.451-2.812l.5-2.009-1.223-.3-.488,1.956c-.322-.08-.652-.156-.98-.231l.491-1.969-1.222-.3-.5,2.008c-.266-.061-.527-.12-.781-.183v-.006l-1.686-.421-.325,1.306s.907.208.888.221a.651.651,0,0,1,.57.711l-.57,2.289a.994.994,0,0,1,.127.041l-.129-.032-.8,3.206a.445.445,0,0,1-.56.29c.012.018-.889-.222-.889-.222l-.607,1.4,1.591.4c.3.074.586.152.872.225l-.506,2.032,1.221.3.5-2.01c.334.091.657.174.975.253l-.5,2,1.223.3.506-2.028c2.085.395,3.653.236,4.313-1.651a2.146,2.146,0,0,0-1.123-2.966,1.95,1.95,0,0,0,1.561-1.8h0Zm-2.794,3.918c-.378,1.519-2.935.7-3.763.492l.671-2.692c.829.207,3.487.616,3.092,2.2Zm.378-3.94c-.345,1.381-2.473.68-3.163.507l.609-2.441c.69.172,2.913.493,2.554,1.934Z" transform="translate(-4830.197 -4569.046)" fill="#fff"/>
  </g>
</svg>
