<svg xmlns="http://www.w3.org/2000/svg" width="48.018" height="48.011" viewBox="0 0 48.018 48.011">
  <g id="Group_147033" data-name="Group 147033" transform="translate(-381.627 -6135.423)">
    <path id="Path_11373" data-name="Path 11373" d="M1955.6,171.494c.927.147,1.863.25,2.778.45a19.465,19.465,0,0,1,14.806,15.273,2.947,2.947,0,0,1-.089,1.434,1.734,1.734,0,0,1-1.865,1.069,1.884,1.884,0,0,1-1.635-1.648,14.565,14.565,0,0,0-1.4-4.191,15.712,15.712,0,1,0-20.162,21.555c.17.073.341.143.509.22a1.848,1.848,0,0,1-1.408,3.417,18.388,18.388,0,0,1-6.666-4.314,19.343,19.343,0,0,1,5.693-31.481,19.323,19.323,0,0,1,6.542-1.706,1.851,1.851,0,0,0,.308-.077Z" transform="translate(-1552.737 5964.229)" stroke="#f7f9fd" strokeWidth="0.6"/>
    <path id="Path_11374" data-name="Path 11374" d="M2010.716,256.722a4.575,4.575,0,0,1-.66,1.027,1.839,1.839,0,0,1-3.036-1.395c-.022-1.033-.006-2.066-.007-3.1v-.533c-.192.181-.314.289-.429.4-1.757,1.755-3.52,3.5-5.265,5.271a2.326,2.326,0,0,1-1.77.74c-2.869-.016-5.739,0-8.607-.014a1.026,1.026,0,0,0-.807.329q-5.895,5.917-11.805,11.818a1.932,1.932,0,0,1-1.95.662,1.838,1.838,0,0,1-.964-2.978c.107-.131.231-.248.351-.368q6.183-6.184,12.363-12.373a2.52,2.52,0,0,1,1.933-.8c2.838.025,5.677,0,8.515.018a1.022,1.022,0,0,0,.8-.339c1.561-1.58,3.137-3.145,4.707-4.716.107-.107.21-.219.365-.382-.189-.014-.318-.031-.446-.031-1.111,0-2.222,0-3.332,0a1.855,1.855,0,1,1,0-3.7c2.576,0,5.152.027,7.728-.015a2.1,2.1,0,0,1,2.309,1.494Z" transform="translate(-1581.371 5911.123)" stroke="#f7f9fd" strokeWidth="0.6"/>
    <path id="Path_11375" data-name="Path 11375" d="M2089.28,308.915a1.964,1.964,0,0,1-1.34,1.4,1.8,1.8,0,0,1-2.346-1.676c-.042-2.205-.029-4.412,0-6.618a1.8,1.8,0,0,1,1.521-1.689,1.859,1.859,0,0,1,1.987,1.035c.066.138.122.281.181.422Z" transform="translate(-1659.936 5872.723)" fill="#014cec" stroke="#f7f9fd" strokeWidth="0.6"/>
    <path id="Path_11376" data-name="Path 11376" d="M1985.328,212.451a1.872,1.872,0,0,1,1.558,1.1,1.908,1.908,0,0,0,2.095,1.09,1.826,1.826,0,0,0,1.472-1.957,1.807,1.807,0,0,0-1.8-1.709,5.764,5.764,0,0,1-3.143-.946,5.393,5.393,0,0,1-2.4-5.013,5.174,5.174,0,0,1,3.237-4.635.589.589,0,0,0,.424-.684,5.329,5.329,0,0,1,0-.878,1.845,1.845,0,0,1,3.681-.034c.037.445-.126.98.071,1.315s.741.436,1.112.673a5.222,5.222,0,0,1,1.97,2.335,1.849,1.849,0,1,1-3.339,1.591,1.752,1.752,0,0,0-1.886-1.1,1.825,1.825,0,0,0-1.609,1.935,1.8,1.8,0,0,0,1.826,1.73,5.675,5.675,0,0,1,3.138.957,5.432,5.432,0,0,1,2.383,5.026,5.18,5.18,0,0,1-3.235,4.636.615.615,0,0,0-.427.688,4.229,4.229,0,0,1-.08,1.145,1.812,1.812,0,0,1-1.964,1.337,1.745,1.745,0,0,1-1.62-1.726,1.593,1.593,0,0,0-1.07-1.806,4.643,4.643,0,0,1-2.233-2.5A1.859,1.859,0,0,1,1985.328,212.451Z" transform="translate(-1587.137 5946.045)" fill="#014cec" stroke="#f7f9fd" strokeWidth="0.6"/>
    <path id="Path_11377" data-name="Path 11377" d="M2038.132,305.347c0,1.063.017,2.126,0,3.189a1.843,1.843,0,0,1-2.678,1.674,1.7,1.7,0,0,1-1.009-1.593q-.033-3.258,0-6.517a1.845,1.845,0,0,1,3.688.012C2038.15,303.19,2038.132,304.269,2038.132,305.347Z" transform="translate(-1623.603 5872.708)" fill="#014cec" stroke="#f7f9fd" strokeWidth="0.6"/>
    <path id="Path_11378" data-name="Path 11378" d="M2063.72,305.365c0,1.017.006,2.034,0,3.05a1.855,1.855,0,1,1-3.7,0q-.009-3.074,0-6.147a1.852,1.852,0,1,1,3.7,0C2063.725,303.3,2063.72,304.332,2063.72,305.365Z" transform="translate(-1641.783 5872.708)" fill="#014cec" stroke="#f7f9fd" strokeWidth="0.6"/>
  </g>
</svg>
