<svg xmlns="http://www.w3.org/2000/svg" width="59.585" height="41.692" viewBox="0 0 59.585 41.692">
  <g id="Group_147019" data-name="Group 147019" transform="translate(-433.167 -5962.935)">
    <path id="Path_11369" data-name="Path 11369" d="M758.823,145.975c.227-1.017.38-2.057.693-3.047a14.144,14.144,0,0,1,15.869-9.668c.075.013.153.01.3.019,0-.2,0-.388,0-.574-.046-1.686-.087-3.372-.145-5.057a2.85,2.85,0,0,1,1.049-2.3,9.508,9.508,0,0,1,3.923-1.939,36.388,36.388,0,0,1,11.868-1.109,28.1,28.1,0,0,1,8.263,1.468,12.5,12.5,0,0,1,2.436,1.2,3.574,3.574,0,0,1,1.694,3.238c-.025,3.761-.008,7.522-.008,11.283v.656c1.132.082,2.212.137,3.286.244a24.992,24.992,0,0,1,6.9,1.519,11.289,11.289,0,0,1,1.6.808,3.563,3.563,0,0,1,1.86,3.361c-.059,3.993-.053,7.988,0,11.981a3.526,3.526,0,0,1-1.683,3.168,11.814,11.814,0,0,1-4.114,1.69,37.715,37.715,0,0,1-17.788-.119,17.033,17.033,0,0,1-3.32-1.351,3.6,3.6,0,0,1-1.867-2.064.55.55,0,0,0-.416-.269,38.48,38.48,0,0,1-6.979-.779.815.815,0,0,0-.564.186,14.205,14.205,0,0,1-22.621-8.743c-.069-.418-.153-.833-.23-1.249Zm2.378,1.271a11.833,11.833,0,1,0,11.8-11.8A11.844,11.844,0,0,0,761.2,147.246Zm28.813-22.632a30.192,30.192,0,0,0-9.677,1.376,12.691,12.691,0,0,0-2.15,1.115.426.426,0,0,0-.005.793,10.185,10.185,0,0,0,1.707.967,23.939,23.939,0,0,0,7.379,1.444,34.7,34.7,0,0,0,11.247-.9,17.214,17.214,0,0,0,3.335-1.435c.543-.279.531-.591.013-.911a11.16,11.16,0,0,0-2.168-1.084A30.745,30.745,0,0,0,790.015,124.614Zm12.908,17.964c-1.01.083-2.806.2-4.595.388a13.53,13.53,0,0,0-2.449.463,22.083,22.083,0,0,0-3.259,1.181c-1.225.586-1.2,1.05,0,1.72a8.769,8.769,0,0,0,1.859.8,35.424,35.424,0,0,0,17.686.276,8.714,8.714,0,0,0,3.449-1.459c.49-.374.514-.611,0-.932A10.247,10.247,0,0,0,813.614,144C810.412,142.867,807.071,142.662,802.923,142.578Zm13.1,12.648a36.852,36.852,0,0,1-24.129.162c0,.88.031,1.81-.011,2.736a1.18,1.18,0,0,0,.688,1.23,15.793,15.793,0,0,0,2.717,1.134,34.771,34.771,0,0,0,16.618.149,19.128,19.128,0,0,0,3.484-1.378,1.193,1.193,0,0,0,.6-.829C816.064,157.352,816.02,156.266,816.02,155.226Zm-24.229-6.469c0,.965.02,1.992-.009,3.018a.9.9,0,0,0,.524.945,18.342,18.342,0,0,0,2.777,1.148,35.12,35.12,0,0,0,16.238.277,21.677,21.677,0,0,0,3.856-1.389,1.4,1.4,0,0,0,.767-.918c.1-1.08.036-2.174.036-3.154A36.948,36.948,0,0,1,791.792,148.757Zm10.552-18.066a37,37,0,0,1-24.254.155c0,.828.013,1.737-.006,2.645a.665.665,0,0,0,.461.685c.977.5,1.919,1.077,2.882,1.609a3.577,3.577,0,0,0,.937.414,36.119,36.119,0,0,0,15.556-.062,23.1,23.1,0,0,0,3.625-1.347,1.2,1.2,0,0,0,.8-1.122C802.352,132.649,802.343,131.63,802.343,130.691ZM784.837,139.1c.594,1.343,1.176,2.684,1.79,4.011a.7.7,0,0,0,.489.347c.907.061,1.818.081,2.727.089a1.026,1.026,0,0,0,.459-.186,25.2,25.2,0,0,1,2.755-1.563,22.714,22.714,0,0,1,6.614-1.406c.88-.083,1.763-.129,2.652-.192v-3C796.623,139.593,790.7,139.613,784.837,139.1Zm4.581,17.71v-4.27c-.953-.055-1.821-.087-2.685-.164-.359-.032-.495.111-.637.414-.327.7-.687,1.384-1.074,2.051-.276.476-.617.916-1.011,1.491Zm-.091-6.671v-4.195l-2.054-.091c-.073,1.423-.143,2.781-.215,4.178Z" transform="translate(-325.656 5840.701)"/>
    <path id="Path_11370" data-name="Path 11370" d="M820.252,228.609c-.015-.783.295-1.171.8-1.207.56-.04.916.3.976.943a1.6,1.6,0,0,0,3.158.255,1.57,1.57,0,0,0-1.082-1.829,6.287,6.287,0,0,0-.912-.123,3.378,3.378,0,0,1-.817-6.5.49.49,0,0,0,.38-.529.889.889,0,0,1,1.777-.021.582.582,0,0,0,.431.595,3.3,3.3,0,0,1,2.046,2.9.918.918,0,0,1-.82,1.1c-.54.043-.915-.321-.98-.952a1.589,1.589,0,0,0-2.086-1.454,1.589,1.589,0,0,0,.3,3.092,7.13,7.13,0,0,1,1.3.215,3.364,3.364,0,0,1,.254,6.288.586.586,0,0,0-.431.681,1.479,1.479,0,0,1-.09.645.833.833,0,0,1-.923.524.813.813,0,0,1-.763-.827c.066-.657-.234-.9-.778-1.177A3.112,3.112,0,0,1,820.252,228.609Z" transform="translate(-376.246 5761.826)" fill="#014cec"/>
  </g>
</svg>
