<svg xmlns="http://www.w3.org/2000/svg" width="21.324" height="19.876" viewBox="0 0 21.324 19.876">
  <g id="Group_149828" data-name="Group 149828" transform="translate(-693.886 -358)">
    <path id="Path_102502" data-name="Path 102502" d="M287.932,309.324a.52.52,0,0,0-.415-.165.55.55,0,0,0-.426.168.64.64,0,0,0-.154.44.661.661,0,0,0,.154.449.549.549,0,0,0,.426.159.514.514,0,0,0,.415-.156l0,0a.628.628,0,0,0,.161-.447.6.6,0,0,0-.161-.438Z" transform="translate(418.871 60.962)"/>
    <path id="Path_102503" data-name="Path 102503" d="M10.662,17.426,0,29.2H4.544v8.1H16.78V29.2h4.544Zm-3.5,9.139a1.578,1.578,0,0,1,.478-1.171,1.673,1.673,0,0,1,2.36,0,1.579,1.579,0,0,1,.478,1.171,1.669,1.669,0,0,1-2.838,1.18A1.609,1.609,0,0,1,7.164,26.565Zm.537,4.9,5.123-6.837.781.609L8.479,32.09,7.7,31.468Zm5.98-.134a1.658,1.658,0,0,1-2.838-1.18,1.579,1.579,0,0,1,.478-1.171,1.674,1.674,0,0,1,2.36,0,1.579,1.579,0,0,1,.478,1.171,1.61,1.61,0,0,1-.478,1.18Z" transform="translate(693.886 340.574)"/>
    <path id="Path_102504" data-name="Path 102504" d="M199.37,223.84l0,0a.628.628,0,0,0,.161-.447.6.6,0,0,0-.161-.438l0,0a.52.52,0,0,0-.415-.165.549.549,0,0,0-.426.168.639.639,0,0,0-.154.44.661.661,0,0,0,.154.449.549.549,0,0,0,.426.159A.514.514,0,0,0,199.37,223.84Z" transform="translate(503.754 143.751)"/>
  </g>
</svg>
