<svg xmlns="http://www.w3.org/2000/svg" width="69.738" height="64.802" viewBox="0 0 69.738 64.802">
  <g id="Group_152497" data-name="Group 152497" transform="translate(-1421.724 -201)">
    <path id="Path_103129" data-name="Path 103129" d="M10.007-1.014c4.694,0,7.246,7.325,7.246,15.61S11.788,29.785,7.093,29.785,0,23.284,0,15,5.312-1.014,10.007-1.014Z" transform="translate(1446.983 235.388) rotate(58)" fill="#674bff"/>
    <g id="Group_152493" data-name="Group 152493" transform="translate(1419.499 194.692)">
      <path id="Path_103121" data-name="Path 103121" d="M41.011,48.415c-7.76.028-14.392-1.519-17.066-3.692,1.895-2.076,2.926-4.123,2.828-5.754a25.651,25.651,0,0,1,5.4-1.477,34.352,34.352,0,0,0,6.353,2.746,2.334,2.334,0,0,0,1.449,0,34.508,34.508,0,0,0,6.59-2.856c3.085.46,8.523,1.4,10.1,4.08,3.384,5.7-9.123,6.926-15.658,6.953Z" transform="translate(8.121 12.345)" fill="#00a79e"/>
      <path id="Path_103122" data-name="Path 103122" d="M12.62,39.662l7.2-2.188L17.1,43.292l-4.09-.32Z" transform="translate(3.622 12.381)" fill="#e6f7f5"/>
      <path id="Path_103123" data-name="Path 103123" d="M17.252,43l-4.016-.38-.419-3.211-2.071,5.224Z" transform="translate(2.878 13.151)" fill="#e6f7f5"/>
      <path id="Path_103124" data-name="Path 103124" d="M22.447,23.963a39.7,39.7,0,0,1-.468-7.16,1.753,1.753,0,0,1,2.152-1.682,16.108,16.108,0,0,0,14.656-3.815,1.727,1.727,0,0,1,2.312,0,16.305,16.305,0,0,0,14.727,3.87,1.747,1.747,0,0,1,2.145,1.653c.191,6.177-.861,23.065-17.4,28.309a1.8,1.8,0,0,1-1.084,0C29.747,42.02,25.352,34.9,23.415,28.3" transform="translate(7.335 1.809)" fill="#f7931a"/>
      <path id="Path_103125" data-name="Path 103125" d="M59.322,49.981q-1.45-.351-2.916-.625C70.84,39.975,71.936,22.279,71.712,14.919A3.029,3.029,0,0,0,67.99,12.06,21.036,21.036,0,0,1,49.043,7.083a2.983,2.983,0,0,0-4.007,0,20.69,20.69,0,0,1-18.851,4.911,3.037,3.037,0,0,0-3.739,2.9,54.174,54.174,0,0,0,.636,9.643.7.7,0,0,0,1.379-.221,52.718,52.718,0,0,1-.618-9.385,1.636,1.636,0,0,1,2-1.583A22.1,22.1,0,0,0,45.977,8.112a1.573,1.573,0,0,1,2.124,0,22.428,22.428,0,0,0,20.223,5.3,1.633,1.633,0,0,1,1.991,1.545c.225,7.371-.9,25.458-16.2,34.158a33.681,33.681,0,0,1-6.457,2.8,1.677,1.677,0,0,1-1.021,0C36.082,48.522,29,41.114,25.724,30a.7.7,0,0,0-1.34.4c2.5,8.473,7.161,14.873,13.827,19.1a24.35,24.35,0,0,0-3.011.873c-.373-1.234-2.015-2.748-3.256-3.866-4.3-6.636-26.083,3.014-27.778,11.744a3.711,3.711,0,0,0,1.081,3.611,24.374,24.374,0,0,0,2.266,3.312c1,1.23,2.726,1.756,4.84,1.756,4.432,0,11.931-2.507,17.538-7.1.482,2.911,3.411,4.169,6.209,5.1,5.732,1.909,13.2,2.083,18.688,1.5,3.789-.419,8.4-1.421,10.461-5.458a9.4,9.4,0,0,0,.553-5.614c-.2-2.94-3.612-4.661-6.483-5.363Zm-4.726.472c2.746.422,7.96,1.32,9.364,3.71a2.124,2.124,0,0,1-.309,2.968c-3.409,3.33-23.519,4.5-30.783-.182a9.691,9.691,0,0,0,2.493-5.16,24.99,24.99,0,0,1,4.586-1.22,40.965,40.965,0,0,0,6.261,2.677,3.032,3.032,0,0,0,1.877,0A36.568,36.568,0,0,0,54.6,50.453ZM5.538,58.515C6.535,53.382,18,45.739,26.5,45.739c2.621,0,5.072.824,4.575,3.39-.534,2.746-4.164,6.413-9.038,9.13-8.2,4.57-17.425,5.03-16.5.257ZM8.6,64.293c-.342-.428-.637-.838-.931-1.252,7.909,1.863,24.057-6.763,24.815-14.08.989,1.02,1.625,1.557,1.464,2.943-.25,2.17-2.352,4.547-3.958,6.012l-.022.022C23.706,63.639,11.414,67.764,8.6,64.293Zm46.037.732c-5.286.57-12.487.437-18.095-1.431-1.425-.472-4.765-1.579-5.222-3.668a6.532,6.532,0,0,1-.138-1.225c.252-.238.489-.478.722-.718,7.563,5.16,28.567,4.045,32.651.2a5.3,5.3,0,0,1-.549,2.131c-1.755,3.448-5.931,4.326-9.37,4.707Z" transform="translate(0.228)"/>
      <path id="Path_103126" data-name="Path 103126" d="M45.934,18.991a.7.7,0,0,0-.7.7v.665H43.489a.7.7,0,1,0,0,1.4h.634v8.431a.7.7,0,1,0-.252,1.383c.061.006,1.323.074,1.414.078v.732a.7.7,0,1,0,1.4,0v-.72c.24-.007.481-.014.72-.031v.75a.7.7,0,0,0,1.4,0v-.918a4.043,4.043,0,0,0,2.343-1.193,3.176,3.176,0,0,0,.545-3.355,3.289,3.289,0,0,0-1.462-1.425,2.853,2.853,0,0,0-1.478-5.071v-.727a.7.7,0,1,0-1.4,0v.64c-.242,0-.481,0-.72.01V19.69a.7.7,0,0,0-.7-.7Zm4.474,8.481a1.782,1.782,0,0,1-.3,1.856c-.905.995-3.106.982-4.587.94V26.546a12.6,12.6,0,0,0,2.8-.217,2.9,2.9,0,0,1,2.09,1.144Zm-.742-5.02a1.492,1.492,0,0,1,.154,1.277c-.347.989-1.291,1.175-2.319,1.319a12.48,12.48,0,0,1-1.98.089V21.751C48.083,21.737,49.07,21.534,49.666,22.452ZM8.851,46.355a.7.7,0,0,0,.908-1.062C3.674,40.077,3.647,31.22,7.782,27.776c.275,5.505,3.655,7.9,6.441,7.406A4.714,4.714,0,0,0,17.814,30.4c-.126-3.485-4.017-6.7-8.486-5.1a10.5,10.5,0,0,1,6.845-8.076l-1.251,2.813a.7.7,0,0,0,1.277.567l2.212-4.971a.7.7,0,0,0-.608-.981,15.8,15.8,0,0,1-4.345-.82.7.7,0,0,0-.447,1.323,17.228,17.228,0,0,0,2.892.683A11.9,11.9,0,0,0,7.821,26.032C1.851,29.732,1.955,40.443,8.851,46.355Zm7.566-15.9a3.322,3.322,0,0,1-2.442,3.353c-3.088.552-4.9-3.36-4.807-6.928,3.7-1.8,7.147.745,7.249,3.576Z" transform="translate(0 2.973)"/>
    </g>
  </g>
</svg>
