<svg xmlns="http://www.w3.org/2000/svg" width="33.321" height="28.58" viewBox="0 0 33.321 28.58">
  <g id="Group_152653" data-name="Group 152653" transform="translate(0.003 -0.004)">
    <path id="Path_103352" data-name="Path 103352" d="M151.113,192.118a5.976,5.976,0,0,0-1.175-.114,5.663,5.663,0,0,0-.742.048,5.957,5.957,0,0,0-4.676,3.445,5.864,5.864,0,0,0-.531,2.457,5.95,5.95,0,1,0,7.125-5.836Zm1.195,7.556a.57.57,0,0,1-.005.162.256.256,0,0,1-.01.059.6.6,0,0,1-.092.2v0l-1.785,2.38a.6.6,0,0,1-.952,0l-1.785-2.38v0a.6.6,0,0,1-.092-.2.511.511,0,0,1-.01-.059.56.56,0,0,1-.005-.162.132.132,0,0,1,0-.039.2.2,0,0,1,.01-.026.11.11,0,0,1,.006-.044l1.785-5.95a.6.6,0,0,1,1.14,0l1.785,5.95c0,.014,0,.029.006.044a.2.2,0,0,1,.01.026.2.2,0,0,0-.006.044Zm0,0" transform="translate(-133.281 -177.72)" fill="#fff"/>
    <path id="Path_103353" data-name="Path 103353" d="M128.073,165.289c-.034-.089-.068-.179-.106-.267-.091-.209-.189-.416-.3-.615-.008-.015-.015-.031-.023-.046-.119-.221-.252-.435-.392-.644-.044-.065-.093-.128-.139-.193-.1-.134-.193-.267-.3-.395-.06-.073-.119-.142-.178-.213q-.157-.183-.326-.357-.082-.088-.168-.171-.234-.231-.487-.443c-.016-.013-.031-.028-.046-.041q-.286-.234-.591-.442c-.051-.035-.1-.066-.153-.1q-.231-.151-.471-.286a7.255,7.255,0,0,0-.7-.352c-.059-.026-.115-.055-.174-.079q-.343-.143-.7-.256l-.1-.029q-.3-.089-.6-.156c-.072-.016-.144-.031-.216-.045q-.316-.061-.636-.1l-.123-.015a7.614,7.614,0,0,0-.811-.044l-.059.011-.026-.005a1,1,0,0,0-.1,0c-.186,0-.371.012-.554.028a8.437,8.437,0,0,0-.847.119q-.095.018-.189.039-.274.06-.543.14c-.136.039-.269.085-.4.13s-.25.087-.374.137c-.108.043-.214.09-.32.137q-.219.1-.433.209c-.079.041-.157.084-.234.127-.163.092-.323.189-.476.291-.056.037-.112.074-.167.112q-.251.174-.488.365c-.044.036-.089.071-.133.108q-.232.2-.449.408c-.046.046-.094.09-.14.137-.126.127-.245.262-.362.4-.059.073-.126.143-.186.218-.083.1-.159.211-.238.317s-.174.238-.255.362-.163.26-.238.393c-.049.086-.1.171-.146.258q-.148.28-.276.571c-.035.082-.067.165-.1.249q-.084.209-.155.424-.054.159-.1.32a8.33,8.33,0,1,0,15.739-.72Zm-7.746,10.184a7.148,7.148,0,0,1-7.14-7.14,7.045,7.045,0,0,1,.637-2.949,7.14,7.14,0,1,1,6.5,10.089Zm0,0" transform="translate(-103.67 -148.1)" fill="#fff"/>
    <path id="Path_103354" data-name="Path 103354" d="M15.726,22.165l.931,1.242.931-1.242-.931-.621ZM7.838,16.044c-.115-.008-.229-.014-.342-.027s-.244-.036-.366-.056-.223-.037-.333-.06-.238-.059-.353-.091-.216-.059-.321-.091-.226-.081-.338-.124-.207-.077-.308-.119-.214-.1-.321-.155-.2-.1-.294-.15-.2-.119-.3-.183-.187-.114-.278-.178S4.1,14.669,4,14.6s-.174-.13-.257-.2-.176-.158-.262-.238-.161-.144-.238-.222-.161-.175-.238-.264-.145-.158-.213-.241-.145-.192-.217-.289-.128-.169-.188-.257-.128-.208-.19-.313-.111-.178-.161-.271c-.059-.11-.109-.225-.163-.338-.045-.093-.093-.185-.133-.281-.05-.119-.09-.243-.135-.366-.033-.095-.072-.187-.1-.284-.04-.132-.071-.267-.1-.4-.023-.092-.051-.183-.07-.276-.031-.154-.051-.312-.072-.469-.011-.078-.027-.154-.035-.232a7.14,7.14,0,1,1,14.242-.725,7.255,7.255,0,0,1-.059.877c-.011.09-.029.179-.044.268q-.048.3-.123.6c-.012.049-.017.1-.03.149.106-.017.211-.025.316-.037.079-.009.157-.021.238-.028q.345-.033.692-.038c0-.015.008-.031.011-.046.055-.253.1-.509.126-.766.007-.059.012-.119.019-.178.026-.265.043-.531.043-.8A8.215,8.215,0,0,0,16,5.677,8.33,8.33,0,1,0,7.625,17.228q.109-.325.241-.641c.027-.065.059-.128.086-.192.049-.11.1-.221.148-.33-.089,0-.174-.015-.262-.021Zm8.818,4.19a.6.6,0,0,1,.33.1l.41.273-.74-2.467-.74,2.467.41-.273a.6.6,0,0,1,.33-.1ZM24.987,0a8.33,8.33,0,0,0-7.806,5.423c.051.126.088.257.132.385s.091.247.128.372c.054.178.1.357.139.539.028.119.06.235.085.354.04.2.066.408.093.614.013.1.033.2.042.3.03.309.046.62.046.935,0,.276-.017.552-.04.825-.006.073-.014.146-.022.22q-.039.349-.1.694c-.006.033-.008.067-.015.1.054.006.106.019.16.026.168.02.334.047.5.076a7.132,7.132,0,1,1,6.661,4.6c-.03,0-.059,0-.089,0,.031.053.059.11.088.164s.059.109.087.163q.162.306.3.623c.024.055.05.108.073.164.01.023.021.044.03.067A8.33,8.33,0,0,0,24.987,0Zm0,0" transform="translate(0 0)" fill="#fff"/>
    <path id="Path_103355" data-name="Path 103355" d="M108.91,41.161c.084.033.169.063.252.1l.068.028c.112.048.221.1.332.154.078.037.156.071.232.11.06.031.119.064.179.1s.112.062.168.094l.067.038c.059.035.122.066.182.1.119.072.235.149.351.226.04.027.081.051.119.078q.331.225.643.476l.052.043.006,0c.038.032.074.066.111.1q.176.146.343.3c.052.049.1.1.152.151l.129.129c.066.069.134.136.2.207s.128.146.192.22c.034.039.069.077.1.119s.047.052.069.078l.009.011a6.025,6.025,0,0,0,.97.075,5.942,5.942,0,1,0-5.192-3.039c.09.032.176.069.264.1Zm5.523-2.419h-1.19a1.785,1.785,0,0,1,0-3.57v-.595h1.19v.595a1.785,1.785,0,0,1,1.785,1.785h-1.19a.6.6,0,0,0-.595-.6h-1.19a.595.595,0,1,0,0,1.19h1.19a1.785,1.785,0,0,1,0,3.57v.595h-1.19v-.595a1.785,1.785,0,0,1-1.785-1.785h1.19a.6.6,0,0,0,.6.595h1.19a.595.595,0,0,0,0-1.19Zm-16.065-1.19a.6.6,0,0,0-.595-.6H95.988v1.19h1.785A.6.6,0,0,0,98.368,37.552Zm0,0" transform="translate(-88.851 -29.813)" fill="#fff"/>
    <path id="Path_103356" data-name="Path 103356" d="M38.4,51.873a9.375,9.375,0,0,1,1.1-1.33l.044-.042q.294-.292.613-.558c.028-.023.059-.046.086-.069q.3-.242.614-.459l.135-.091q.294-.193.6-.365c.063-.036.125-.071.189-.105.189-.1.383-.192.579-.279.08-.036.159-.075.238-.109.19-.078.386-.147.582-.213.081-.028.161-.059.243-.088.026-.064.053-.129.077-.194s.06-.158.083-.238c.037-.119.067-.235.1-.354.018-.075.039-.149.055-.224.027-.132.046-.268.064-.4.008-.064.021-.127.028-.192.019-.2.031-.4.031-.607a5.95,5.95,0,1,0-5.948,5.95C38.074,51.9,38.235,51.886,38.4,51.873Zm-1.083-2.349h-1.19v-.595a.6.6,0,0,1-.595-.595v-4.76a.6.6,0,0,1,.595-.595v-.595h1.19v.595h.595v-.595H39.1v.7a1.768,1.768,0,0,1,.726,2.865A1.768,1.768,0,0,1,39.1,48.82v.7h-1.19v-.595h-.595Zm0,0" transform="translate(-29.583 -37.025)" fill="#fff"/>
    <path id="Path_103357" data-name="Path 103357" d="M98.368,128.6a.6.6,0,0,0-.595-.6H95.988v1.19h1.785A.6.6,0,0,0,98.368,128.6Zm0,0" transform="translate(-88.851 -118.48)" fill="#fff"/>
  </g>
</svg>
