<svg xmlns="http://www.w3.org/2000/svg" width="15.353" height="16" viewBox="0 0 15.353 16">
  <g id="Group_146814" data-name="Group 146814" transform="translate(-10.359 0.002)">
    <path id="Path_50120" data-name="Path 50120" d="M24.972,8.206a.469.469,0,0,1,0-.414l.6-1.221a1.389,1.389,0,0,0-.6-1.844l-1.2-.637a.469.469,0,0,1-.244-.335L23.29,2.415a1.389,1.389,0,0,0-1.569-1.14l-1.345.19a.469.469,0,0,1-.394-.128L19.005.393a1.389,1.389,0,0,0-1.939,0l-.977.945a.469.469,0,0,1-.394.128l-1.345-.19a1.389,1.389,0,0,0-1.569,1.14l-.235,1.338a.469.469,0,0,1-.244.335l-1.2.637a1.389,1.389,0,0,0-.6,1.845l.6,1.221a.469.469,0,0,1,0,.414l-.6,1.221a1.389,1.389,0,0,0,.6,1.844l1.2.637a.469.469,0,0,1,.244.335l.235,1.338a1.388,1.388,0,0,0,1.369,1.154,1.427,1.427,0,0,0,.2-.014l1.345-.19a.469.469,0,0,1,.394.128l.977.945a1.389,1.389,0,0,0,1.939,0l.977-.945a.469.469,0,0,1,.394-.128l1.345.19a1.389,1.389,0,0,0,1.569-1.14l.235-1.338a.469.469,0,0,1,.244-.335l1.2-.637a1.389,1.389,0,0,0,.6-1.845l-.6-1.221Zm-.435,2.25-1.2.637a1.386,1.386,0,0,0-.72.991l-.235,1.338a.47.47,0,0,1-.531.386l-1.345-.19A1.385,1.385,0,0,0,19.34,14l-.977.945a.47.47,0,0,1-.656,0L16.731,14a1.384,1.384,0,0,0-.966-.393,1.416,1.416,0,0,0-.2.014l-1.345.19a.47.47,0,0,1-.531-.386l-.235-1.338a1.386,1.386,0,0,0-.72-.991l-1.2-.637a.47.47,0,0,1-.2-.624l.6-1.221a1.386,1.386,0,0,0,0-1.225l-.6-1.221a.47.47,0,0,1,.2-.624l1.2-.637a1.386,1.386,0,0,0,.72-.991l.235-1.338a.47.47,0,0,1,.531-.386l1.345.19A1.386,1.386,0,0,0,16.731,2l.977-.945a.47.47,0,0,1,.656,0L19.34,2a1.386,1.386,0,0,0,1.165.379l1.345-.19a.47.47,0,0,1,.531.386l.235,1.338a1.386,1.386,0,0,0,.72.991l1.2.637a.47.47,0,0,1,.2.624l-.6,1.221a1.386,1.386,0,0,0,0,1.225l.6,1.221A.47.47,0,0,1,24.537,10.456Z" fill="#80838e"/>
    <path id="Path_50121" data-name="Path 50121" d="M149.711,123.9a.461.461,0,0,0-.653,0l-6.09,6.09a.461.461,0,1,0,.653.653l6.09-6.09A.461.461,0,0,0,149.711,123.9Zm-5.217-.781a1.692,1.692,0,1,0,1.692,1.692A1.694,1.694,0,0,0,144.494,123.116Zm0,2.461a.769.769,0,1,1,.769-.769A.77.77,0,0,1,144.494,125.577Zm3.691,2.461a1.692,1.692,0,1,0,1.692,1.692A1.694,1.694,0,0,0,148.185,128.038Zm0,2.461a.769.769,0,1,1,.769-.769A.77.77,0,0,1,148.185,130.5Z" transform="translate(-128.304 -119.27)" fill="#80838e"/>
  </g>
</svg>
