<svg id="Group_106675" data-name="Group 106675" xmlns="http://www.w3.org/2000/svg" width="19.441" height="17.087" viewBox="0 0 19.441 17.087">
  <path id="Path_49484" data-name="Path 49484" d="M211,240h3.417v1.139H211Zm0,0" transform="translate(-202.988 -230.887)"/>
  <path id="Path_49485" data-name="Path 49485" d="M15.772,84.723h-3.2v.57a.569.569,0,0,1-.57.57H7.442a.569.569,0,0,1-.57-.57v-.57h-3.2a1.707,1.707,0,0,1-1.621-1.168L0,77.41V89.849a1.711,1.711,0,0,0,1.709,1.709H17.732a1.711,1.711,0,0,0,1.709-1.709V77.41l-2.048,6.144a1.706,1.706,0,0,1-1.621,1.168Zm0,0" transform="translate(0 -74.471)"/>
  <path id="Path_49486" data-name="Path 49486" d="M36.828,0H32.271a1.711,1.711,0,0,0-1.709,1.709v.57H25.809l2.148,6.445a.569.569,0,0,0,.541.389h3.2v-.57a.569.569,0,0,1,.57-.57h4.556a.569.569,0,0,1,.57.57v.57h3.2a.569.569,0,0,0,.541-.389L43.29,2.278H38.536v-.57A1.711,1.711,0,0,0,36.828,0ZM31.7,2.278v-.57a.57.57,0,0,1,.57-.57h4.556a.57.57,0,0,1,.57.57v.57Zm0,0" transform="translate(-24.829)"/>
</svg>
