<svg id="Group_17346" data-name="Group 17346" xmlns="http://www.w3.org/2000/svg" width="18.748" height="18.75" viewBox="0 0 18.748 18.75">
  <path id="Path_14" data-name="Path 14" d="M6.25,9.375A3.125,3.125,0,1,1,9.375,12.5,3.125,3.125,0,0,1,6.25,9.375m-1.689,0A4.814,4.814,0,1,0,9.374,4.561,4.814,4.814,0,0,0,4.56,9.375m8.692-5a1.125,1.125,0,1,0,1.125-1.125h0A1.126,1.126,0,0,0,13.253,4.37M5.588,17.005a5.181,5.181,0,0,1-1.741-.322,2.914,2.914,0,0,1-1.078-.7,2.892,2.892,0,0,1-.7-1.078,5.176,5.176,0,0,1-.323-1.741c-.045-.988-.055-1.285-.055-3.788s.01-2.8.055-3.788a5.216,5.216,0,0,1,.322-1.741,2.913,2.913,0,0,1,.7-1.078,2.889,2.889,0,0,1,1.078-.7,5.176,5.176,0,0,1,1.742-.323c.988-.045,1.285-.055,3.787-.055s2.8.01,3.788.055a5.215,5.215,0,0,1,1.741.322,2.9,2.9,0,0,1,1.078.7,2.9,2.9,0,0,1,.7,1.078,5.177,5.177,0,0,1,.322,1.741c.045.989.055,1.285.055,3.788s-.009,2.8-.055,3.788a5.2,5.2,0,0,1-.322,1.741,3.1,3.1,0,0,1-1.78,1.779,5.176,5.176,0,0,1-1.741.322c-.988.045-1.285.055-3.788.055s-2.8-.009-3.787-.055M5.51.057A6.875,6.875,0,0,0,3.234.492,4.6,4.6,0,0,0,1.573,1.573,4.58,4.58,0,0,0,.492,3.234,6.876,6.876,0,0,0,.057,5.51C.011,6.509,0,6.829,0,9.375S.011,12.24.057,13.24a6.876,6.876,0,0,0,.435,2.275,4.583,4.583,0,0,0,1.081,1.661,4.609,4.609,0,0,0,1.661,1.081,6.88,6.88,0,0,0,2.275.435c1,.045,1.319.057,3.865.057s2.865-.011,3.865-.057a6.876,6.876,0,0,0,2.275-.435,4.793,4.793,0,0,0,2.742-2.742,6.856,6.856,0,0,0,.435-2.275c.045-1,.055-1.319.055-3.865s-.011-2.865-.055-3.865a6.874,6.874,0,0,0-.435-2.275,4.61,4.61,0,0,0-1.081-1.661A4.587,4.587,0,0,0,15.516.492,6.865,6.865,0,0,0,13.24.057C12.241.011,11.921,0,9.375,0S6.509.011,5.509.057" fill="#fff"/>
  <path id="Path_15" data-name="Path 15" d="M6.25,9.375A3.125,3.125,0,1,1,9.375,12.5,3.125,3.125,0,0,1,6.25,9.375m-1.689,0A4.814,4.814,0,1,0,9.374,4.561,4.814,4.814,0,0,0,4.56,9.375m8.692-5a1.125,1.125,0,1,0,1.125-1.125h0A1.126,1.126,0,0,0,13.253,4.37M5.588,17.005a5.181,5.181,0,0,1-1.741-.322,2.914,2.914,0,0,1-1.078-.7,2.892,2.892,0,0,1-.7-1.078,5.176,5.176,0,0,1-.323-1.741c-.045-.988-.055-1.285-.055-3.788s.01-2.8.055-3.788a5.216,5.216,0,0,1,.322-1.741,2.913,2.913,0,0,1,.7-1.078,2.889,2.889,0,0,1,1.078-.7,5.176,5.176,0,0,1,1.742-.323c.988-.045,1.285-.055,3.787-.055s2.8.01,3.788.055a5.215,5.215,0,0,1,1.741.322,2.9,2.9,0,0,1,1.078.7,2.9,2.9,0,0,1,.7,1.078,5.177,5.177,0,0,1,.322,1.741c.045.989.055,1.285.055,3.788s-.009,2.8-.055,3.788a5.2,5.2,0,0,1-.322,1.741,3.1,3.1,0,0,1-1.78,1.779,5.176,5.176,0,0,1-1.741.322c-.988.045-1.285.055-3.788.055s-2.8-.009-3.787-.055M5.51.057A6.875,6.875,0,0,0,3.234.492,4.6,4.6,0,0,0,1.573,1.573,4.58,4.58,0,0,0,.492,3.234,6.876,6.876,0,0,0,.057,5.51C.011,6.509,0,6.829,0,9.375S.011,12.24.057,13.24a6.876,6.876,0,0,0,.435,2.275,4.583,4.583,0,0,0,1.081,1.661,4.609,4.609,0,0,0,1.661,1.081,6.88,6.88,0,0,0,2.275.435c1,.045,1.319.057,3.865.057s2.865-.011,3.865-.057a6.876,6.876,0,0,0,2.275-.435,4.793,4.793,0,0,0,2.742-2.742,6.856,6.856,0,0,0,.435-2.275c.045-1,.055-1.319.055-3.865s-.011-2.865-.055-3.865a6.874,6.874,0,0,0-.435-2.275,4.61,4.61,0,0,0-1.081-1.661A4.587,4.587,0,0,0,15.516.492,6.865,6.865,0,0,0,13.24.057C12.241.011,11.921,0,9.375,0S6.509.011,5.509.057" fill="#fff"/>
</svg>
