<svg xmlns="http://www.w3.org/2000/svg" width="18.659" height="23.299" viewBox="0 0 18.659 23.299">
  <g id="Group_149829" data-name="Group 149829" transform="translate(-8.002 -2.034)">
    <path id="Path_102505" data-name="Path 102505" d="M21.289,12.943V11.36h2.247a.784.784,0,0,0,.579-1.318L17.039,2.411a1.207,1.207,0,0,0-1.753,0L8.211,10.042a.789.789,0,0,0,.583,1.318h2.247v9.719a.789.789,0,0,0,.789.785h2.815A6.644,6.644,0,0,1,21.289,12.943Z"/>
    <path id="Path_102506" data-name="Path 102506" d="M31.829,32.044a5.831,5.831,0,1,0,5.831,5.831A5.839,5.839,0,0,0,31.829,32.044Zm-3.3,3.888a1.361,1.361,0,0,1,2.721,0A1.361,1.361,0,0,1,28.525,35.932Zm1.244,4.552a.389.389,0,0,1-.548-.552l4.665-4.665a.389.389,0,0,1,.548.552Zm4,.7a1.361,1.361,0,0,1,0-2.721A1.361,1.361,0,0,1,33.773,41.18Z" transform="translate(-11 -18.343)"/>
    <path id="Path_102507" data-name="Path 102507" d="M35.664,41.14a.583.583,0,0,0-1.166,0A.583.583,0,0,0,35.664,41.14Zm3.3,3.3a.583.583,0,0,0,0,1.166A.583.583,0,0,0,38.969,44.445Z" transform="translate(-16.195 -23.552)"/>
  </g>
</svg>
