<svg xmlns="http://www.w3.org/2000/svg" width="19.762" height="19.762" viewBox="0 0 19.762 19.762">
  <path id="Layer_2" data-name="Layer 2" d="M11.131,1.25a9.881,9.881,0,1,0,9.881,9.881A9.881,9.881,0,0,0,11.131,1.25ZM7.169,7.169a1.59,1.59,0,0,1,2.27,0,1.609,1.609,0,1,1-2.27,2.27,1.59,1.59,0,0,1,0-2.27Zm1.838,8.07a.919.919,0,1,1-1.434-1.149l5.671-7.068a.919.919,0,1,1,1.434,1.149Zm6.076-.147a1.59,1.59,0,0,1-2.27,0,1.609,1.609,0,0,1,2.27-2.27,1.59,1.59,0,0,1,.009,2.27Z" transform="translate(-1.25 -1.25)"/>
</svg>
