<svg xmlns="http://www.w3.org/2000/svg" width="1123.784" height="221.39" viewBox="0 0 1123.784 221.39">
  <path id="Path_49512" data-name="Path 49512" d="M5875.667-3766.169l3.807-17.812,4.622-1.889,7.34,5.667h7.068l5.166-1.889,7.34,3.238,2.991-3.238,5.166-1.889,3.806-13.764h3.534l3.535-7.016,5.438,4.318,2.718,4.857,8.157-11.335,4.077,6.478,4.351-6.478,4.35,7.826h4.622l2.991,1.349,2.719-7.016,5.438,4.318,2.99-8.636h7.34l5.438,7.287,2.719-1.619,3.263,5.667,5.438-5.667h7.34l7.884,2.969h3.807l3.806,18.352,6.8,9.176,5.685-9.064,3.287-5.24,3.534,3.239,2.446-7.017,4.894-38.593,4.35,9.176h3.535l3.806,7.017,4.079-18.892,3.806-5.937,4.078,10.256,4.894-5.667h6.8l4.351-20.781,2.718,3.238h4.894l3.806-16.192,4.622,10.256h3.263l3.534,9.176,4.622-5.128,2.991,8.906,3.534-7.017,7.884,5.668,5.438-7.557,2.718,14.843,4.622,7.287,2.719-8.906,5.709-5.667,5.167,7.286,5.165,10.256,4.078,1.349,2.719-4.318,5.166-1.349,4.893-17.542,4.623,8.636,3.806,2.969,3.262,10.256,3.535,5.127,3.262-3.778,8.156,6.207,4.078-15.113,4.078,3.238,4.622,26.718,15.225-25.369h2.718l5.166,10.525,7.613-19.431,7.612,13.224h4.622l3.263,6.207,2.447-15.113h11.962l9.516-21.59,6.253,17.272,3.262,10.255,6.253-2.7h3.534l3.807,2.7h3.262l3.263-4.048,5.98,4.048,8.7-14.573,17.128,14.573,9.243-1.349,2.175,8.1h5.166l2.175,5.667h14.409l7.069-5.667,2.447,1.08,10.875,12.684,5.438-5.937,2.99,3.239,6.525-3.239,1.9,3.239,2.991-3.239,4.894,5.937,3.807-5.937,7.884,5.937,4.078-4.588,3.806,1.889,11.418-5.4,5.166,5.4,3.806-5.4,6.253,8.1,6.524-4.588,2.175-12.954,3.807-4.318h4.35l6.8-19.161,1.359-12.954,3.806-12.144,3.806,21.86,5.982,10.525,5.165-14.3,8.428,12.954,3.534-7.286,4.35,8.635h5.71l5.437,4.318,4.078-2.968,4.894-2.7h8.7l8.7,30.5,5.438,1.889,2.718-6.747,5.438-1.349,5.709-6.747,9.516-8.1,7.884,8.1,1.088-22.13,2.99-15.653,2.99,24.559,3.535-4.318,8.7,2.7,2.719,8.636,9.243-20.511,6.8,11.875h11.962l5.165-7.287,2.719,1.889s3.806-7.287,4.078-6.477,4.894,7.827,4.894,7.827l3.263-9.176,9.515,1.349,1.632,7.827,8.155-11.335,8.157-6.207,3.806,8.366,3.263-2.159,10.331,3.508,8.7,2.7,5.709-4.048,12.234,14.843,4.35-4.318,7.34,1.349,5.98-5.937,4.079,1.889,4.078-19.431,7.612,1.889,4.894-44.53,4.078,14.034,5.709-18.892,5.98-1.889,2.175-25.639,4.079-13.763,5.981,4.048,1.9-36.164,3.807,13.494,4.35,7.826s4.079-16.462,4.622-15.113,5.166,7.287,5.166,7.287v5.128l9.515,29.956,5.167-2.7h9.679l4.95-21.453,2.6,5.9,5.2,5.841,6.188-6.455h6.93l4.331,4.914,1.856,4.791h5.2l2.475-9.7,4.207-8.23,5.445,6.634,2.352-5.036,6.311,1.351,5.817-8.844,8.91,12.53,3.093,3.685,3.217-7.862,6.435,4.668,6.188,1.72,4.331,7.37,7.177-11.916,6.806,6.019s4.826-1.228,5.2-.737,2.722,6.634,2.722,6.634l3.465-7.37,5.816,5.282h3.217l4.208-4.545" transform="translate(-5874.934 3987.402)" fill="none" stroke="#e67947" strokeWidth="1.5"/>
</svg>
