<svg xmlns="http://www.w3.org/2000/svg" width="49.127" height="49.064" viewBox="0 0 49.127 49.064">
  <g id="Group_147021" data-name="Group 147021" transform="translate(-105.974 -228.79)">
    <path id="Path_21007" data-name="Path 21007" d="M155,260.481c-.079.4-.147.809-.24,1.208a9.2,9.2,0,0,1-14.075,5.646c-.091-.06-.186-.112-.37-.221,0,.405,0,.743,0,1.082a3.348,3.348,0,0,1-3.571,3.588q-4.009.015-8.017-.005c-.373,0-.5.1-.566.487a23.453,23.453,0,0,0-.328,4.367c.02.7-.376,1.128-.953,1.123s-.912-.436-.953-1.139a31.119,31.119,0,0,1,.586-6.207q.825-5.781,1.67-11.559c.066-.456.153-.911.188-1.369a2.3,2.3,0,0,0-4.56-.616c-.464,2.466-.908,4.937-1.36,7.406-.034.188-.067.375-.1.563a3.2,3.2,0,0,1-6.364-.517c-.016-3.452-.005-6.9-.005-10.356v-.646c-.165.193-.264.3-.351.414q-3.378,4.5-6.753,9.008a3.509,3.509,0,0,0-.134,4.376c1.433,2.2,2.876,4.387,4.287,6.6a2.4,2.4,0,0,1,.318,1.064c.051.616.022,1.24.011,1.86-.01.689-.4,1.128-.967,1.123a.929.929,0,0,1-.922-1.138A4.842,4.842,0,0,0,110.4,273.1c-1.158-1.632-2.2-3.343-3.3-5.02a5.4,5.4,0,0,1,.2-6.411q3.136-4.207,6.294-8.4c.716-.954,1.442-1.9,2.138-2.869a1.371,1.371,0,0,0,.245-.731c.022-1.431.006-2.863.014-4.295a1,1,0,0,1,.934-1.11.935.935,0,0,1,.957.819,4.731,4.731,0,0,1,.015.571q0,9.139,0,18.277a5.1,5.1,0,0,0,.011.525,1.282,1.282,0,0,0,2.54.147c.269-1.372.514-2.749.767-4.124.207-1.125.42-2.249.607-3.377a1.766,1.766,0,0,0-.081-.627,8.03,8.03,0,0,1-.316-1.426c-.042-1.494-.022-2.99-.014-4.485a3,3,0,0,1,3.072-3.084q3.77-.022,7.54,0a2.972,2.972,0,0,1,3.082,2.972c.053,1.557.051,3.119,0,4.676a2.992,2.992,0,0,1-3.115,3c-.584.009-1.169,0-1.768,0l-1.7,11.723c.192.011.344.026.5.027q3.841,0,7.683,0c1.178,0,1.7-.54,1.707-1.729,0-.223-.011-.446,0-.668a6.857,6.857,0,0,0-.83-3.743,8.773,8.773,0,0,1,.54-9.2,1.826,1.826,0,0,0,.277-.915q.023-10.523.012-21.045c0-1.27-.517-1.781-1.8-1.782-1.432,0-2.864.007-4.3-.006a.58.58,0,0,0-.57.314q-.634,1.037-1.307,2.05a2.593,2.593,0,0,1-4.554,0c-.446-.677-.888-1.358-1.31-2.049a.579.579,0,0,0-.571-.317c-1.5.014-2.991,0-4.486.007a1.5,1.5,0,0,0-1.621,1.644c-.006,1.432,0,2.864-.005,4.3a.95.95,0,1,1-1.9.047c-.016-1.559-.044-3.119.011-4.676a3.3,3.3,0,0,1,2.61-3.133,1.742,1.742,0,0,0,.216-.087h18.707c2.244.668,2.82,2.17,2.8,4.162-.058,6.18-.022,12.362-.022,18.544v.621c.191-.111.313-.173.427-.247a9.191,9.191,0,0,1,13.9,5.222c.153.546.243,1.11.362,1.666Zm-9.21-8.112a7.3,7.3,0,1,0,7.294,7.327A7.3,7.3,0,0,0,145.79,252.369Zm-22.467,1.623a4.263,4.263,0,0,1,6.814,1.985c.029.107.247.222.382.229.491.027.985.021,1.477.008a1.111,1.111,0,0,0,1.2-1.187q.032-2.215,0-4.432a1.113,1.113,0,0,0-1.229-1.207c-.89-.01-1.779,0-2.669,0-1.6,0-3.209-.006-4.813,0a1.053,1.053,0,0,0-1.154.97C123.3,251.545,123.323,252.732,123.323,253.992Zm3.32-23.171c.349.535.637,1.026.977,1.479a.617.617,0,0,0,1.052.024c.35-.46.642-.963,1-1.5Z" transform="translate(0)" stroke="#fff" strokeWidth="0.2"/>
    <path id="Path_21009" data-name="Path 21009" d="M137.364,247.117c0,.365.014.73,0,1.094a.946.946,0,0,1-.987.991.925.925,0,0,1-.913-1q-.016-1.094,0-2.188a.949.949,0,0,1,.926-1,.961.961,0,0,1,.972.967c.022.379,0,.76,0,1.14Z" transform="translate(-8.248 -4.535)"/>
    <path id="Path_21010" data-name="Path 21010" d="M142.993,250.725a1,1,0,0,1-.918-1.308,15.451,15.451,0,0,1,1.011-1.886.938.938,0,0,1,1.628.886,14.8,14.8,0,0,1-1.006,1.835C143.564,250.472,143.236,250.571,142.993,250.725Z" transform="translate(-10.091 -5.139)"/>
    <path id="Path_21011" data-name="Path 21011" d="M129.536,250.813a3.042,3.042,0,0,1-.7-.558,11.4,11.4,0,0,1-.783-1.414.948.948,0,1,1,1.67-.9,14.956,14.956,0,0,1,.78,1.469A1.028,1.028,0,0,1,129.536,250.813Z" transform="translate(-6.132 -5.217)"/>
    <path id="Path_21012" data-name="Path 21012" d="M121.744,245.423a.938.938,0,0,1-.954.921.948.948,0,1,1,.954-.921Z" transform="translate(-3.858 -4.378)"/>
    <path id="Path_21013" data-name="Path 21013" d="M159.207,249.58a6.372,6.372,0,0,0-2.354-5.245c-.122-.1-.257-.187-.38-.287a.939.939,0,0,1-.225-1.346.882.882,0,0,1,1.341-.175,15.69,15.69,0,0,1,2.119,2.164,7.487,7.487,0,0,1,1.4,4.377c.005.156,0,.313,0,.59.293-.264.506-.465.728-.654a.952.952,0,0,1,1.4,0,.937.937,0,0,1-.108,1.395q-1.132,1.058-2.292,2.084a.936.936,0,0,1-1.4-.034q-1.1-1.024-2.167-2.079a.928.928,0,0,1-.08-1.362.948.948,0,0,1,1.4-.009C158.768,249.157,158.936,249.325,159.207,249.58Z" transform="translate(-14.044 -3.771)" fill="#014cec"/>
    <path id="Path_21014" data-name="Path 21014" d="M159.708,274.078c-.568-.25-1.1-.448-1.6-.715a.736.736,0,0,1-.338-1.085.8.8,0,0,1,1.132-.208c.234.125.474.239.824.413v-1.45a2.581,2.581,0,0,1,0-.333,1.539,1.539,0,0,0-.858-1.741,2.34,2.34,0,0,1,.451-4.071c.276-.128.423-.247.421-.581a.739.739,0,0,1,1.476-.063.547.547,0,0,0,.479.574,2.241,2.241,0,0,1,.673.346.753.753,0,0,1-.75,1.305c-.1-.041-.193-.092-.362-.173,0,.706-.011,1.35.013,1.993,0,.093.16.218.272.262a2.551,2.551,0,0,1,1.85,2.5,2.789,2.789,0,0,1-1.82,2.71c-.284.121-.315.282-.327.538-.025.521-.305.809-.746.817s-.722-.28-.77-.791C159.718,274.216,159.71,274.107,159.708,274.078Zm1.573-1.879a1.3,1.3,0,0,0,.559-1.364,2.7,2.7,0,0,0-.443-.717l-.116.079Zm-1.607-4.473v-1.279C159.393,266.932,159.311,267.28,159.674,267.726Z" transform="translate(-14.492 -9.754)" fill="#014cec"/>
  </g>
</svg>
