<svg width="97" height="97" viewBox="0 0 97 97" fill="none" xmlns="http://www.w3.org/2000/svg">
<g id="Group 1000002952">
<path id="149931032" d="M48.559 0.64209C22.2212 0.64209 0.827961 22.0311 0.86149 48.3447C0.868094 53.6093 1.70759 58.6734 3.2832 63.4104H17.5554V23.2805L48.559 54.2839L79.5612 23.2805V63.4112H93.8364C95.4143 58.6745 96.2495 53.6103 96.2589 48.3455C96.3038 22.0044 74.8996 0.64844 48.559 0.64844V0.64209Z" fill="white"/>
<path id="149931160" d="M41.429 61.4114L27.8988 47.8804V73.1323H17.5544L7.79309 73.1341C16.1659 86.8708 31.2977 96.0598 48.559 96.0598C65.8204 96.0598 80.9529 86.8688 89.3273 73.132H69.2162V47.8804L55.6852 61.4114L48.5575 68.5391L41.4295 61.4114H41.429Z" fill="white"/>
</g>
</svg>
