<svg xmlns="http://www.w3.org/2000/svg" width="28.83" height="28.83" viewBox="0 0 28.83 28.83">
  <g id="coin" transform="translate(-5 -5)">
    <path id="Path_103196" data-name="Path 103196" d="M20.253,5h-1.7a2.814,2.814,0,0,0-.747.068l-.365.042a3.144,3.144,0,0,0-.619.1c-.2.042-.534.1-.848.161l-.212.042A14.493,14.493,0,0,0,5.415,15.778a1.7,1.7,0,0,0-.042.2c-.059.212-.1.424-.144.645a.433.433,0,0,0,0,.11c-.042.221-.076.45-.11.679s0,.238-.042.356c0,.255-.051.5-.068.747s0,.586,0,.849v.849A14.422,14.422,0,1,0,20.253,5ZM19.4,32.158A12.728,12.728,0,0,1,6.679,19.427a13.218,13.218,0,0,1,.4-3.2A12.728,12.728,0,0,1,16.2,7.1,13.333,13.333,0,0,1,19.4,6.7a12.73,12.73,0,0,1,0,25.46Z" transform="translate(0)" fill="#fff"/>
    <path id="Path_103197" data-name="Path 103197" d="M20.881,10.5a10.183,10.183,0,1,0,7.2,2.983A10.179,10.179,0,0,0,20.881,10.5Z" transform="translate(-1.375 -1.327)" fill="#fff"/>
    <path id="Path_103198" data-name="Path 103198" d="M20.709,16.5A5.992,5.992,0,0,0,14.7,22.19h2.185a5.747,5.747,0,0,0,5.736,5.69,5.935,5.935,0,0,0,5.736-5.69H26.171A5.513,5.513,0,0,0,20.709,16.5Zm2.185,9.213a3.6,3.6,0,0,1-3.551-3.523H17.158a3.551,3.551,0,0,1,7.1,0h2.185A3.6,3.6,0,0,1,22.894,25.713Z" transform="translate(-2.341 -2.775)" fill="#00a79e"/>
  </g>
</svg>
