<svg xmlns="http://www.w3.org/2000/svg" width="19.979" height="15.558" viewBox="0 0 19.979 15.558">
  <g id="Group_106679" data-name="Group 106679" transform="translate(-14.755 -68.2)">
    <path id="Path_49489" data-name="Path 49489" d="M27.433,279.335H16.413a1.656,1.656,0,0,1-1.578-2.162l.99-3.093a2.679,2.679,0,0,1,3.408-1.714,8.456,8.456,0,0,0,2.688.418,8.554,8.554,0,0,0,2.688-.418,2.679,2.679,0,0,1,3.408,1.714l.99,3.093A1.652,1.652,0,0,1,27.433,279.335Z" transform="translate(0 -195.576)"/>
    <circle id="Ellipse_9443" data-name="Ellipse 9443" cx="3.797" cy="3.797" r="3.797" transform="translate(18.127 68.2)"/>
    <path id="Path_49490" data-name="Path 49490" d="M289.16,93.44H285.37c.054-.062.1-.124.153-.19a2.467,2.467,0,0,0,.36-2.224l-.99-3.093c-.021-.066-.041-.128-.066-.195a7.554,7.554,0,0,0,1.926-.286,2.69,2.69,0,0,1,3.321,1.76l.663,2.062a1.66,1.66,0,0,1-1.578,2.166Zm-.911-11.55a3.585,3.585,0,0,1-6.348,2.286,4.617,4.617,0,0,0,.153-4.75,3.586,3.586,0,0,1,6.2,2.464Z" transform="translate(-256.082 -9.682)"/>
  </g>
</svg>
