<svg xmlns="http://www.w3.org/2000/svg" width="15.925" height="20.881" viewBox="0 0 15.925 20.881">
  <path id="Path_49488" data-name="Path 49488" d="M15,83.19H13.652V81.847a.929.929,0,0,0-1.859,0V83.19H10.45a.929.929,0,0,0-.929.929v4.545a.929.929,0,0,0,.929.929h1.343V95.56a.929.929,0,0,0,1.859,0V89.594H15a.929.929,0,0,0,.929-.929V84.119A.929.929,0,0,0,15,83.19Zm-9.521-.877H4.132V76.537a.929.929,0,0,0-1.859,0v5.776H.929A.929.929,0,0,0,0,83.243v6.97a.929.929,0,0,0,.929.929H2.273v1.343a.929.929,0,0,0,1.859,0V91.142H5.475a.929.929,0,0,0,.929-.929v-6.97A.93.93,0,0,0,5.475,82.313Z" transform="translate(0 -75.608)"/>
</svg>
