<svg width="108" height="95" viewBox="0 0 108 95" fill="none" xmlns="http://www.w3.org/2000/svg">
<g id="Group">
<path id="Vector" d="M81.7037 29.2815C79.745 28.1623 77.2268 28.1623 74.9884 29.2815L59.3195 38.515L48.687 44.3909L33.2979 53.6243C31.3393 54.7435 28.8211 54.7435 26.5826 53.6243L14.5511 46.3495C12.5925 45.2303 11.1935 42.9918 11.1935 40.4736V26.4835C11.1935 24.2451 12.3127 22.0067 14.5511 20.6077L26.5826 13.6126C28.5412 12.4934 31.0595 12.4934 33.2979 13.6126L45.3294 20.8875C47.288 22.0067 48.687 24.2451 48.687 26.7633V35.9968L59.3195 29.8411V20.3279C59.3195 18.0894 58.2003 15.851 55.9619 14.452L33.5777 1.30132C31.6191 0.182112 29.1009 0.182112 26.8624 1.30132L3.91866 14.7318C1.68024 15.851 0.561035 18.0894 0.561035 20.3279V46.6293C0.561035 48.8677 1.68024 51.1061 3.91866 52.5051L26.5826 65.6558C28.5412 66.775 31.0595 66.775 33.2979 65.6558L48.687 56.7021L59.3195 50.5465L74.7086 41.5928C76.6672 40.4736 79.1854 40.4736 81.4239 41.5928L93.4553 48.5879C95.414 49.7071 96.813 51.9455 96.813 54.4637V68.4538C96.813 70.6923 95.6938 72.9307 93.4553 74.3297L81.7037 81.3247C79.745 82.4439 77.2268 82.4439 74.9884 81.3247L62.9569 74.3297C60.9983 73.2105 59.5993 70.9721 59.5993 68.4538V59.5002L48.9668 65.6558V74.8893C48.9668 77.1277 50.086 79.3661 52.3244 80.7651L74.9884 93.9158C76.947 95.035 79.4652 95.035 81.7037 93.9158L104.368 80.7651C106.326 79.6459 107.725 77.4075 107.725 74.8893V48.3081C107.725 46.0697 106.606 43.8312 104.368 42.4322L81.7037 29.2815Z" fill="white"/>
</g>
</svg>
