<svg xmlns="http://www.w3.org/2000/svg" width="27.33" height="25.316" viewBox="0 0 27.33 25.316">
  <g id="Group_152588" data-name="Group 152588" transform="translate(-4 -6.064)">
    <path id="Path_103199" data-name="Path 103199" d="M26.614,13.813A3.129,3.129,0,1,0,28.537,8.22,3.142,3.142,0,0,0,26.614,13.813Z" transform="translate(-10.962 -1.104)" fill="#fff"/>
    <path id="Path_103200" data-name="Path 103200" d="M21.075,17.665a2.076,2.076,0,0,0,1.761.972h6.64a2.095,2.095,0,0,0,1.883-2.971,5.743,5.743,0,0,0-2.283-2.485,4.174,4.174,0,0,1-2.92,1.215,4.22,4.22,0,0,1-2.925-1.215c-1.386.862-3.208,2.754-2.156,4.485Zm10.674-6.008a3.132,3.132,0,1,0-.888-3.808,3.149,3.149,0,0,0,.888,3.808Z" transform="translate(-8.582 0)" fill="#fff"/>
    <path id="Path_103201" data-name="Path 103201" d="M27.241,15.012a3.579,3.579,0,0,1,.349,1.569,3.527,3.527,0,0,1-.142.972.434.434,0,0,0,.182.036h3.882a2.076,2.076,0,0,0,1.761-.972c1.054-1.731-.764-3.627-2.151-4.485a4.265,4.265,0,0,1-5.9.02c-.459.2.384.519.582.836a7.08,7.08,0,0,1,1.437,2.024Zm-16.034-3.35a3.15,3.15,0,1,0-1-3.474,3.133,3.133,0,0,0,1,3.474Z" transform="translate(-3.091 0)" fill="#fff"/>
    <path id="Path_103202" data-name="Path 103202" d="M6.729,23.949h3.882a.586.586,0,0,0,.187-.036,3.325,3.325,0,0,1-.146-.972,5.356,5.356,0,0,1,1.791-3.593c.2-.321,1.034-.633.577-.835a4.259,4.259,0,0,1-5.9-.025c-1.386.864-3.2,2.757-2.151,4.489A2.076,2.076,0,0,0,6.729,23.949Zm24.528,6.633a1.177,1.177,0,0,0-1.435-.72l-7.607,2.25a2.606,2.606,0,0,1-2.758,1.82l-4.182-.418a.53.53,0,1,1,.106-1.054l4.183.418a1.554,1.554,0,0,0,.767-2.97l-6.072-2.6a4.707,4.707,0,0,0-3.69.428L4,31.535l2.6,4.5L17.335,37.67a6.077,6.077,0,0,0,3.732-.62L30.7,32.033a1.18,1.18,0,0,0,.556-1.45Z" transform="translate(0 -6.361)" fill="#fff"/>
  </g>
</svg>
