<svg id="Group_152564" data-name="Group 152564" xmlns="http://www.w3.org/2000/svg" width="24.552" height="28.244" viewBox="0 0 24.552 28.244">
  <path id="Path_103187" data-name="Path 103187" d="M11.387,15.822h-.855v-1.7a.5.5,0,0,0-1.009,0v1.7H8.669A1.012,1.012,0,0,0,7.66,16.831v12.2A1.009,1.009,0,0,0,8.669,30.04h.855v1.7a.5.5,0,0,0,1.009,0v-1.7h.855A1.009,1.009,0,0,0,12.4,29.032v-12.2a1.012,1.012,0,0,0-1.009-1.009Zm6.6-6.254h-.851v-1.7a.5.5,0,0,0-1.009,0v1.7h-.853a1.012,1.012,0,0,0-1.009,1.009v12.2a1.009,1.009,0,0,0,1.009,1.009h.853v1.7a.5.5,0,0,0,1.009,0v-1.7h.851A1.005,1.005,0,0,0,19,22.777v-12.2a1.009,1.009,0,0,0-1.009-1.009ZM24.6,13.084h-.853v-1.7a.5.5,0,0,0-1.009,0v1.7h-.851a1.009,1.009,0,0,0-1.009,1.009v12.2A1.009,1.009,0,0,0,21.883,27.3h.851V29a.5.5,0,1,0,1.009,0V27.3H24.6a1.012,1.012,0,0,0,1.009-1.009v-12.2A1.012,1.012,0,0,0,24.6,13.084ZM31.2,6.2h-.855V4.5a.5.5,0,1,0-1.009,0V6.2h-.855a1.009,1.009,0,0,0-1.009,1.009v12.2a1.012,1.012,0,0,0,1.009,1.009h.855v1.7a.5.5,0,0,0,1.009,0v-1.7H31.2a1.012,1.012,0,0,0,1.009-1.009V7.213A1.009,1.009,0,0,0,31.2,6.2Z" transform="translate(-7.66 -4)" fill="#fff"/>
</svg>
