<svg id="Group_152566" data-name="Group 152566" xmlns="http://www.w3.org/2000/svg" width="26.87" height="28.004" viewBox="0 0 26.87 28.004">
  <path id="Path_103189" data-name="Path 103189" d="M35.934,14.363a.821.821,0,0,1,0-.725L36.978,11.5a2.431,2.431,0,0,0-1.049-3.228l-2.1-1.115a.821.821,0,0,1-.426-.587l-.411-2.342a2.431,2.431,0,0,0-2.746-2l-2.355.333a.821.821,0,0,1-.69-.224L25.491.689a2.431,2.431,0,0,0-3.394,0L20.388,2.342a.821.821,0,0,1-.69.224l-2.355-.333a2.431,2.431,0,0,0-2.746,2l-.411,2.342a.821.821,0,0,1-.426.587l-2.1,1.115A2.431,2.431,0,0,0,10.61,11.5l1.044,2.137a.821.821,0,0,1,0,.725L10.61,16.5a2.431,2.431,0,0,0,1.049,3.228l2.1,1.115a.821.821,0,0,1,.426.587l.411,2.342a2.429,2.429,0,0,0,2.4,2.02,2.5,2.5,0,0,0,.35-.025l2.355-.333a.82.82,0,0,1,.69.224L22.1,27.311a2.431,2.431,0,0,0,3.394,0L27.2,25.658a.821.821,0,0,1,.69-.224l2.355.333a2.431,2.431,0,0,0,2.746-2l.411-2.342a.821.821,0,0,1,.426-.587l2.1-1.115A2.431,2.431,0,0,0,36.978,16.5l-1.044-2.137ZM20.564,6.732A2.961,2.961,0,1,1,17.6,9.693,2.964,2.964,0,0,1,20.564,6.732ZM19.036,19.9a.808.808,0,0,1-1.142-1.142L28.553,8.1a.808.808,0,1,1,1.142,1.142Zm7.989,1.367a2.961,2.961,0,1,1,2.961-2.961A2.964,2.964,0,0,1,27.024,21.268Z" transform="translate(-10.359 0.002)" fill="#fff"/>
  <path id="Path_103190" data-name="Path 103190" d="M180.139,161.26a1.346,1.346,0,1,0,1.346,1.346A1.347,1.347,0,0,0,180.139,161.26Zm-6.46-8.614a1.346,1.346,0,1,0,1.346,1.346A1.347,1.347,0,0,0,173.679,152.646Z" transform="translate(-163.474 -144.297)" fill="#fff"/>
</svg>
