<svg id="Group_152565" data-name="Group 152565" xmlns="http://www.w3.org/2000/svg" width="28.509" height="28.268" viewBox="0 0 28.509 28.268">
  <path id="Path_103188" data-name="Path 103188" d="M7.278,14.206H5.9a.238.238,0,0,1-.238-.238V12.409a.238.238,0,0,1,.238-.238H7.251a1.039,1.039,0,0,1,1.044,1.034A1.018,1.018,0,0,1,7.278,14.206Zm10.35,7.651a.475.475,0,0,1-.455.611H3.326A3.326,3.326,0,0,1,0,19.142V10.22A3.326,3.326,0,0,1,3.326,6.894H22.57A3.326,3.326,0,0,1,25.9,10.22v8.922a3.305,3.305,0,0,1-.363,1.51.474.474,0,0,1-.558.235l-5.857-1.753a1.426,1.426,0,0,0-1.774,1.774Zm-8.9-7.013a.239.239,0,0,1,0-.325,1.973,1.973,0,0,0-1.485-3.3H5.189a.475.475,0,0,0-.475.475v5.969a.475.475,0,0,0,.475.475H7.24A1.973,1.973,0,0,0,8.726,14.843ZM15.214,11.7a.475.475,0,0,0-.95,0v4.178a1.315,1.315,0,1,1-2.631,0V11.7a.475.475,0,1,0-.95,0v4.178a2.266,2.266,0,1,0,4.531,0Zm1.5.244,1.689,2.815c.048.081.034-.124.034,2.908a.475.475,0,0,0,.507.474.486.486,0,0,0,.444-.49c0-3.008-.014-2.811.034-2.892l1.689-2.815a.475.475,0,1,0-.815-.489L19.12,13.418a.238.238,0,0,1-.407,0l-1.179-1.966a.475.475,0,1,0-.815.489ZM5.9,17.19H7.251a1.039,1.039,0,0,0,1.044-1.034,1.018,1.018,0,0,0-1.017-1H5.9a.238.238,0,0,0-.238.238v1.559A.238.238,0,0,0,5.9,17.19Zm7.522,9.665v-.832a.475.475,0,0,0-.95,0v.832a.475.475,0,0,0,.95,0ZM8.563,25.9l.588-.588a.475.475,0,1,0-.672-.672l-.588.588a.475.475,0,1,0,.672.672Zm4.86-22.557V2.507a.475.475,0,0,0-.95,0v.832a.475.475,0,0,0,.95,0Zm-4.273.715-.588-.588a.475.475,0,1,0-.672.672l.588.588a.475.475,0,0,0,.672-.672Zm8.267.672.588-.588a.475.475,0,1,0-.672-.672l-.588.588a.475.475,0,1,0,.672.672ZM28.34,27.058l-3.186-2.677,1.322-1.321a.475.475,0,0,0-.2-.791l-7.431-2.224a.475.475,0,0,0-.591.591l2.224,7.431a.475.475,0,0,0,.791.2l1.321-1.322,2.677,3.186a.475.475,0,0,0,.7.03l2.4-2.4a.476.476,0,0,0-.03-.7Z" transform="translate(0 -2.032)" fill="#fff"/>
</svg>
