<svg width="753" height="536" viewBox="0 0 753 536" fill="none" xmlns="http://www.w3.org/2000/svg">
<g style="mix-blend-mode:color-dodge" filter="url(#filter0_d_5_868)">
<path d="M9.04098 152.596C49.9643 148.541 90.7252 149.761 128.28 156.614C163.107 162.938 195.752 174.076 219.955 191.483C243.319 208.271 257.591 230.783 257.31 256.448C256.999 280.491 243.551 306.312 215.544 324.815C189.779 341.749 153.821 352.211 122.593 348.657C106.008 346.815 89.3739 341.028 83.1645 330.022C76.8416 319.275 82.8679 306.353 92.477 295.389C114.364 270.747 154.167 252.175 189.802 239.577C228.794 225.732 270.873 217.685 311.449 216.62C347.891 215.703 383.068 220.549 414.175 230.299C444.927 240.015 471.912 254.448 492.02 272.925C512.587 291.877 525.859 315.319 528.318 340.812C530.633 364.942 522.921 391.523 501.776 414.131C483.11 433.951 455.275 450.203 424.781 459.51C394.756 468.592 362.325 470.321 336.434 461.336C309.045 451.884 293.108 432.669 286.945 411.413C280.551 389.163 284.287 364.904 296.029 341.459C307.771 318.014 326.887 295.645 350.805 275.999C374.837 256.094 403.671 238.911 435.053 225.208C466.739 211.318 501.048 201.239 535.865 195.58C576.579 189.13 617.423 188.469 655.948 192.769C674.664 194.813 692.814 198.153 710.293 202.347" stroke="#DADADA" stroke-width="2" stroke-miterlimit="10" stroke-linecap="round" stroke-dasharray="10 10" style="mix-blend-mode:color-dodge"/>
</g>
<defs>
<filter id="filter0_d_5_868" x="0.0408936" y="141.281" width="719.252" height="334.982" filterUnits="userSpaceOnUse" color-interpolation-filters="sRGB">
<feFlood flood-opacity="0" result="BackgroundImageFix"/>
<feColorMatrix in="SourceAlpha" type="matrix" values="0 0 0 0 0 0 0 0 0 0 0 0 0 0 0 0 0 0 127 0" result="hardAlpha"/>
<feOffset/>
<feGaussianBlur stdDeviation="4"/>
<feColorMatrix type="matrix" values="0 0 0 0 0.937255 0 0 0 0 0.882353 0 0 0 0 0.882353 0 0 0 0.5 0"/>
<feBlend mode="normal" in2="BackgroundImageFix" result="effect1_dropShadow_5_868"/>
<feBlend mode="normal" in="SourceGraphic" in2="effect1_dropShadow_5_868" result="shape"/>
</filter>
</defs>
</svg>
