<svg id="Group_150185" data-name="Group 150185" xmlns="http://www.w3.org/2000/svg" width="163.396" height="163.396" viewBox="0 0 163.396 163.396">
  <path id="Path_49254" data-name="Path 49254" d="M165.9,24V58.4a4.3,4.3,0,0,1-8.6,0V24a12.915,12.915,0,0,0-12.9-12.9H110a4.3,4.3,0,1,1,0-8.6h34.4A21.524,21.524,0,0,1,165.9,24Zm-4.3,81.7a4.3,4.3,0,0,0-4.3,4.3v34.4a12.915,12.915,0,0,1-12.9,12.9H110a4.3,4.3,0,1,0,0,8.6h34.4a21.524,21.524,0,0,0,21.5-21.5V110A4.3,4.3,0,0,0,161.6,105.7ZM58.4,157.3H24a12.915,12.915,0,0,1-12.9-12.9V110a4.3,4.3,0,0,0-8.6,0v34.4A21.524,21.524,0,0,0,24,165.9H58.4a4.3,4.3,0,1,0,0-8.6ZM6.8,62.7a4.3,4.3,0,0,0,4.3-4.3V24A12.915,12.915,0,0,1,24,11.1H58.4a4.3,4.3,0,1,0,0-8.6H24A21.525,21.525,0,0,0,2.5,24V58.4A4.3,4.3,0,0,0,6.8,62.7ZM45.5,49.8v8.6a4.3,4.3,0,0,0,8.6,0V49.8a4.3,4.3,0,0,0-8.6,0Zm73.1,12.9a4.3,4.3,0,0,0,4.3-4.3V49.8a4.3,4.3,0,0,0-8.6,0v8.6A4.3,4.3,0,0,0,118.6,62.7ZM92.007,75.039A12.872,12.872,0,0,1,89.59,89.925a4.3,4.3,0,1,0,6.081,6.08A21.494,21.494,0,0,0,99.7,71.186L92.342,56.481a4.3,4.3,0,1,0-7.688,3.844L92.007,75.03Zm30.443,36.884a4.3,4.3,0,0,0-7.688-3.87c-.31.6-7.955,14.843-30.564,14.843s-30.254-14.241-30.555-14.817a4.3,4.3,0,1,0-7.688,3.844c.4.8,10.113,19.573,38.243,19.573s37.848-18.773,38.243-19.573Z" transform="translate(-2.5 -2.5)" fill="#f8f8f8"/>
</svg>
