<svg xmlns="http://www.w3.org/2000/svg" width="25" height="25" viewBox="0 0 25 25">
  <g id="Group_52096" data-name="Group 52096" transform="translate(0.5 0.5)">
    <path id="Path_49254" data-name="Path 49254" d="M26.5,5.658v5.053a.632.632,0,0,1-1.263,0V5.658a1.9,1.9,0,0,0-1.895-1.895H18.29a.632.632,0,1,1,0-1.263h5.053A3.161,3.161,0,0,1,26.5,5.658Zm-.632,12a.632.632,0,0,0-.632.632v5.053a1.9,1.9,0,0,1-1.895,1.895H18.29a.632.632,0,1,0,0,1.263h5.053A3.161,3.161,0,0,0,26.5,23.342V18.289A.632.632,0,0,0,25.869,17.658ZM10.711,25.237H5.658a1.9,1.9,0,0,1-1.895-1.895V18.289a.632.632,0,0,0-1.263,0v5.053A3.161,3.161,0,0,0,5.658,26.5h5.053a.632.632,0,1,0,0-1.263ZM3.132,11.342a.632.632,0,0,0,.632-.632V5.658A1.9,1.9,0,0,1,5.658,3.763h5.053a.632.632,0,1,0,0-1.263H5.658A3.162,3.162,0,0,0,2.5,5.658v5.053A.632.632,0,0,0,3.132,11.342ZM8.816,9.447v1.263a.632.632,0,0,0,1.263,0V9.447a.632.632,0,1,0-1.263,0Zm10.737,1.895a.632.632,0,0,0,.632-.632V9.447a.632.632,0,0,0-1.263,0v1.263A.632.632,0,0,0,19.553,11.342Zm-3.906,1.813a1.891,1.891,0,0,1-.355,2.187.632.632,0,1,0,.893.893,3.157,3.157,0,0,0,.592-3.646L15.7,10.429a.632.632,0,1,0-1.129.565l1.08,2.16Zm4.472,5.418A.632.632,0,0,0,18.989,18c-.045.088-1.168,2.18-4.489,2.18s-4.444-2.092-4.488-2.176a.632.632,0,1,0-1.129.565c.058.117,1.485,2.875,5.617,2.875s5.559-2.757,5.617-2.875Z" transform="translate(-2.5 -2.5)" stroke="#000" stroke-width="1"/>
  </g>
</svg>
