<svg id="Group_149410" data-name="Group 149410" xmlns="http://www.w3.org/2000/svg" width="12.563" height="13.229" viewBox="0 0 12.563 13.229">
  <path id="Icon_ionic-ios-arrow-down" data-name="Icon ionic-ios-arrow-down" d="M6.617,2.28l5,5.006a.941.941,0,0,0,1.335,0,.953.953,0,0,0,0-1.339L7.286.275a.944.944,0,0,0-1.3-.028L.276,5.943A.945.945,0,0,0,1.611,7.282Z" transform="translate(0 13.229) rotate(-90)" fill="#03a89f"/>
  <path id="Icon_ionic-ios-arrow-down-2" data-name="Icon ionic-ios-arrow-down" d="M6.617,2.28l5,5.006a.941.941,0,0,0,1.335,0,.953.953,0,0,0,0-1.339L7.286.275a.944.944,0,0,0-1.3-.028L.276,5.943A.945.945,0,0,0,1.611,7.282Z" transform="translate(5 13.229) rotate(-90)" fill="#03a89f"/>
</svg>
