<svg xmlns="http://www.w3.org/2000/svg" width="51.639" height="51.646" viewBox="0 0 51.639 51.646">
  <g id="Group_147034" data-name="Group 147034" transform="translate(1494.313 984.559)">
    <path id="Path_21002" data-name="Path 21002" d="M-1493.5-752.912a1.427,1.427,0,0,1-.817-1.467q.025-10.359.01-20.718c0-1.067.357-1.434,1.411-1.436q3,0,6,0c1.026,0,1.382.366,1.383,1.406q0,2.268,0,4.537c0,.977.263,1.153,1.2.811a15.715,15.715,0,0,1,5.774-.981,4.828,4.828,0,0,1,3.8,1.656,4.9,4.9,0,0,0,4.342,1.631,26.516,26.516,0,0,1,4.066-.026,9.7,9.7,0,0,1,2.856.885,4.223,4.223,0,0,1,2.15,2.245.7.7,0,0,0,.926.446c.552-.141,1.1-.319,1.648-.459,1.707-.431,3.405-.908,5.129-1.261,2.063-.422,3.274.31,3.972,2.3a7.224,7.224,0,0,1,.363,1.563,1.784,1.784,0,0,1-.95,1.95c-2.15,1.1-4.278,2.248-6.474,3.246a52.073,52.073,0,0,1-9.5,3.415c-.39.092-.782.175-1.172.262h-1.513a1.408,1.408,0,0,0-.228-.086c-1.185-.23-2.394-.372-3.551-.7-3.969-1.119-7.921-2.3-11.877-3.462-.692-.2-.953-.029-.959.681s-.029,1.446.007,2.167a1.3,1.3,0,0,1-.835,1.4Zm7.989-10.5c0,.991.008,1.983,0,2.974a.741.741,0,0,0,.577.817c4.581,1.482,9.158,2.975,13.86,4.038a9.286,9.286,0,0,0,4.674.2,70.949,70.949,0,0,0,13.945-5.709c1.079-.57,1.108-.733.595-1.848a.911.911,0,0,0-1.122-.619,5.183,5.183,0,0,0-.59.127c-3.995,1.1-7.982,2.222-11.989,3.272a9.538,9.538,0,0,1-3.223.411,32.679,32.679,0,0,1-4.475-.948,1.044,1.044,0,0,1-.824-1.291,1.086,1.086,0,0,1,1.343-.828,13.236,13.236,0,0,1,1.715.4,10.642,10.642,0,0,0,7.191-.422c.492-.175.621-.524.3-.934a3.98,3.98,0,0,0-.865-.828,4.979,4.979,0,0,0-2.82-.8c-1.107-.009-2.214.088-3.321.13a6.773,6.773,0,0,1-5.808-2.328,2.774,2.774,0,0,0-2.143-.941,15.03,15.03,0,0,0-6.584,1.434.722.722,0,0,0-.434.773C-1485.5-765.36-1485.507-764.385-1485.507-763.41Zm-6.58-1.327q0,4.36,0,8.72c0,.77.115.889.861.89q1.361,0,2.722,0c.634,0,.783-.141.784-.762q0-8.846,0-17.693c0-.606-.133-.728-.757-.731q-1.411-.007-2.823,0c-.662,0-.786.13-.786.805Q-1492.089-769.123-1492.087-764.737Z" transform="translate(0 -180.001)"/>
    <path id="Path_21003" data-name="Path 21003" d="M-1336.808-965.685c-.164.939-.287,1.886-.5,2.814a17.548,17.548,0,0,1-14.866,13.338,17.442,17.442,0,0,1-11.826-2.71,1.137,1.137,0,0,1-.621-1.215.951.951,0,0,1,.812-.853,1.5,1.5,0,0,1,.846.182,21.494,21.494,0,0,0,4.55,2,15.374,15.374,0,0,0,19.1-11.939,15.36,15.36,0,0,0-13.127-18.134,15.4,15.4,0,0,0-17.157,13.091,15.4,15.4,0,0,0,2.274,10.457,1.913,1.913,0,0,1,.313.973.975.975,0,0,1-.84.943,1.021,1.021,0,0,1-1.2-.54,31.255,31.255,0,0,1-1.937-3.968,17.549,17.549,0,0,1,13.731-23.068,17.58,17.58,0,0,1,20.261,14.875c.058.412.123.823.184,1.234Z" transform="translate(-105.867)"/>
    <path id="Path_21004" data-name="Path 21004" d="M-1288.142-933.155a.878.878,0,0,1,0,.151c-.137.821.172,1.265.966,1.647a4.257,4.257,0,0,1,1.9,5.646c-.353.757-.353.757.317,1.271a4.388,4.388,0,0,1,1.569,4.675,4.35,4.35,0,0,1-3.707,3.179q-.25.03-.5.052a.536.536,0,0,0-.545.595c0,.487.006.974,0,1.462a1.115,1.115,0,0,1-1.1,1.195,1.111,1.111,0,0,1-1.115-1.175c-.011-.47-.007-.941,0-1.411,0-.43-.185-.664-.631-.662q-.731,0-1.462,0c-.445,0-.638.228-.634.659,0,.47.009.941,0,1.411a1.11,1.11,0,0,1-1.111,1.179,1.116,1.116,0,0,1-1.1-1.192c-.01-.487,0-.975,0-1.462a.532.532,0,0,0-.592-.594c-.487,0-.975.009-1.462-.006a1.147,1.147,0,0,1-1.237-1.118,1.12,1.12,0,0,1,1.244-1.094c.453-.008.907,0,1.361,0s.689-.2.688-.669q0-4.813,0-9.627a.588.588,0,0,0-.677-.674c-.47.005-.941.008-1.411,0a1.121,1.121,0,0,1-1.2-1.091,1.123,1.123,0,0,1,1.223-1.121c.453-.007.907,0,1.361,0,.519-.008.7-.181.7-.692.008-.47-.008-.941,0-1.411a1.087,1.087,0,0,1,1.087-1.143,1.09,1.09,0,0,1,1.123,1.158c.012.487,0,.974,0,1.462a.557.557,0,0,0,.62.626c.5,0,1.008.007,1.512,0a.544.544,0,0,0,.591-.6c.006-.487-.005-.975,0-1.462a1.093,1.093,0,0,1,1.1-1.18,1.1,1.1,0,0,1,1.111,1.171C-1288.136-933.726-1288.142-933.44-1288.142-933.155Zm-1.812,14.4c.772,0,1.545.008,2.318,0a2.046,2.046,0,0,0,1.787-.857,2.269,2.269,0,0,0,.189-2.345,1.976,1.976,0,0,0-1.9-1.177c-1.612-.022-3.224-.015-4.837-.007-.5,0-.679.2-.682.721q-.009,1.461,0,2.922c0,.57.175.739.76.744C-1291.533-918.746-1290.744-918.751-1289.954-918.751Zm-.8-6.605v-.006c.553,0,1.107.019,1.66,0a2.054,2.054,0,0,0,2.008-2.144,2.063,2.063,0,0,0-2.011-2.2c-1.123-.033-2.247-.012-3.37-.01a.554.554,0,0,0-.618.625q0,1.559,0,3.119a.548.548,0,0,0,.621.617Z" transform="translate(-169.345 -42.743)" fill="#014cec"/>
  </g>
</svg>
