<svg xmlns="http://www.w3.org/2000/svg" width="11.492" height="11.07" viewBox="0 0 52.492 54.07">
  <g id="Group_150028" data-name="Group 150028" transform="translate(-1.374)">
    <path id="Path_102617" data-name="Path 102617" d="M53.156,3.156a1.147,1.147,0,0,0-1.253.249l-4.78,4.78A26.7,26.7,0,0,0,27.828,0,26.969,26.969,0,0,0,1.7,20.258a1.15,1.15,0,0,0,1.113,1.436h7.322a1.149,1.149,0,0,0,1.079-.755,17.642,17.642,0,0,1,16.6-11.651,17.5,17.5,0,0,1,12.742,5.46L35.706,19.6a1.15,1.15,0,0,0,.813,1.962h16.2a1.15,1.15,0,0,0,1.15-1.15V4.218a1.151,1.151,0,0,0-.71-1.062Zm-.732,29.22H45.1a1.149,1.149,0,0,0-1.079.754,17.642,17.642,0,0,1-16.6,11.651,17.5,17.5,0,0,1-12.742-5.46l4.853-4.853A1.15,1.15,0,0,0,18.72,32.5H2.524a1.15,1.15,0,0,0-1.15,1.15v16.2a1.15,1.15,0,0,0,1.962.812l4.78-4.779a26.7,26.7,0,0,0,19.295,8.185A26.969,26.969,0,0,0,53.538,33.813a1.148,1.148,0,0,0-1.113-1.437Z" transform="translate(0)" fill="#00a79e"/>
  </g>
</svg>
