<svg xmlns="http://www.w3.org/2000/svg" width="43.229" height="43.183" viewBox="0 0 43.229 43.183">
  <g id="Group_147023" data-name="Group 147023" transform="translate(-1144 -4492)">
    <path id="Path_11371" data-name="Path 11371" d="M1427.294,277.667a1.931,1.931,0,0,1-2.105,1.361q-13.029-.03-26.057-.012a3.367,3.367,0,0,1-3.507-2.876,4.293,4.293,0,0,1-.042-.714q0-3.141,0-6.282v-.532c-.151.137-.242.214-.326.3q-3.53,3.506-7.059,7.013a1.734,1.734,0,0,0-.01,2.806q3.514,3.492,7.03,6.983c.1.095.2.183.366.337,0-.564,0-1.049,0-1.533a1.687,1.687,0,1,1,3.369-.017,14.289,14.289,0,0,1-.083,2.395,3.264,3.264,0,0,1-5.251,1.953,5.523,5.523,0,0,1-.467-.426q-3.709-3.685-7.415-7.374a5.028,5.028,0,0,1-.03-7.4q3.769-3.774,7.563-7.524a3.3,3.3,0,0,1,5.684,2.388c.006,2.207,0,4.413,0,6.62v.512h.558q12.839,0,25.678-.012a1.926,1.926,0,0,1,2.1,1.361Z" transform="translate(-240.064 4245.624)"/>
    <path id="Path_11372" data-name="Path 11372" d="M1427.115,183.591a5.683,5.683,0,0,1-1.031,2.457,6.641,6.641,0,0,1-.47.54c-2.558,2.549-5.111,5.1-7.684,7.639a3.269,3.269,0,0,1-4.539.176,3.161,3.161,0,0,1-1.115-2.369c-.02-.646-.014-1.293,0-1.939a1.684,1.684,0,1,1,3.369-.009c.01.515,0,1.03,0,1.63.168-.154.28-.25.384-.353q3.53-3.505,7.058-7.013a1.7,1.7,0,0,0,.016-2.687q-3.571-3.554-7.147-7.1c-.077-.076-.16-.147-.31-.285v.516q0,3.183,0,6.366a3.374,3.374,0,0,1-3.527,3.528q-13.176.005-26.35,0a1.7,1.7,0,0,1-1.616-.872,1.594,1.594,0,0,1,.049-1.719,1.624,1.624,0,0,1,1.326-.78c.154-.011.309,0,.464,0h26.281v-.464q0-3.289,0-6.577a3.269,3.269,0,0,1,2.677-3.439.436.436,0,0,0,.106-.063h1.012a4.825,4.825,0,0,1,2.406,1.52c2.291,2.309,4.608,4.593,6.912,6.889a10.135,10.135,0,0,1,.7.779,5.6,5.6,0,0,1,1.026,2.452Z" transform="translate(-239.922 4321.229)" fill="#014cec"/>
  </g>
</svg>
