<svg xmlns="http://www.w3.org/2000/svg" width="20.225" height="13.483" viewBox="0 0 20.225 13.483">
  <path id="Path_49487" data-name="Path 49487" d="M2.88,90.39h9.763a.843.843,0,0,0,0-1.685H2.88l1.932-1.932A.843.843,0,0,0,3.62,85.581L.249,88.951c-.02.02-.038.04-.056.062l-.022.03c-.009.012-.018.024-.027.036s-.015.024-.022.037-.014.022-.02.034-.012.025-.018.038-.012.024-.017.036-.009.025-.014.038-.01.026-.014.04-.007.025-.01.038-.007.028-.01.042,0,.03-.007.045,0,.024-.005.037a.848.848,0,0,0,0,.166c0,.012,0,.025.005.037s0,.03.007.045.007.028.01.042.006.026.01.038.009.027.014.04.009.025.014.038.011.024.017.036.012.026.018.038.013.023.02.034.014.025.022.037.018.024.027.036l.022.03c.017.021.036.042.055.061h0L3.62,93.514a.843.843,0,1,0,1.192-1.192Zm17.157,4.748.023-.03c.009-.012.018-.024.027-.036s.015-.024.022-.037.014-.022.02-.034.012-.026.018-.038.012-.024.017-.036.009-.025.014-.038.01-.026.014-.04.007-.026.01-.038.007-.028.01-.042,0-.03.007-.045,0-.024.005-.037a.848.848,0,0,0,0-.166c0-.012,0-.025-.005-.037s0-.03-.007-.045-.007-.028-.01-.042-.006-.026-.01-.038-.009-.027-.014-.04-.009-.025-.014-.038-.011-.024-.017-.036-.012-.026-.018-.038-.013-.023-.02-.034-.014-.025-.022-.037-.018-.024-.027-.036l-.023-.03q-.026-.032-.055-.061h0L16.61,90.637a.843.843,0,0,0-1.192,1.192l1.932,1.932H7.587a.843.843,0,0,0,0,1.685H17.35l-1.932,1.932A.843.843,0,0,0,16.61,98.57L19.981,95.2h0Q20.01,95.169,20.036,95.138Z" transform="translate(-0.003 -85.334)"/>
</svg>
