<svg xmlns="http://www.w3.org/2000/svg" width="96" height="96" viewBox="0 0 96 96">
  <g id="Group_25757" data-name="Group 25757" transform="translate(-202 -126)">
    <path id="Subtraction_17" data-name="Subtraction 17" d="M35,70A35.009,35.009,0,0,1,21.376,2.75a35.009,35.009,0,0,1,27.247,64.5A34.781,34.781,0,0,1,35,70Zm.384-53h0L17,35.384,35.384,53.77,53.77,35.384,35.384,17Z" transform="translate(202 152)" fill="#9e9e9e"/>
    <path id="Subtraction_18" data-name="Subtraction 18" d="M1403.333-3129.875v0A38.323,38.323,0,0,0,1404-3137a38.043,38.043,0,0,0-38-38,38.329,38.329,0,0,0-7.125.667,34.863,34.863,0,0,1,5-9.506,35.143,35.143,0,0,1,7.565-7.49A34.74,34.74,0,0,1,1392-3198a34.776,34.776,0,0,1,13.623,2.75,34.883,34.883,0,0,1,11.125,7.5,34.89,34.89,0,0,1,7.5,11.125A34.783,34.783,0,0,1,1427-3163a34.739,34.739,0,0,1-6.671,20.558,35.148,35.148,0,0,1-7.49,7.565,34.86,34.86,0,0,1-9.5,5Z" transform="translate(-1129 3324)" fill="#9e9e9e"/>
    <path id="Path_51272" data-name="Path 51272" d="M-1126,3348v-24h24.008Z" transform="translate(1328 -3198)" fill="#9e9e9e"/>
    <path id="Path_51273" data-name="Path 51273" d="M-1101.992,3324v24H-1126Z" transform="translate(1399.992 -3126)" fill="#9e9e9e"/>
  </g>
</svg>
