<svg id="Group_106829" data-name="Group 106829" xmlns="http://www.w3.org/2000/svg" xmlns:xlink="http://www.w3.org/1999/xlink" width="304" height="239.837" viewBox="0 0 304 239.837">
  <defs>
    <clipPath id="clip-path">
      <rect id="Rectangle_11005" data-name="Rectangle 11005" width="304" height="239.837" fill="none"/>
    </clipPath>
  </defs>
  <rect id="Rectangle_11002" data-name="Rectangle 11002" width="274.472" height="0.984" transform="translate(17.522 238.219)" fill="#252362"/>
  <g id="Group_106828" data-name="Group 106828">
    <g id="Group_106827" data-name="Group 106827" clip-path="url(#clip-path)">
      <path id="Path_49693" data-name="Path 49693" d="M246.105,135.192a19.539,19.539,0,0,1-2.548,26.592q-.485.428-1.005.829a19.545,19.545,0,0,1-31.435-16.883l0-.03a19.641,19.641,0,0,1,1-4.913,19.432,19.432,0,0,1,3.965-6.745,19.569,19.569,0,0,1,30.018,1.152" transform="translate(-131.096 -79.237)" fill="#fff"/>
      <path id="Path_49694" data-name="Path 49694" d="M230.011,166.449a19.917,19.917,0,0,1-19.9-21.356l0-.031a20.05,20.05,0,0,1,1.022-5.009,19.722,19.722,0,0,1,4.043-6.876,19.948,19.948,0,0,1,30.6,1.174,19.85,19.85,0,0,1,4.137,11.614,20.015,20.015,0,0,1-1.8,8.847,19.719,19.719,0,0,1-4.937,6.648c-.328.289-.673.574-1.024.845a19.838,19.838,0,0,1-11.31,4.127c-.28.012-.56.018-.838.018m-.038-39.1a19.074,19.074,0,0,0-11.68,3.978,19.334,19.334,0,0,0-2.547,2.355,18.964,18.964,0,0,0-3.888,6.614,19.254,19.254,0,0,0-.983,4.818l-.381,0,.379.027A19.165,19.165,0,0,0,241.7,161.7c.339-.261.67-.534.986-.813a18.961,18.961,0,0,0,4.749-6.394,19.245,19.245,0,0,0,1.225-12.395,19.175,19.175,0,0,0-18.682-14.748" transform="translate(-130.471 -78.629)" fill="#252362"/>
      <path id="Path_49695" data-name="Path 49695" d="M249.68,144.684a15.332,15.332,0,1,1-21.5-2.786,15.332,15.332,0,0,1,21.5,2.786" transform="translate(-138.012 -86.154)" fill="#fff"/>
      <path id="Path_49696" data-name="Path 49696" d="M236.941,169.137a15.71,15.71,0,1,1,12.428-25.3h0a15.7,15.7,0,0,1-12.428,25.3m-.034-30.653a14.948,14.948,0,1,0,11.861,5.82h0a14.937,14.937,0,0,0-11.861-5.82" transform="translate(-137.4 -85.542)" fill="#252362"/>
      <path id="Path_49697" data-name="Path 49697" d="M257.473,156.98l-2.849,6.337h0l-1.019,2.266-9.459,1.052h0l-1.255-15.844Z" transform="translate(-150.861 -93.658)" fill="#77cbd8"/>
      <path id="Path_49699" data-name="Path 49699" d="M261.264,169.513l.14,14.137L247.938,179l9.454-.893.076-.007,3.8-8.591" transform="translate(-153.997 -105.286)" fill="#77cbd8"/>
      <path id="Path_49701" data-name="Path 49701" d="M272.965,178.1l3.8-8.591.14,14.137-4.012-5.539.076-.007" transform="translate(-169.494 -105.286)" fill="#77cbd8"/>
      <path id="Path_49703" data-name="Path 49703" d="M257.473,156.98l-3.869,8.6-10.715-14.792Z" transform="translate(-150.861 -93.658)" fill="#77cbd8"/>
      <path id="Path_49705" data-name="Path 49705" d="M259.529,167.126l-2.849,6.337h0l-1.019,2.266L246.2,176.78h0l4.5-7.9Z" transform="translate(-152.918 -103.804)" fill="#77cbd8"/>
      <path id="Path_49707" data-name="Path 49707" d="M393.848,65.229a13.06,13.06,0,1,1-5.661-17.581,13.061,13.061,0,0,1,5.661,17.581" transform="translate(-229.291 -28.699)" fill="#77cbd8"/>
      <path id="Path_49708" data-name="Path 49708" d="M381.412,72.034a13.585,13.585,0,1,1,4.166-.659,13.486,13.486,0,0,1-4.166.659m.035-26.126a12.574,12.574,0,1,0,5.719,1.384,12.59,12.59,0,0,0-5.719-1.384" transform="translate(-228.492 -27.913)" fill="#252362"/>
      <path id="Path_49709" data-name="Path 49709" d="M396.416,69.283a9.635,9.635,0,1,1-4.177-12.97,9.635,9.635,0,0,1,4.177,12.97" transform="translate(-234.908 -34.316)" fill="#77cbd8"/>
      <path id="Path_49710" data-name="Path 49710" d="M387.035,74.212a10.146,10.146,0,1,1,3.113-.492,10.073,10.073,0,0,1-3.113.492m.021-19.279a9.167,9.167,0,1,0,4.166,1.013,9.162,9.162,0,0,0-4.166-1.013" transform="translate(-234.11 -33.518)" fill="#252362"/>
      <path id="Path_49711" data-name="Path 49711" d="M389.832,69.943l2.37-2.956,4.638-.572,1.282-1.749-4.523.579,3.45-4.3-2.82-1.446-5.08,6.32-1.843.236-1.358,1.71,1.817-.224-2.576,3.2,8.84,4.533,1.823-2.241Z" transform="translate(-239.245 -36.952)" fill="#fff"/>
      <path id="Path_49713" data-name="Path 49713" d="M577.5,429.7a13.061,13.061,0,1,1-17.423-6.131A13.06,13.06,0,0,1,577.5,429.7" transform="translate(-343.265 -262.285)" fill="#77cbd8"/>
      <path id="Path_49714" data-name="Path 49714" d="M564.95,448.113a13.57,13.57,0,1,1,5.845-1.338,13.555,13.555,0,0,1-5.845,1.338m-.03-26.127a12.576,12.576,0,1,0,11.361,7.139,12.5,12.5,0,0,0-11.361-7.139" transform="translate(-342.478 -261.499)" fill="#252362"/>
      <path id="Path_49715" data-name="Path 49715" d="M580.032,436.8a9.635,9.635,0,1,1-12.853-4.523,9.635,9.635,0,0,1,12.853,4.523" transform="translate(-348.882 -267.902)" fill="#77cbd8"/>
      <path id="Path_49716" data-name="Path 49716" d="M570.563,450.29a10.129,10.129,0,1,1,4.367-1,10.13,10.13,0,0,1-4.367,1m-.014-19.28a9.176,9.176,0,1,0,3.044.524,9.117,9.117,0,0,0-3.044-.524" transform="translate(-348.094 -267.104)" fill="#252362"/>
      <path id="Path_49717" data-name="Path 49717" d="M579.2,447.214l-.92-3.676,2.351-4.038-.617-2.079-2.276,3.951-1.34-5.351-2.857,1.37,1.957,7.869-.927,1.61.54,2.116.921-1.583.992,3.99,8.958-4.295-.681-2.808Z" transform="translate(-356.233 -270.817)" fill="#fff"/>
      <path id="Path_49719" data-name="Path 49719" d="M580.827,51.119a16.444,16.444,0,0,1-20.512,9.2q-.515-.177-1.024-.391a16.448,16.448,0,0,1-.729-30.02l.023-.011a16.535,16.535,0,0,1,4.011-1.311,16.456,16.456,0,0,1,18.231,22.532" transform="translate(-341.112 -17.576)" fill="#ffaf30"/>
      <path id="Path_49720" data-name="Path 49720" d="M564.841,60.9a16.775,16.775,0,0,1-5.479-.922c-.351-.12-.706-.256-1.054-.4a16.939,16.939,0,0,1-.75-30.916l.023-.012a17.057,17.057,0,0,1,4.13-1.35,16.769,16.769,0,0,1,6.782.1A16.959,16.959,0,0,1,580.487,50.5a16.879,16.879,0,0,1-6.844,7.939,17.036,17.036,0,0,1-7.293,2.39q-.756.067-1.509.067m-7.072-31.8.211.443a15.957,15.957,0,0,0,.707,29.123c.329.138.663.265.994.379a15.8,15.8,0,0,0,6.582.8,16.016,16.016,0,0,0,9.475-4.216,15.97,15.97,0,0,0-4.7-26.408,16.085,16.085,0,0,0-2.753-.874,15.785,15.785,0,0,0-6.387-.092A16.05,16.05,0,0,0,558,29.533Z" transform="translate(-340.319 -16.768)" fill="#252362"/>
      <path id="Path_49721" data-name="Path 49721" d="M583.373,55.568a12.9,12.9,0,1,1-6.909-16.889,12.9,12.9,0,0,1,6.909,16.889" transform="translate(-346.933 -23.398)" fill="#ffaf30"/>
      <path id="Path_49722" data-name="Path 49722" d="M570.645,63.171a13.395,13.395,0,1,1,12.37-8.214,13.316,13.316,0,0,1-12.37,8.214m.034-25.806a12.412,12.412,0,1,0,4.784.966,12.43,12.43,0,0,0-4.784-.966" transform="translate(-346.121 -22.597)" fill="#252362"/>
      <path id="Path_49723" data-name="Path 49723" d="M583.3,57.062a4.857,4.857,0,0,0-1.586-2.068l.072-.174A3.389,3.389,0,0,0,585.506,51a3.009,3.009,0,0,0-.682-1.406,3.669,3.669,0,0,0-.6-.574l1.137-2.712-1.69-.709-1.029,2.454q-.533-.268-1.173-.537l-.078-.033,1.014-2.416-1.69-.709L579.7,46.772,576.7,45.512a.1.1,0,0,0-.142.06l-.222.53a.1.1,0,0,0,.058.141l1.668.9a.1.1,0,0,1,.06.142l-4.945,11.789a.1.1,0,0,1-.144.059l-1.808-.569c-.068-.028-.115-.006-.145.068l-.222.53a.1.1,0,0,0,.058.141l3.005,1.261-1.086,2.589,1.69.709,1.086-2.589.549.23c.247.1.491.2.726.282l-1.094,2.608,1.69.709,1.194-2.847a4.31,4.31,0,0,0,3.1-.514,3.967,3.967,0,0,0,1.528-1.818,3.632,3.632,0,0,0,0-2.861m-1.72-8.358a4.274,4.274,0,0,1,.635.356,3.186,3.186,0,0,1,1.024,1.046,2.094,2.094,0,0,1,.25.651,2.556,2.556,0,0,1-.2,1.5,2.79,2.79,0,0,1-.953,1.249,2.486,2.486,0,0,1-1.072.407,3.433,3.433,0,0,1-1.071-.034,6.969,6.969,0,0,1-1.331-.379c-.11-.041-.22-.085-.334-.133L577.9,53.1a.1.1,0,0,1-.058-.141l2.049-4.885a.1.1,0,0,1,.141-.058l.782.328.179.083ZM579.21,60.975a4.245,4.245,0,0,1-1.918-.164,8.309,8.309,0,0,1-.96-.341l-.33-.138-.963-.4a.1.1,0,0,1-.057-.143l2.451-5.844a.1.1,0,0,1,.141-.058l.9.378a.581.581,0,0,1,.06.028,7.88,7.88,0,0,1,1.224.635,4.086,4.086,0,0,1,1.4,1.391,3.2,3.2,0,0,1,.014,2.927,2.619,2.619,0,0,1-1.968,1.732" transform="translate(-354.557 -27.55)" fill="#fff"/>
      <path id="Path_49725" data-name="Path 49725" d="M260.742,10.012a10.843,10.843,0,0,1-.759,6.692,10.935,10.935,0,0,1-3.007,3.909,10.816,10.816,0,0,1-4.019,2.076c-.232.064-.467.119-.705.169A10.884,10.884,0,0,1,240.661,6.718l.008-.014a10.937,10.937,0,0,1,1.7-2.212,10.89,10.89,0,0,1,18.368,5.522" transform="translate(-148.559 -0.808)" fill="#ffaf30"/>
      <path id="Path_49726" data-name="Path 49726" d="M249.257,22.765a11.274,11.274,0,0,1-2.2-.216,11.385,11.385,0,0,1-5.84-19.213,11.26,11.26,0,0,1,3.8-2.512,11.465,11.465,0,0,1,1.972-.591A11.375,11.375,0,0,1,259.624,16.1a11.429,11.429,0,0,1-3.142,4.086,11.253,11.253,0,0,1-4.2,2.17c-.24.066-.488.125-.737.176a11.41,11.41,0,0,1-2.287.233M249.29.983a10.548,10.548,0,0,0-3.9.753,10.275,10.275,0,0,0-3.47,2.294,10.454,10.454,0,0,0-1.628,2.113,10.393,10.393,0,0,0,11.06,15.426c.227-.046.454-.1.674-.161a10.276,10.276,0,0,0,3.837-1.982,10.434,10.434,0,0,0,3.552-5.746A10.406,10.406,0,0,0,249.29.983" transform="translate(-147.754 0)" fill="#252362"/>
      <path id="Path_49727" data-name="Path 49727" d="M262.292,14.335a8.539,8.539,0,1,1-10.074-6.658,8.539,8.539,0,0,1,10.074,6.658" transform="translate(-152.411 -4.66)" fill="#ffaf30"/>
      <path id="Path_49728" data-name="Path 49728" d="M253.116,24.269a9.033,9.033,0,1,1,1.808-.183,9.045,9.045,0,0,1-1.808.183m0-17.079A8.048,8.048,0,1,0,261,13.629a8.039,8.039,0,0,0-7.882-6.439" transform="translate(-151.604 -3.855)" fill="#252362"/>
      <path id="Path_49729" data-name="Path 49729" d="M263.215,18.371a3.213,3.213,0,0,0-1.638-.539l-.025-.122a2.242,2.242,0,0,0,.605-3.476,1.99,1.99,0,0,0-.9-.515,2.412,2.412,0,0,0-.541-.091l-.39-1.907-1.188.243.352,1.725c-.261.034-.542.083-.842.144l-.055.011-.347-1.7-1.188.242.347,1.7-2.113.432a.063.063,0,0,0-.055.086l.076.372a.063.063,0,0,0,.084.056l1.248-.13a.064.064,0,0,1,.086.055l1.692,8.289a.064.064,0,0,1-.057.086l-1.2.363c-.048.01-.065.04-.054.092l.076.372a.063.063,0,0,0,.084.056l2.113-.431.372,1.821,1.188-.242-.372-1.821.386-.079c.174-.036.342-.075.5-.117l.374,1.834,1.188-.243-.408-2a2.852,2.852,0,0,0,1.505-1.438,2.623,2.623,0,0,0,.157-1.563,2.4,2.4,0,0,0-1.067-1.564m-4.056-3.928a2.811,2.811,0,0,1,.48-.042,2.108,2.108,0,0,1,.95.19,1.4,1.4,0,0,1,.38.263,1.7,1.7,0,0,1,.45.9,1.847,1.847,0,0,1-.056,1.038,1.649,1.649,0,0,1-.435.623,2.269,2.269,0,0,1-.6.38,4.6,4.6,0,0,1-.869.289c-.075.019-.152.036-.232.052l-.444.091a.063.063,0,0,1-.084-.056L258,14.73a.063.063,0,0,1,.055-.084l.549-.112.129-.022Zm3.277,7.594a2.809,2.809,0,0,1-1.11.626,5.481,5.481,0,0,1-.652.172l-.232.047-.677.138a.064.064,0,0,1-.084-.057l-.839-4.109a.063.063,0,0,1,.055-.084l.634-.129a.313.313,0,0,1,.043-.008,5.267,5.267,0,0,1,.906-.109,2.7,2.7,0,0,1,1.286.237,2.114,2.114,0,0,1,1.1,1.595,1.732,1.732,0,0,1-.43,1.681" transform="translate(-158.531 -7.281)" fill="#fff"/>
      <path id="Path_49731" data-name="Path 49731" d="M389.479,544.948a14.553,14.553,0,0,1-17.841,8.805q-.461-.14-.919-.312a14.557,14.557,0,0,1-1.623-26.526l.02-.01a14.636,14.636,0,0,1,3.5-1.29,14.473,14.473,0,0,1,5.826-.131,14.575,14.575,0,0,1,11.032,19.464" transform="translate(-224.399 -326.238)" fill="#ffaf30"/>
      <path id="Path_49732" data-name="Path 49732" d="M375.045,554.065a14.922,14.922,0,0,1-4.345-.649c-.318-.1-.638-.2-.949-.322a15.049,15.049,0,0,1-1.677-27.421,15.174,15.174,0,0,1,3.643-1.344,14.881,14.881,0,0,1,6.024-.135,15.063,15.063,0,0,1,11.4,20.121,14.992,14.992,0,0,1-5.816,7.272,15.1,15.1,0,0,1-8.284,2.48m.012-29.133a13.99,13.99,0,0,0-3.121.354,14.157,14.157,0,0,0-3.387,1.247l-.028.014a14.066,14.066,0,0,0,1.577,25.627c.292.11.59.211.888.3a13.925,13.925,0,0,0,5.824.5,14.126,14.126,0,0,0,8.21-4.021,14.078,14.078,0,0,0-5-23.109,14.133,14.133,0,0,0-2.453-.68,13.937,13.937,0,0,0-2.507-.228" transform="translate(-223.605 -325.43)" fill="#252362"/>
      <path id="Path_49733" data-name="Path 49733" d="M391.691,548.992a11.419,11.419,0,1,1-6.66-14.712,11.419,11.419,0,0,1,6.66,14.712" transform="translate(-229.552 -331.39)" fill="#ffaf30"/>
      <path id="Path_49734" data-name="Path 49734" d="M380.2,556.073a11.935,11.935,0,1,1,4.907-1.067,11.906,11.906,0,0,1-4.907,1.067m-.01-22.851a10.956,10.956,0,1,0,3.857.707,10.9,10.9,0,0,0-3.857-.707" transform="translate(-228.74 -330.579)" fill="#252362"/>
      <path id="Path_49735" data-name="Path 49735" d="M391.8,550.492a4.3,4.3,0,0,0-1.47-1.778l.059-.155a3,3,0,0,0,3.161-3.5,2.661,2.661,0,0,0-.649-1.221,3.224,3.224,0,0,0-.548-.488l.917-2.436-1.517-.572-.831,2.2q-.479-.22-1.055-.437l-.07-.026.818-2.17-1.517-.572-.818,2.17-2.7-1.017a.085.085,0,0,0-.124.058l-.18.476a.084.084,0,0,0,.056.122l1.5.743a.085.085,0,0,1,.058.123L382.9,552.6a.086.086,0,0,1-.125.057l-1.617-.445c-.061-.023-.1,0-.127.065l-.179.476a.084.084,0,0,0,.055.123l2.7,1.017-.876,2.325,1.517.572.876-2.326.493.186c.222.083.44.159.651.226l-.882,2.342,1.517.572.963-2.557a3.815,3.815,0,0,0,2.728-.555,3.509,3.509,0,0,0,1.292-1.658,3.213,3.213,0,0,0-.093-2.53M390,543.156a3.768,3.768,0,0,1,.574.294,2.82,2.82,0,0,1,.94.892,1.86,1.86,0,0,1,.243.568,2.263,2.263,0,0,1-.128,1.334,2.466,2.466,0,0,1-.8,1.136,2.2,2.2,0,0,1-.935.395,3.007,3.007,0,0,1-.948,0,6.124,6.124,0,0,1-1.189-.292c-.1-.033-.2-.068-.3-.107l-.567-.214a.085.085,0,0,1-.056-.123l1.653-4.387a.085.085,0,0,1,.123-.056l.7.264.161.067Zm-1.7,10.93a3.765,3.765,0,0,1-1.7-.082,7.354,7.354,0,0,1-.86-.27l-.3-.112-.865-.325a.086.086,0,0,1-.055-.125l1.977-5.249a.084.084,0,0,1,.123-.055l.81.3a.585.585,0,0,1,.054.023,6.988,6.988,0,0,1,1.1.521,3.619,3.619,0,0,1,1.287,1.184,2.829,2.829,0,0,1,.108,2.588,2.319,2.319,0,0,1-1.685,1.6" transform="translate(-236.547 -334.989)" fill="#fff"/>
      <path id="Path_49737" data-name="Path 49737" d="M108.549,170.086a.381.381,0,0,1-.375-.322,62.69,62.69,0,0,1,5.687-37.817,60.738,60.738,0,0,1,13.6-17.8.38.38,0,1,1,.51.563,59.99,59.99,0,0,0-13.427,17.577,61.933,61.933,0,0,0-5.615,37.36.381.381,0,0,1-.376.438" transform="translate(-66.702 -70.837)" fill="#252362"/>
      <path id="Path_49738" data-name="Path 49738" d="M58.079,147.819a.38.38,0,0,1-.377-.333A58.187,58.187,0,0,1,61.14,118.9a46.374,46.374,0,0,1,8.23-13.475.38.38,0,1,1,.569.5,45.616,45.616,0,0,0-8.094,13.255,57.425,57.425,0,0,0-3.389,28.212.38.38,0,0,1-.33.424l-.047,0" transform="translate(-35.546 -65.399)" fill="#252362"/>
      <path id="Path_49739" data-name="Path 49739" d="M761.31,204.507a.38.38,0,0,1-.258-.659A45.892,45.892,0,0,0,774.825,160.2a.38.38,0,1,1,.743-.157,46.651,46.651,0,0,1-14,44.366.379.379,0,0,1-.258.1" transform="translate(-472.622 -99.215)" fill="#252362"/>
      <path id="Path_49740" data-name="Path 49740" d="M135.247,427.017a90.888,90.888,0,0,0-2.4-24.7,184.716,184.716,0,0,0-7.595-24.175c-3.029-8.021-6.332-15.935-9.39-23.944a195.047,195.047,0,0,1-7.768-24.1,90.936,90.936,0,0,1-2.706-24.741q.061-1.536.187-3.067c.038-.473-.7-.47-.737,0a86.7,86.7,0,0,0,1.795,24.658,169.287,169.287,0,0,0,7.278,24.154c2.98,8.037,6.276,15.95,9.37,23.943a215.183,215.183,0,0,1,8.044,24.12,95.756,95.756,0,0,1,3.284,24.779q-.016,1.538-.1,3.074c-.024.474.713.473.737,0" transform="translate(-64.966 -187.535)" fill="#252362"/>
      <path id="Path_49741" data-name="Path 49741" d="M98.9,294.754a27.887,27.887,0,0,0-2.789-15.235c-.945-1.893-2.335-4.805-4.68-5.217-2.391-.42-3.343,2.5-3.889,4.267-3.082,9.961,2.066,20.418-.681,30.436-.683,2.488-1.678,4.877-2.365,7.364a12.793,12.793,0,0,0-.412,6.7,8.362,8.362,0,0,0,3.751,4.741,50.8,50.8,0,0,1,5.037,3.117,5.607,5.607,0,0,1,2.174,4.69,11.065,11.065,0,0,1-1.766,4.724c-1.719,2.947-4.267,5.894-4.565,9.427a6.311,6.311,0,0,0,1.32,4.42,9.754,9.754,0,0,0,3.759,2.69c3.023,1.364,6.623,1.955,9.219,4.131a6.465,6.465,0,0,1,2.3,5.378c-.11,2.678-1.2,5.206-1.633,7.832a13.2,13.2,0,0,0,4.167,11.641,12.97,12.97,0,0,0,11.625,3.576,13.483,13.483,0,0,0,8.693-7.086,13.051,13.051,0,0,0,.616-11.171c-1.93-4.4-5.944-7.334-8.813-11.062-5.85-7.6-4.483-17.753-5.013-26.725-.261-4.432-.96-8.961-3.177-12.876-2.194-3.873-5.856-6.549-8.41-10.143a10.656,10.656,0,0,1-2.155-5.6c-.024-.472-.761-.475-.737,0,.218,4.245,3.252,7.408,6.018,10.326a34.1,34.1,0,0,1,4.134,4.941,20.723,20.723,0,0,1,2.567,6.08c2.212,8.678.243,17.837,2.43,26.525a22.031,22.031,0,0,0,2.367,5.88,31.519,31.519,0,0,0,4.342,5.408c2.964,3.142,6.3,6.495,6.666,11.04a13.631,13.631,0,0,1-4.015,10.513,11.254,11.254,0,0,1-11.05,3.077,13.763,13.763,0,0,1-9.028-8.462,12.005,12.005,0,0,1-.31-6.738c.533-2.425,1.458-4.828,1.461-7.34a7.074,7.074,0,0,0-2.049-5.1,12.353,12.353,0,0,0-4.039-2.467c-2.889-1.2-6.388-1.835-8.733-4.043a5.629,5.629,0,0,1-1.8-4.223,10.244,10.244,0,0,1,1.53-4.647c1.625-2.933,4.15-5.733,4.728-9.13a6.112,6.112,0,0,0-.916-4.5,11.928,11.928,0,0,0-4.255-3.378c-1.73-.974-3.612-1.937-4.771-3.613a8.495,8.495,0,0,1-.964-6.569,56.414,56.414,0,0,1,2.135-7.016,28.064,28.064,0,0,0,1.467-7.225c.3-4.992-.616-9.948-.96-14.913a33.875,33.875,0,0,1,.171-7.552,19.943,19.943,0,0,1,.861-3.491c.352-1.009.789-2.445,1.816-2.973,1.206-.62,2.451.489,3.171,1.359a17.36,17.36,0,0,1,1.987,3.269,27.045,27.045,0,0,1,2.733,14.95c-.049.471.689.468.737,0" transform="translate(-52.041 -170.347)" fill="#252362"/>
      <path id="Path_49742" data-name="Path 49742" d="M46.817,388.324c-1.149-6.564-5.034-12.2-9.32-17.139-2.321-2.674-4.788-5.224-7.28-7.738q-3.9-3.931-7.977-7.674-4.631-4.248-9.485-8.244c-.363-.3-.888.219-.521.521q8.545,7.037,16.4,14.857c2.521,2.511,5.008,5.065,7.382,7.715a57.558,57.558,0,0,1,6.038,7.822,28.317,28.317,0,0,1,4.049,10.076c.082.466.792.269.711-.2" transform="translate(-7.521 -215.799)" fill="#252362"/>
      <path id="Path_49743" data-name="Path 49743" d="M13.6,337.423c-1.568-2.226-3.536-4.509-6.143-5.514a5.275,5.275,0,0,0-6.2,1.651,7.75,7.75,0,0,0-1.07,6.074,11.191,11.191,0,0,0,4.059,6.127c2.215,1.889,4.791,3.3,7,5.194,2.152,1.844,4.239,4.391,4.438,7.338.206,3.059-2.211,5.326-2.5,8.275-.261,2.661,1.322,5.064,3.241,6.753,2.162,1.9,4.811,2.93,7.4,4.1s5.176,2.543,6.767,4.971c3.058,4.667,1.663,10.946-.557,15.653-1.168,2.475-3.022,5.012-2.12,7.884.685,2.18,2.646,3.662,4.631,4.605a30.625,30.625,0,0,0,7.041,1.941c2.356.5,4.924,1.148,6.772,2.784a6.029,6.029,0,0,1,1.908,3.156,10.1,10.1,0,0,1-.375,4.9c-.734,2.687-1.865,5.312-1.57,8.16a5.318,5.318,0,0,0,4.428,5.051c2.806.4,5.349-1.129,7.158-3.148a31.1,31.1,0,0,0,2.59-3.49c.265-.395-.373-.764-.636-.372-1.566,2.335-3.324,4.992-6.11,5.96a5.728,5.728,0,0,1-3.952.048,4.3,4.3,0,0,1-2.443-2.665c-1.835-5.454,3.824-10.846,1.042-16.193-2.234-4.295-7.868-4.586-12-5.572a13.354,13.354,0,0,1-6.328-3.1,5.428,5.428,0,0,1-1.567-2.732,6.564,6.564,0,0,1,.824-4.2c.609-1.241,1.288-2.437,1.827-3.713a26.009,26.009,0,0,0,1.3-3.858,17.378,17.378,0,0,0,.345-7.553,10.919,10.919,0,0,0-3.748-6.325c-2.137-1.759-4.747-2.752-7.243-3.875a15.6,15.6,0,0,1-6.536-4.73,6.758,6.758,0,0,1-1.372-3.538,8.421,8.421,0,0,1,1.153-4.136,11.76,11.76,0,0,0,1.345-3.856,7.813,7.813,0,0,0-.628-3.838,15.525,15.525,0,0,0-5.226-6.165c-3.926-2.945-9.561-5.717-9.8-11.3-.086-1.991.545-4.241,2.36-5.314,2.49-1.474,5.256.008,7.136,1.762A20.324,20.324,0,0,1,12.96,337.8c.271.385.91.017.637-.372" transform="translate(0 -205.913)" fill="#252362"/>
      <path id="Path_49744" data-name="Path 49744" d="M604.327,471.36a140.194,140.194,0,0,1,11.128-18.528c4.139-5.943,8.555-11.685,12.891-17.484,4.271-5.711,8.474-11.483,12.228-17.551a109.131,109.131,0,0,0,9.487-18.865,67.28,67.28,0,0,0,4.415-20.2q.067-1.313.073-2.628a.369.369,0,0,0-.737,0,64.052,64.052,0,0,1-3.656,20.4,101.656,101.656,0,0,1-9.051,19.007,212.274,212.274,0,0,1-11.975,17.565c-4.283,5.77-8.681,11.458-12.849,17.313a154,154,0,0,0-11.373,18.186q-.625,1.2-1.218,2.419c-.207.425.429.8.637.372" transform="translate(-374.933 -233.38)" fill="#252362"/>
      <path id="Path_49745" data-name="Path 49745" d="M643.167,413.085c-1.934-2.978.02-6.562,2.27-8.735,2.53-2.443,6.038-3.525,8.992-5.34a13.636,13.636,0,0,0,3.769-3.251,11.521,11.521,0,0,0,2.083-4.8c.717-3.649.175-7.4.05-11.073-.062-1.825-.089-3.884,1.028-5.434a8.084,8.084,0,0,1,2.241-1.86,11.874,11.874,0,0,0,1.92-1.517c2.332-2.352,3.247-5.707,3.493-8.926.3-3.979-.521-7.914-.724-11.877-.2-3.841.223-7.866,2.906-10.83,2.054-2.27,5.4-3.95,8.412-2.562,3.194,1.471,4.361,5.26,5.307,8.357,1.243,4.068,2.446,8.491,1.414,12.741-.85,3.5-3.105,6.455-4.383,9.791a9.132,9.132,0,0,0-.694,4.536,6.659,6.659,0,0,0,2.354,4.046,39.561,39.561,0,0,1,4,3.258,7.287,7.287,0,0,1,1.749,4.469,12.39,12.39,0,0,1-3.73,9.084c-2.736,2.777-6.248,4.578-9.583,6.517a27.608,27.608,0,0,0-8.352,6.737,12.937,12.937,0,0,0-2.309,4.539,13.611,13.611,0,0,0-.116,5.347c.255,1.887.678,3.912.13,5.786-.569,1.947-2.248,3.035-3.882,4.042q-5.558,3.422-11.438,6.278-2.832,1.375-5.727,2.612c-.434.186-.06.821.372.636a131.392,131.392,0,0,0,11.971-5.854c1.927-1.068,3.834-2.178,5.7-3.35a7.841,7.841,0,0,0,3.646-3.949,12.207,12.207,0,0,0,.054-5.57,14.5,14.5,0,0,1,0-5.783c.945-3.585,3.738-6.424,6.67-8.528,5.921-4.249,14.12-6.708,16.69-14.266,1.037-3.048.94-6.623-1.234-9.163-1.159-1.354-2.756-2.2-4.088-3.363a5.881,5.881,0,0,1-2.208-4.395,11.445,11.445,0,0,1,1.339-4.871c.784-1.674,1.708-3.277,2.5-4.949a16.462,16.462,0,0,0,1.622-5.479,21.293,21.293,0,0,0-.492-6.387,57.781,57.781,0,0,0-1.695-6.1A18.317,18.317,0,0,0,683.071,339a7.686,7.686,0,0,0-3.671-3,6.783,6.783,0,0,0-4.463.033,11.026,11.026,0,0,0-6.564,6.7c-1.456,4.123-.77,8.66-.328,12.9.378,3.619.575,7.349-.613,10.85a10.475,10.475,0,0,1-2.63,4.266c-1.314,1.248-3.138,1.91-4.166,3.46a9.146,9.146,0,0,0-1.05,5.362c.054,1.934.225,3.862.29,5.8.126,3.732-.171,7.734-2.821,10.621-2.446,2.665-6.007,3.888-9.086,5.629-2.853,1.613-5.563,4.228-6.211,7.573a5.732,5.732,0,0,0,.775,4.271c.258.4.9.027.637-.372" transform="translate(-398.528 -208.47)" fill="#252362"/>
      <path id="Path_49746" data-name="Path 49746" d="M207.561,514.574l-20.169,15.512,10.957,6.027,21.784-15.657Z" transform="translate(-116.391 -319.607)" fill="#fff"/>
      <path id="Path_49747" data-name="Path 49747" d="M197.726,535.87a.38.38,0,0,1-.183-.047L186.586,529.8a.38.38,0,0,1-.049-.634l20.169-15.512a.379.379,0,0,1,.393-.043l12.572,5.882a.38.38,0,0,1,.061.653L197.948,535.8a.382.382,0,0,1-.222.071m-10.265-6.46,10.238,5.631L218.762,519.9l-11.777-5.509Z" transform="translate(-115.768 -318.985)" fill="#252362"/>
      <path id="Path_49748" data-name="Path 49748" d="M158.248,547.97l-23.568,8.406-.146,4.355,35.635,1.2.361-10.734s-9.431,7.228-12.281-3.225" transform="translate(-83.561 -340.35)" fill="#014cec"/>
      <path id="Path_49749" data-name="Path 49749" d="M169.917,561.546l-36.328-1.221.166-4.938.222-.08,23.92-8.532.1.361c.763,2.8,2.074,4.53,3.9,5.145,3.49,1.178,7.8-2.071,7.84-2.1l.582-.445Zm-35.611-1.891,34.941,1.174.326-9.693c-1.356.892-4.824,2.843-7.9,1.8-1.973-.665-3.4-2.435-4.243-5.261l-23,8.2Z" transform="translate(-82.974 -339.608)" fill="#252362"/>
      <rect id="Rectangle_11003" data-name="Rectangle 11003" width="2.707" height="37.569" transform="translate(49.878 221.534) rotate(-88.075)" fill="#252362"/>
      <path id="Path_49750" data-name="Path 49750" d="M169.056,581.4l-37.919-1.274.1-3.077,37.92,1.274Zm-37.536-1.633,37.177,1.249.078-2.335L131.6,577.43Z" transform="translate(-81.451 -358.409)" fill="#252362"/>
      <path id="Path_49751" data-name="Path 49751" d="M180.366,538.46a.266.266,0,0,1-.077-.011c-1.489-.434-8.915-2.707-8.861-4.768.019-.717.828-1.254,2.473-1.642,2.345-.552,4.128-.282,5.3.8,1.968,1.824,1.458,5.241,1.435,5.385a.273.273,0,0,1-.27.231m-4.295-6.153a8.984,8.984,0,0,0-2.045.264c-1.771.417-2.046.884-2.052,1.124-.032,1.231,4.858,3.145,8.156,4.137.072-.856.131-3.263-1.3-4.589a3.907,3.907,0,0,0-2.757-.936" transform="translate(-106.475 -330.282)" fill="#252362"/>
      <path id="Path_49752" data-name="Path 49752" d="M195.084,556.809a2.707,2.707,0,0,1-1.848-.646c-2.4-2.1-.783-8.581-.713-8.855a.273.273,0,0,1,.383-.179c.291.141,7.115,3.472,7.012,6.519-.037,1.084-.912,1.978-2.6,2.656a6.1,6.1,0,0,1-2.234.5m-2.108-9.036c-.294,1.338-1.244,6.349.619,7.979.759.664,1.943.68,3.518.046,1.47-.591,2.23-1.32,2.259-2.168.072-2.123-4.334-4.81-6.4-5.857" transform="translate(-119.208 -339.811)" fill="#252362"/>
      <path id="Path_49753" data-name="Path 49753" d="M167.677,557.524a10.052,10.052,0,0,1-2.971-.457.273.273,0,0,1,.176-.517c.037.013,3.736,1.238,6.283-.563,1.741-1.232,2.917-4.013,3.5-5.708a10.876,10.876,0,0,1-6.142,3.643.273.273,0,0,1-.089-.539c4.133-.682,6.672-4.547,6.7-4.586a.273.273,0,0,1,.494.214c-.056.223-1.4,5.478-4.148,7.42a6.522,6.522,0,0,1-3.8,1.092" transform="translate(-102.186 -340.786)" fill="#252362"/>
      <path id="Path_49754" data-name="Path 49754" d="M178.831,333.377l-22.71,11.474,9.64,7.966L190.084,341.5Z" transform="translate(-96.968 -207.064)" fill="#fff"/>
      <path id="Path_49755" data-name="Path 49755" d="M165.138,352.574a.38.38,0,0,1-.242-.087l-9.64-7.967a.38.38,0,0,1,.07-.632l22.71-11.474a.38.38,0,0,1,.394.031l11.253,8.126a.38.38,0,0,1-.062.652L165.3,352.539a.386.386,0,0,1-.16.035m-8.95-8.269,9.007,7.444,23.519-10.941L178.172,333.2Z" transform="translate(-96.345 -206.441)" fill="#252362"/>
      <path id="Path_49756" data-name="Path 49756" d="M124.993,358.066l-24.723,3.859-.957,4.252L134.1,374l2.358-10.477s-10.614,5.34-11.463-5.461" transform="translate(-61.685 -222.399)" fill="#014cec"/>
      <path id="Path_49757" data-name="Path 49757" d="M133.681,373.764,98.22,365.783l1.085-4.82,25.325-3.953.03.374c.227,2.892,1.192,4.837,2.867,5.782,3.208,1.809,8.046-.58,8.095-.6l.655-.329Zm-34.632-8.5,34.108,7.676,2.129-9.462c-1.5.623-5.27,1.892-8.1.3-1.814-1.022-2.885-3.027-3.186-5.961l-24.124,3.765Z" transform="translate(-61.005 -221.743)" fill="#252362"/>
      <rect id="Rectangle_11004" data-name="Rectangle 11004" width="2.707" height="37.569" transform="translate(36.337 144.706) rotate(-77.317)" fill="#252362"/>
      <path id="Path_49758" data-name="Path 49758" d="M132.335,385.7l-37.015-8.33.676-3,37.015,8.33Zm-36.571-8.611,36.29,8.167.513-2.279-36.29-8.167Z" transform="translate(-59.204 -232.522)" fill="#252362"/>
      <path id="Path_49759" data-name="Path 49759" d="M151.833,346.787a.275.275,0,0,1-.124-.03c-1.382-.705-8.253-4.324-7.816-6.338.152-.7,1.047-1.078,2.736-1.151,2.407-.105,4.108.493,5.057,1.779,1.592,2.159.454,5.421.4,5.559a.274.274,0,0,1-.156.162.282.282,0,0,1-.1.019m-4.674-6.985c-.165,0-.333,0-.506.011-1.818.079-2.175.486-2.226.721-.261,1.2,4.186,4,7.241,5.587.231-.828.737-3.182-.423-4.752-.769-1.041-2.142-1.567-4.086-1.567" transform="translate(-89.361 -210.715)" fill="#252362"/>
      <path id="Path_49760" data-name="Path 49760" d="M162.485,366.7a3.046,3.046,0,0,1-2.55-1.054c-1.964-2.51.833-8.576.953-8.833a.272.272,0,0,1,.18-.149.269.269,0,0,1,.23.046c.26.192,6.342,4.739,5.672,7.713-.238,1.058-1.265,1.773-3.051,2.124a7.484,7.484,0,0,1-1.433.153m-1.239-9.346c-.539,1.259-2.407,6.005-.881,7.955.622.793,1.782,1.03,3.448.7,1.554-.306,2.437-.881,2.624-1.708.468-2.073-3.36-5.534-5.191-6.948" transform="translate(-98.904 -221.522)" fill="#252362"/>
      <path id="Path_49761" data-name="Path 49761" d="M135.362,365.41a9.7,9.7,0,0,1-4.316-1.149.273.273,0,0,1,.27-.475c.034.019,3.439,1.913,6.278.619,1.942-.886,3.616-3.4,4.507-4.954a10.893,10.893,0,0,1-6.715,2.433.273.273,0,0,1,.006-.546h.007c.063,0,.125,0,.187,0,4.1,0,7.217-3.224,7.249-3.257a.273.273,0,0,1,.445.3c-.1.208-2.4,5.12-5.459,6.516a5.882,5.882,0,0,1-2.458.508" transform="translate(-81.308 -222.357)" fill="#252362"/>
      <path id="Path_49762" data-name="Path 49762" d="M400.166,215.478a.81.81,0,0,1,.051-.616c.238-.433.915-.479,1.162-.5l.083-.007a32.862,32.862,0,0,0,4.33-.864l-4.039.462-2.342.268c-.539.062-1.5.049-1.839-.5a.99.99,0,0,1-.119-.617c.17-1.118,4.563-1.577,6.753-1.749-2.329-.1-7.946.908-7.805-1.059.038-.53,1.036-.887,2.475-1.125a61.39,61.39,0,0,1,8.845-.459l2.38,1.4c.22,3.559-1.4,4.311-2.672,4.9a12.638,12.638,0,0,1-3.707,1.047c-1.854.23-3.348-.018-3.557-.582" transform="translate(-246.208 -129.633)" fill="#fff"/>
      <path id="Path_49763" data-name="Path 49763" d="M401.783,215.9c-1.222,0-2.358-.236-2.611-.917h0a1.194,1.194,0,0,1,.075-.936,1.066,1.066,0,0,1,.083-.128l-.506.058c-.5.058-1.719.107-2.21-.68a1.371,1.371,0,0,1-.173-.879c.036-.239.107-.7,1.431-1.161a3.392,3.392,0,0,1-2.148-.681,1.176,1.176,0,0,1-.339-.935c.051-.71.913-1.166,2.8-1.478a60.663,60.663,0,0,1,8.91-.464.39.39,0,0,1,.193.053l2.38,1.4a.385.385,0,0,1,.189.309c.236,3.821-1.573,4.661-2.894,5.273a13.015,13.015,0,0,1-3.822,1.079,11.161,11.161,0,0,1-1.355.087m-1.888-1.185c.073.2,1.118.585,3.148.333a12.228,12.228,0,0,0,3.593-1.014c1.217-.565,2.593-1.2,2.459-4.322l-2.112-1.242a61.274,61.274,0,0,0-8.676.455c-2.065.341-2.152.767-2.152.771a.4.4,0,0,0,.118.338c.628.636,3.143.489,4.98.382.884-.052,1.719-.1,2.339-.074a.386.386,0,0,1,.014.77c-6.188.485-6.4,1.412-6.4,1.421a.609.609,0,0,0,.067.359c.195.312.876.386,1.465.317l6.381-.73a.386.386,0,0,1,.136.758,33.492,33.492,0,0,1-4.386.873l-.083.007c-.2.016-.728.059-.861.3a.432.432,0,0,0-.028.3" transform="translate(-245.576 -129.001)" fill="#252362"/>
      <path id="Path_49764" data-name="Path 49764" d="M683.279,169.581a22.426,22.426,0,0,1-1.228,3.685,13.838,13.838,0,0,1-7.125.246c-4.961-1.226-5.378-4.671-10.81-6.634-4.575-1.653-6.78-.114-8.844-2.457a6.973,6.973,0,0,1-1.474-6.142,5.7,5.7,0,0,1,1.229-2.211c1.511-1.772,2.042-7.013-1.229-21.128a8.337,8.337,0,0,1,3.44-.246c4.287.627,7.415,4.823,11.056,9.827,1.806,2.481,2.361,4.009,4.422,5.159,1.474.82,2.128.612,4.668,1.72,2.437,1.064,3.857,1.683,4.913,2.948.629.754.759,1.292.909,2.853a24.672,24.672,0,0,1-5.564-2.6,61.072,61.072,0,0,0,5.668,3.72c.086.953.2,2.187.393,3.823a13.285,13.285,0,0,1-3.371-1.41l3.55,2.84a22.515,22.515,0,0,1-.6,6" transform="translate(-405.951 -83.61)" fill="#252362"/>
      <path id="Path_49765" data-name="Path 49765" d="M677.565,173.728a12.714,12.714,0,0,1-3.055-.366,11.624,11.624,0,0,1-5.432-3.188,15.068,15.068,0,0,0-5.4-3.452,16.418,16.418,0,0,0-4.765-.916c-1.647-.12-2.948-.216-4.171-1.6a7.186,7.186,0,0,1-1.522-6.351,5.858,5.858,0,0,1,1.245-2.262l.029-.034c1.865-2.186,1.435-9.229-1.276-20.932l-.048-.209.206-.058a8.495,8.495,0,0,1,3.532-.252c4.464.652,7.738,5.153,11.2,9.917.473.65.865,1.241,1.211,1.763a8.7,8.7,0,0,0,3.139,3.332,7.844,7.844,0,0,0,1.906.738,19.313,19.313,0,0,1,2.743.972c2.439,1.065,3.907,1.705,5,3.01.662.794.807,1.378.96,2.974l.033.346-.329-.113c-.612-.21-1.463-.519-2.368-.905.9.6,1.858,1.2,2.649,1.619l.107.057.011.121c.1,1.073.207,2.252.393,3.817l.039.328-.319-.085a14.013,14.013,0,0,1-1.574-.522l2.032,1.625,0,.1a22.624,22.624,0,0,1-1.849,9.786l-.042.1-.1.029a15.192,15.192,0,0,1-4.185.614M653.7,134.734c2.74,11.888,3.11,18.795,1.132,21.113l-.031.036a5.428,5.428,0,0,0-1.152,2.09,6.714,6.714,0,0,0,1.426,5.933c1.1,1.251,2.262,1.336,3.868,1.453a16.8,16.8,0,0,1,4.885.941,15.439,15.439,0,0,1,5.547,3.54,11.249,11.249,0,0,0,5.24,3.086,13.442,13.442,0,0,0,6.908-.215,22.177,22.177,0,0,0,1.773-9.392l-3.469-2.776.255-.366a13.054,13.054,0,0,0,2.994,1.3c-.156-1.351-.256-2.41-.344-3.377a62.645,62.645,0,0,1-5.587-3.679l.26-.364a23.66,23.66,0,0,0,5.179,2.453,3.645,3.645,0,0,0-.823-2.382c-1.021-1.223-2.372-1.813-4.823-2.883a18.97,18.97,0,0,0-2.694-.956,8.2,8.2,0,0,1-2-.777,9.155,9.155,0,0,1-3.294-3.476c-.343-.518-.732-1.1-1.2-1.747-3.409-4.686-6.629-9.112-10.907-9.737a8,8,0,0,0-3.14.185" transform="translate(-405.588 -83.243)" fill="#252362"/>
      <path id="Path_49766" data-name="Path 49766" d="M331.914,289.659a49.213,49.213,0,0,1-12.284,18.426c-4.792,4.44-9.908,7.253-27.024,13.512-8.054,2.945-18.517,6.563-30.955,10.318l-47.415,39.308a25.186,25.186,0,0,1-8.844-4.913,26.189,26.189,0,0,1-8.353-14.5l51.1-39.554,47.661-22.6a200.617,200.617,0,0,0-28.99-11.3q-5.025-1.521-9.827-2.7l-63.63,23.34A21.937,21.937,0,0,1,185,281.06l66.44-29.759a12.4,12.4,0,0,1,8.822-.5L305.5,265.168c4.359,3.487,8.9,7.364,13.545,11.662,4.723,4.374,9,8.681,12.869,12.829" transform="translate(-114.899 -155.413)" fill="#fff"/>
      <path id="Path_49767" data-name="Path 49767" d="M213.576,370.964a.4.4,0,0,1-.122-.019,25.444,25.444,0,0,1-8.986-4.992,26.638,26.638,0,0,1-8.485-14.719.4.4,0,0,1,.148-.4l51.1-39.554a.414.414,0,0,1,.074-.046L294.2,289a200.952,200.952,0,0,0-28.17-10.914c-3.191-.966-6.45-1.863-9.687-2.667l-63.514,23.3a.4.4,0,0,1-.388-.062,22.337,22.337,0,0,1-8.506-18.262.4.4,0,0,1,.238-.356l66.44-29.759a12.792,12.792,0,0,1,9.108-.518l45.239,14.369a.412.412,0,0,1,.13.069c4.641,3.712,9.205,7.642,13.567,11.681,4.435,4.106,8.771,8.43,12.891,12.85a.4.4,0,0,1,.081.421,49.316,49.316,0,0,1-12.385,18.575c-4.606,4.267-9.4,7.1-27.16,13.595-10.1,3.693-20.493,7.159-30.9,10.3l-47.353,39.256a.4.4,0,0,1-.257.093m-16.751-19.647a25.794,25.794,0,0,0,8.17,14.026,24.615,24.615,0,0,0,8.494,4.767l47.246-39.167a.4.4,0,0,1,.141-.076c10.418-3.145,20.825-6.614,30.933-10.311,17.631-6.448,22.367-9.24,26.889-13.43a48.438,48.438,0,0,0,12.09-18.04c-4.054-4.341-8.317-8.587-12.675-12.623-4.33-4.009-8.859-7.91-13.464-11.6l-45.168-14.346a11.978,11.978,0,0,0-8.534.485l-66.207,29.655a21.525,21.525,0,0,0,8.03,17.214l63.417-23.261a.4.4,0,0,1,.236-.013c3.29.815,6.6,1.726,9.847,2.708a201.794,201.794,0,0,1,29.048,11.324.4.4,0,0,1,0,.727l-47.622,22.583Z" transform="translate(-114.24 -154.751)" fill="#252362"/>
      <path id="Path_49768" data-name="Path 49768" d="M463.325,208.491c-11,3.245-23.713,5.608-23.713,5.608l-26.643-5.287-.009.1-.031-.008-4.682-2.752-2.381-1.4-3.108-1.826a15.224,15.224,0,0,0-5.492-.538c-1.263.113-3.452.307-3.8,1.429a1.246,1.246,0,0,0,.183,1.082c.527.7,1.612.309,3.375.312.317,0,.654.012,1.015.046a9.12,9.12,0,0,1,3.705,1.125,8.748,8.748,0,0,1,3.082,2.981,12.867,12.867,0,0,0-4.477.254,4.773,4.773,0,0,0-.447.376,1.426,1.426,0,0,0-.13.142,1.169,1.169,0,0,0-.161.259.564.564,0,0,0-.053.238c.016.607,1.051,1.033,2.314,1.465.384.13.787.262,1.19.4,3.535,1.208,2.936,1.49,5.219,2.132a19.9,19.9,0,0,0,4.083.695l-.018.193s20.149,11.939,26.237,10.9,30.144-8.075,30.144-8.075l9.644-9.223s-4.044-3.87-15.042-.625" transform="translate(-244.352 -125.667)" fill="#fff"/>
      <path id="Path_49769" data-name="Path 49769" d="M437.076,226.207c-6.956,0-24.85-10.552-25.642-11.022a.422.422,0,0,1-.156-.163,20.352,20.352,0,0,1-3.808-.683,9.334,9.334,0,0,1-2.157-.852,18.894,18.894,0,0,0-3.083-1.286c-.221-.075-.443-.149-.661-.222l-.529-.178c-1.409-.482-2.576-.955-2.6-1.854a1.012,1.012,0,0,1,.087-.415,1.6,1.6,0,0,1,.219-.357,1.958,1.958,0,0,1,.167-.182,5.1,5.1,0,0,1,.5-.418,10.169,10.169,0,0,1,3.884-.371,8.227,8.227,0,0,0-2.456-2.151,8.733,8.733,0,0,0-3.536-1.072c-.323-.03-.641-.043-.974-.044-.519,0-.962.031-1.363.061-1.028.074-1.841.132-2.35-.54a1.671,1.671,0,0,1-.249-1.463c.434-1.39,2.768-1.6,4.163-1.724a15.731,15.731,0,0,1,5.649.552.435.435,0,0,1,.1.042l9.932,5.838a.444.444,0,0,1,.147,0l26.563,5.27c1.095-.206,13.19-2.514,23.591-5.583,11.106-3.277,15.282.56,15.454.725a.422.422,0,0,1,0,.61l-9.644,9.223a.423.423,0,0,1-.173.1c-.241.07-24.15,7.056-30.192,8.086a5.271,5.271,0,0,1-.881.068M412.088,214.59c2.217,1.294,20.2,11.654,25.728,10.717,5.8-.988,28.309-7.542,30-8.035l9.21-8.808c-1.192-.782-5.448-2.863-14.272-.259l-.119-.405.119.405c-10.893,3.214-23.628,5.595-23.755,5.618a.45.45,0,0,1-.16,0l-26.372-5.233a.422.422,0,0,1-.3.037l-.027-.008a.386.386,0,0,1-.117-.047l-10.123-5.95a14.863,14.863,0,0,0-5.289-.51c-1.033.092-3.172.284-3.438,1.135a.828.828,0,0,0,.117.7c.222.294.681.275,1.616.208.409-.03.871-.063,1.4-.063h.059c.346,0,.68.016,1.018.047a9.552,9.552,0,0,1,3.874,1.178,9.183,9.183,0,0,1,3.232,3.125.422.422,0,0,1-.386.644,14.352,14.352,0,0,0-4.22.189,4.475,4.475,0,0,0-.382.324.968.968,0,0,0-.094.1.755.755,0,0,0-.1.164.2.2,0,0,0-.018.06c.01.383,1.529.9,2.029,1.075l.524.176c.22.073.443.148.665.224a19.6,19.6,0,0,1,3.2,1.337,8.435,8.435,0,0,0,1.994.787,19.6,19.6,0,0,0,4,.68.422.422,0,0,1,.392.382" transform="translate(-243.66 -124.976)" fill="#252362"/>
      <path id="Path_49770" data-name="Path 49770" d="M571.921,216.551s-3.736-8.216-27.555,1.524l-3.626,13.346s21.912-3.539,23.871-5.831,7.31-9.039,7.31-9.039" transform="translate(-335.859 -132.491)" fill="#014cec"/>
      <path id="Path_49771" data-name="Path 49771" d="M539.345,231.244l3.833-14.106.176-.072c23.888-9.767,27.893-1.676,28.052-1.327l.1.215-.146.184c-.054.068-5.378,6.78-7.319,9.051-1.993,2.332-21.845,5.6-24.1,5.961Zm4.476-13.537L540.4,230.292c8.756-1.436,21.71-4.038,23.049-5.6,1.739-2.034,6.218-7.665,7.136-8.82-.348-.509-1.544-1.888-4.578-2.508-3.5-.714-10.187-.534-22.187,4.348" transform="translate(-334.993 -131.838)" fill="#252362"/>
      <path id="Path_49772" data-name="Path 49772" d="M515.211,228.8a58.017,58.017,0,0,1-4.67,6.981c-.97,1.25-1.757,2.206-2,2.44-5.87,5.613-15.868,6.91-15.868,6.91l29.344,27.746c1.266-.892,3.175-2.232,5.505-3.843,14.423-9.973,18.375-11.951,22.129-15,4.808-3.909,10.714-10.734,14.6-23.441a53.3,53.3,0,0,0-26.272-13.963c-16.33,5.894-21.331,9.724-22.764,12.171" transform="translate(-306.003 -134.551)" fill="#014cec"/>
      <path id="Path_49773" data-name="Path 49773" d="M520.578,272.72,490.415,244.2l.8-.1c.1-.013,9.944-1.347,15.652-6.806.191-.183.888-1.011,1.964-2.4a58.379,58.379,0,0,0,4.54-6.764l.1-.177c2.024-3.455,9.537-7.491,22.967-12.339l.1-.037.107.023a53.681,53.681,0,0,1,26.461,14.064l.169.164-.069.225c-3.148,10.3-8.1,18.245-14.725,23.628a83.012,83.012,0,0,1-7.2,4.995c-3.3,2.149-7.823,5.093-14.956,10.025-1.838,1.271-3.689,2.563-5.5,3.841Zm-28.473-27.983,28.544,26.99c1.732-1.22,3.5-2.451,5.25-3.663,7.142-4.938,11.669-7.885,14.974-10.037A82.558,82.558,0,0,0,548,253.08c6.453-5.245,11.3-12.993,14.4-23.029A52.914,52.914,0,0,0,536.6,216.374c-13.007,4.7-20.563,8.727-22.461,11.966l-.1.17a59.105,59.105,0,0,1-4.6,6.853c-.973,1.253-1.774,2.227-2.04,2.482-5,4.782-12.8,6.46-15.3,6.891" transform="translate(-304.602 -133.896)" fill="#252362"/>
      <path id="Path_49774" data-name="Path 49774" d="M566.266,290.627s-3.054-5.332-4.63-5.82-1.471.674-.359,2.016,3.152,3.9,4.989,3.8" transform="translate(-348.099 -176.826)" fill="#fff"/>
      <path id="Path_49775" data-name="Path 49775" d="M565.5,290.374c-1.929,0-3.885-2.365-5.064-3.79l-.136-.164c-.841-1.014-1.126-1.893-.779-2.411.186-.278.608-.547,1.569-.25,1.68.521,4.541,5.446,4.862,6.006a.405.405,0,0,1-.33.606c-.041,0-.081,0-.122,0m-5.155-5.936a.323.323,0,0,0-.154.025c-.047.086.033.6.733,1.44l.137.165c.87,1.052,2.371,2.866,3.755,3.365-1.208-1.991-3.047-4.616-3.965-4.9a1.755,1.755,0,0,0-.505-.1" transform="translate(-347.437 -176.165)" fill="#252362"/>
      <path id="Path_49776" data-name="Path 49776" d="M461.737,156.733,483.9,128.727l-32.907-24.669L432.365,129.8l29.372,26.931" transform="translate(-268.547 -64.632)" fill="#252362"/>
      <path id="Path_49777" data-name="Path 49777" d="M461.31,156.559l-.163-.15L431.64,129.354,450.5,103.291l.168.126,33.076,24.8ZM432.189,129.3l29.073,26.657,21.892-27.666-32.569-24.417Z" transform="translate(-268.096 -64.155)" fill="#252362"/>
      <path id="Path_49778" data-name="Path 49778" d="M461.737,198.936l5.689,24.287-33.73-33.89q-.665-8.664-1.331-17.328Z" transform="translate(-268.547 -106.834)" fill="#252362"/>
      <path id="Path_49779" data-name="Path 49779" d="M467.39,223.056l-34.3-34.459-.006-.076-1.371-17.849L461.521,198Zm-33.9-34.642,33.164,33.321-5.509-23.518-28.94-26.535Z" transform="translate(-268.144 -106.006)" fill="#252362"/>
      <path id="Path_49780" data-name="Path 49780" d="M531.067,262.859c1.209-.3,7.263-1.425,8.342-.477s8.724,8.123,8.724,8.123a8.22,8.22,0,0,1,1.7,2.69l19.756,4.082c.585-2.044,3.283-11.408,6.321-19.217.638-1.641,1.962-4.82,4.569-5.894a7.575,7.575,0,0,1,7.767,1.442c3.719,3.524-4.836,23.254-4.836,23.254-3.912,8.971-5.929,13.485-8.93,14.9-5.962,2.812-13.088-1.051-17.771-3.589a38.091,38.091,0,0,1-10.5-8.434l.011-.021a19.492,19.492,0,0,1-2.679-1.47,13.814,13.814,0,0,1-3.167-4.658s-7.327,2.05-7.14-.213c.084-1.022,1.445-1.656,2.911-2.046-2.153.231-4.458.246-4.555-.734-.153-1.531.6-1.577.867-1.547-.569-.107-3.511-.788-1.558-3.152l6.361-.907s-6.825.39-7.147-.6-.25-1.228.959-1.531" transform="translate(-329.154 -156.322)" fill="#fff"/>
      <path id="Path_49781" data-name="Path 49781" d="M569.226,292.488c-4.844,0-9.8-2.684-13.375-4.624a38.377,38.377,0,0,1-10.6-8.512l-.534-.268a12.191,12.191,0,0,1-2.11-1.2,14.04,14.04,0,0,1-3.121-4.479c-1.443.381-5.612,1.359-6.9.3a1.148,1.148,0,0,1-.42-1.022,2.015,2.015,0,0,1,1-1.481,3.808,3.808,0,0,1-2.248-.522,1.028,1.028,0,0,1-.392-.7,2.366,2.366,0,0,1,.221-1.467,2.422,2.422,0,0,1-1.483-1.3,2.289,2.289,0,0,1,.661-2.232.4.4,0,0,1,.254-.142l.959-.137c-1.592-.165-1.959-.5-2.072-.848a1.675,1.675,0,0,1-.068-1.335c.206-.372.638-.542,1.314-.712.071-.017,7.29-1.632,8.706-.389,1.073.942,8.421,7.839,8.733,8.133a8.628,8.628,0,0,1,1.714,2.633l19.177,3.962c1.033-3.591,3.5-11.876,6.229-18.893.525-1.35,1.919-4.938,4.792-6.121a7.977,7.977,0,0,1,8.2,1.522c1.663,1.576,1.355,6.071-.916,13.361-1.661,5.332-3.806,10.3-3.828,10.346-3.823,8.768-5.929,13.6-9.128,15.106a11.027,11.027,0,0,1-4.76,1.024m-23.3-13.585a37.544,37.544,0,0,0,10.307,8.253c4.632,2.51,11.63,6.3,17.407,3.579,2.807-1.324,4.706-5.463,8.733-14.7,2.348-5.415,7.81-20.069,4.928-22.8a7.5,7.5,0,0,0-1.591-1.079,7.333,7.333,0,0,0-5.746-.283c-2.553,1.051-3.857,4.4-4.348,5.667-2.812,7.231-5.348,15.824-6.309,19.182a.4.4,0,0,1-.469.284l-19.756-4.081a.4.4,0,0,1-.295-.251,7.747,7.747,0,0,0-1.6-2.547c-.069-.065-7.645-7.175-8.707-8.108-.775-.68-5.986.068-7.979.565h0c-.6.15-.769.257-.8.32-.057.1.068.5.122.669.432.416,3.82.517,6.749.349a.4.4,0,0,1,.08.8l-6.2.885c-.41.532-.554.977-.429,1.325.2.561,1.122.919,1.846,1.055a.4.4,0,0,1-.12.8.316.316,0,0,0-.263.075c-.071.07-.229.311-.157,1.031a.219.219,0,0,0,.1.158c.211.172,1.026.536,4.013.216a.4.4,0,0,1,.147.79c-1.631.434-2.559,1.034-2.614,1.69a.346.346,0,0,0,.13.333c.84.694,4.433.036,6.5-.541a.4.4,0,0,1,.475.221,13.611,13.611,0,0,0,3.07,4.525,12.927,12.927,0,0,0,1.932,1.078c.227.114.452.226.662.334a.4.4,0,0,1,.189.206m-16.1-15.3h0Z" transform="translate(-328.493 -155.659)" fill="#252362"/>
      <path id="Path_49782" data-name="Path 49782" d="M645.537,249.16a10.732,10.732,0,0,1,5.682,5.556c1.354,3.4.318,6.914-1.077,10.524a96.015,96.015,0,0,1-13,22.867l-10-14.69a121.841,121.841,0,0,0,6.343-11.675c2.739-5.782,3.991-9.636,7.721-11.542a9.769,9.769,0,0,1,4.335-1.039" transform="translate(-389.522 -154.756)" fill="#014cec"/>
      <path id="Path_49783" data-name="Path 49783" d="M636.4,288.135l-10.428-15.319.126-.2a122.445,122.445,0,0,0,6.324-11.639c.416-.878.794-1.7,1.16-2.5,2-4.375,3.451-7.536,6.728-9.212a10.112,10.112,0,0,1,4.5-1.08h.083l.076.035a11.051,11.051,0,0,1,5.873,5.756c1.45,3.642.264,7.33-1.076,10.795a97.4,97.4,0,0,1-13.053,22.956Zm-9.544-15.34,9.572,14.061A96.21,96.21,0,0,0,649.071,264.5c1.286-3.327,2.429-6.861,1.079-10.253a10.292,10.292,0,0,0-5.415-5.32,9.35,9.35,0,0,0-4.088,1c-3.048,1.557-4.378,4.462-6.391,8.859-.366.8-.746,1.629-1.164,2.512a123.006,123.006,0,0,1-6.236,11.505" transform="translate(-388.797 -154.145)" fill="#252362"/>
      <path id="Path_49784" data-name="Path 49784" d="M637.855,319.756,627.336,307.3a2.133,2.133,0,0,0-3.249.037l-1.391,1.582a2.276,2.276,0,0,0-.184,2.8l9.259,13.037a2.11,2.11,0,0,0,3.08.368l2.652-2.163a2.278,2.278,0,0,0,.351-3.208" transform="translate(-386.402 -190.413)" fill="#014cec"/>
      <path id="Path_49785" data-name="Path 49785" d="M632.86,325.395a2.44,2.44,0,0,1-.328-.022,2.409,2.409,0,0,1-1.657-1l-9.258-13.037a2.657,2.657,0,0,1,.207-3.259l1.392-1.582a2.607,2.607,0,0,1,1.969-.894,2.434,2.434,0,0,1,1.837.863l10.519,12.456a2.536,2.536,0,0,1,.582,1.888,2.715,2.715,0,0,1-.981,1.841l-2.652,2.163a2.589,2.589,0,0,1-1.628.586m-7.7-19.062a1.86,1.86,0,0,0-1.391.644l-1.391,1.582a1.914,1.914,0,0,0-.16,2.347l9.259,13.038a1.68,1.68,0,0,0,1.156.7,1.8,1.8,0,0,0,1.392-.4l2.652-2.163a1.975,1.975,0,0,0,.714-1.339,1.806,1.806,0,0,0-.411-1.345l-10.519-12.456a1.674,1.674,0,0,0-1.282-.6h-.017" transform="translate(-385.805 -189.809)" fill="#252362"/>
      <path id="Path_49786" data-name="Path 49786" d="M630.978,142.71a3.6,3.6,0,0,1-3.86-1.512,3.389,3.389,0,0,1,1.079-4.68,3.352,3.352,0,0,1,4.105,1.06,4.805,4.805,0,0,1,2.6-2.1,5.3,5.3,0,0,1,4.454.957,4.777,4.777,0,0,1,1.994,2.254,4.284,4.284,0,0,1,.29,1.621,6.866,6.866,0,0,1,4.66,1.654,7.157,7.157,0,0,1,2.122,5.249c.15,5.147-4.815,10.994-9.338,10.726s-9.548-6.674-8.109-15.231" transform="translate(-389.197 -84.035)" fill="#252362"/>
      <path id="Path_49787" data-name="Path 49787" d="M638.966,157.783c-.108,0-.215,0-.322-.01a8.123,8.123,0,0,1-5.593-3.339,15.34,15.34,0,0,1-2.815-11.833,3.808,3.808,0,0,1-3.767-1.694,3.879,3.879,0,0,1-.4-3.019,3.2,3.2,0,0,1,1.583-2.029,3.594,3.594,0,0,1,4.2.859A4.958,4.958,0,0,1,634.4,134.8a5.545,5.545,0,0,1,4.674.988,5.048,5.048,0,0,1,2.094,2.376,4.489,4.489,0,0,1,.3,1.455,6.992,6.992,0,0,1,4.579,1.721,7.4,7.4,0,0,1,2.207,5.434,11.792,11.792,0,0,1-3.744,8.383,8.222,8.222,0,0,1-5.548,2.621m-8.095-15.838-.064.38a14.908,14.908,0,0,0,2.651,11.784,6.515,6.515,0,0,0,10.693.679,11.26,11.26,0,0,0,3.586-7.993,6.917,6.917,0,0,0-2.036-5.063,6.559,6.559,0,0,0-4.482-1.587l-.268,0,0-.268a4,4,0,0,0-.272-1.522,4.507,4.507,0,0,0-1.894-2.13,5.068,5.068,0,0,0-4.234-.926,4.528,4.528,0,0,0-2.457,1.984l-.2.321-.231-.3a3.1,3.1,0,0,0-3.779-.989,2.678,2.678,0,0,0-1.322,1.705,3.2,3.2,0,0,0,3.925,4Z" transform="translate(-388.769 -83.607)" fill="#252362"/>
      <path id="Path_49788" data-name="Path 49788" d="M616.627,157.714a32.687,32.687,0,0,0,2.783-4.619,6.289,6.289,0,0,1,4.892-.832c1.652.508,3.571,2.094,3.33,2.773h0a14.091,14.091,0,0,1,.038,2.234,14.3,14.3,0,0,1-.958,4.313c1.812-1.621,4.094-1.671,5.136-.625,1.09,1.093.5,3.058.465,3.174a4.407,4.407,0,0,1-3.5,2.879l-5.931,16.635a4.931,4.931,0,0,1-8.009,1.992l0,0-.013.038-6.656,5.392,4.879-10.408.043,0a5,5,0,0,1,.2-.756l3.123-8.759a5.484,5.484,0,0,1-1.463-.57,6.167,6.167,0,0,1-2.462-2.861,5.9,5.9,0,0,1-.089-3.58c.6-2.528,2.041-3.435,4.2-6.418" transform="translate(-377.758 -94.441)" fill="#fff"/>
      <path id="Path_49789" data-name="Path 49789" d="M607.505,190.788a.422.422,0,0,1-.382-.6L612,179.779a.446.446,0,0,1,.047-.077,5.117,5.117,0,0,1,.18-.638l2.97-8.331a5.864,5.864,0,0,1-1.121-.489,6.554,6.554,0,0,1-2.648-3.077,6.336,6.336,0,0,1-.1-3.827,9.671,9.671,0,0,1,2.46-4.272c.532-.641,1.135-1.368,1.807-2.3a32.478,32.478,0,0,0,2.747-4.56.426.426,0,0,1,.16-.174,6.609,6.609,0,0,1,5.234-.874,6.729,6.729,0,0,1,3.51,2.53,1.049,1.049,0,0,1,.122.682,14.552,14.552,0,0,1-.526,5.408,3.927,3.927,0,0,1,4.613.18c1.256,1.259.642,3.363.568,3.6a4.788,4.788,0,0,1-3.586,3.116l-5.852,16.413a5.41,5.41,0,0,1-3.875,3.457,5.211,5.211,0,0,1-4.532-1.043l-6.407,5.189a.422.422,0,0,1-.266.094m5.191-10.5-4.029,8.6,5.153-4.174a.422.422,0,0,1,.638-.083l.012.011v0a4.308,4.308,0,0,0,4.044,1.089,4.568,4.568,0,0,0,3.274-2.919l5.931-16.636a.422.422,0,0,1,.32-.273,3.99,3.99,0,0,0,3.176-2.59c.006-.018.56-1.827-.361-2.75-.874-.876-2.913-.827-4.556.642a.422.422,0,0,1-.674-.468,13.759,13.759,0,0,0,.893-6.353.418.418,0,0,1,.023-.182c.012-.345-1.425-1.726-3.056-2.228a5.723,5.723,0,0,0-4.446.729,33.256,33.256,0,0,1-2.763,4.567c-.689.952-1.3,1.69-1.842,2.341a8.909,8.909,0,0,0-2.288,3.927,5.486,5.486,0,0,0,.072,3.333,5.782,5.782,0,0,0,2.275,2.643,5.071,5.071,0,0,0,1.35.527.422.422,0,0,1,.3.553l-3.123,8.759a4.557,4.557,0,0,0-.182.693.421.421,0,0,1-.145.246" transform="translate(-377.066 -93.745)" fill="#252362"/>
      <path id="Path_49790" data-name="Path 49790" d="M628.42,201.958l-.976,2.736a27.106,27.106,0,0,0,6.325-2.92,6.528,6.528,0,0,1-5.35.183" transform="translate(-389.712 -125.325)" fill="#252362"/>
      <path id="Path_49791" data-name="Path 49791" d="M626.357,204.7l1.227-3.441.241.078a6.282,6.282,0,0,0,5.138-.161l.269.447a27.193,27.193,0,0,1-6.4,2.95Zm1.549-2.792-.721,2.023A23.255,23.255,0,0,0,631,202.3a8.462,8.462,0,0,1-3.091-.388" transform="translate(-389.037 -124.955)" fill="#252362"/>
      <path id="Path_49792" data-name="Path 49792" d="M629.6,170.631a2.037,2.037,0,0,1-.928-1.129.937.937,0,0,1,.2-.765c.5-.643,3.552-4.029,3.682-4.173l.585.527c-.031.035-3.159,3.51-3.646,4.132a.153.153,0,0,0-.042.136c.039.209.382.492.557.6Z" transform="translate(-390.467 -102.212)" fill="#252362"/>
      <path id="Path_49793" data-name="Path 49793" d="M582.916,262.193a.387.387,0,0,1-.323-.6c5.265-7.981,9.464-10.672,9.64-10.782a.4.4,0,0,1,.127-.051l9.1-1.888a.387.387,0,1,1,.158.758l-9.03,1.874c-.512.345-4.511,3.179-9.351,10.517a.386.386,0,0,1-.324.174" transform="translate(-361.815 -154.571)" fill="#252362"/>
      <path id="Path_49794" data-name="Path 49794" d="M562.849,236.4a.387.387,0,0,1-.281-.654c2.941-3.105,12.129-6.584,12.519-6.73a.387.387,0,0,1,.272.725c-.094.035-9.41,3.562-12.229,6.538a.386.386,0,0,1-.281.121" transform="translate(-349.351 -142.232)" fill="#252362"/>
      <path id="Path_49795" data-name="Path 49795" d="M671.723,286.134a.387.387,0,0,1-.34-.572,57.1,57.1,0,0,0,4.9-12.287.387.387,0,1,1,.753.181,57.926,57.926,0,0,1-4.977,12.475.387.387,0,0,1-.341.2" transform="translate(-416.974 -169.55)" fill="#252362"/>
      <path id="Path_49796" data-name="Path 49796" d="M604.534,288.878a.964.964,0,0,1-.951-.772c-.386-1.3-.538-3.014.3-3.54.329-.205.9-.284,1.763.506a13.64,13.64,0,0,0,1.585,1.228,29.031,29.031,0,0,0,2.171-2.27.387.387,0,1,1,.588.5c-.295.344-1.123,1.288-2.092,2.209.811.535,1.337.909,1.32,1.431a.387.387,0,1,1-.774-.027,4.741,4.741,0,0,0-1.106-.846l-.029-.019a5.429,5.429,0,0,1-2.778,1.595m-.155-3.674a.153.153,0,0,0-.082.02c-.262.164-.4,1.206.028,2.663.056.191.13.206.165.214.381.081,1.2-.448,2.151-1.266a13.8,13.8,0,0,1-1.515-1.191,1.389,1.389,0,0,0-.747-.439" transform="translate(-374.699 -176.331)" fill="#252362"/>
      <path id="Path_49797" data-name="Path 49797" d="M653.36,278.242a.542.542,0,0,1-.376-.145c-.113-.1-.355-.325-.034-1.526a4.814,4.814,0,0,0-1.625.449.387.387,0,0,1-.323-.7,5.415,5.415,0,0,1,2.19-.523,38.787,38.787,0,0,1,1.952-4.4.387.387,0,0,1,.692.347c-.705,1.408-1.412,2.986-1.851,4.161a1.2,1.2,0,0,1,.748.544c.133.249.319.9-.837,1.619a1.033,1.033,0,0,1-.536.182m.194-.651h0Zm.178-.967a4.424,4.424,0,0,0-.183.738c.45-.292.526-.508.5-.555a.513.513,0,0,0-.318-.183" transform="translate(-404.204 -168.43)" fill="#252362"/>
      <path id="Path_49798" data-name="Path 49798" d="M634.631,321.384a.386.386,0,0,1-.22-.069c-.348-.241-8.525-5.952-8.374-10.382a.379.379,0,0,1,.4-.374.387.387,0,0,1,.374.4c-.137,4.012,7.959,9.662,8.041,9.719a.387.387,0,0,1-.221.705" transform="translate(-388.837 -192.891)" fill="#252362"/>
      <path id="Path_49799" data-name="Path 49799" d="M556.768,252.735a.387.387,0,0,1-.285-.649l1.522-1.658a.387.387,0,0,1,.571.524l-1.522,1.658a.385.385,0,0,1-.285.125" transform="translate(-345.574 -155.466)" fill="#252362"/>
      <path id="Path_49800" data-name="Path 49800" d="M658.738,243.428a.385.385,0,0,1-.254-.1l-1.9-1.653a.387.387,0,1,1,.508-.584l1.9,1.652a.387.387,0,0,1-.255.679" transform="translate(-407.73 -149.688)" fill="#252362"/>
      <path id="Path_49801" data-name="Path 49801" d="M560.879,342.775a.39.39,0,0,1-.146-.028,14.509,14.509,0,0,1-7.057-7.026.387.387,0,0,1,.7-.323,13.982,13.982,0,0,0,6.645,6.631.387.387,0,0,1-.147.746" transform="translate(-343.872 -208.179)" fill="#252362"/>
      <path id="Path_49802" data-name="Path 49802" d="M193.748,324.719a.387.387,0,0,1-.147-.746c8.517-3.478,16.183-6.6,22.825-9.305,8.666-3.53,15.511-6.318,20.3-8.288.04-.016,4.07-1.667,10.347-3.7,10.094-3.261,13.064-3.224,14.183-3.212,3.625.044,6.19,1.034,9.741,2.406.669.258,1.373.53,2.127.812,7.394,2.766,14.921,5.743,22.37,8.85a.387.387,0,0,1-.3.715c-7.441-3.1-14.958-6.077-22.343-8.839-.756-.283-1.463-.556-2.135-.815-3.475-1.342-5.986-2.312-9.471-2.354-1.083-.014-3.962-.047-13.935,3.175-6.246,2.018-10.251,3.659-10.29,3.675-4.793,1.971-11.639,4.759-20.306,8.289-6.642,2.705-14.308,5.827-22.824,9.3a.384.384,0,0,1-.146.029" transform="translate(-120.098 -186.004)" fill="#252362"/>
      <path id="Path_49803" data-name="Path 49803" d="M240.7,431.494a.387.387,0,0,1-.252-.682c2.009-1.718,49.242-42.1,52.2-43.575.511-.255,2.283-.777,5.218-1.641,14.855-4.375,54.315-16,63.9-32.114a.387.387,0,0,1,.665.4c-9.744,16.378-49.415,28.062-64.35,32.46-2.694.793-4.641,1.367-5.09,1.592-2.873,1.436-51.55,43.051-52.042,43.471a.386.386,0,0,1-.252.093" transform="translate(-149.258 -219.434)" fill="#252362"/>
      <path id="Path_49804" data-name="Path 49804" d="M199.993,318.971a.387.387,0,0,1-.171-.735c.724-.356,17.765-8.73,20.934-9.416a.387.387,0,1,1,.164.757c-3.076.666-20.579,9.268-20.756,9.354a.388.388,0,0,1-.171.04" transform="translate(-123.977 -191.806)" fill="#252362"/>
      <path id="Path_49805" data-name="Path 49805" d="M261.051,305.786a.387.387,0,0,1-.132-.751l2.582-.935a.387.387,0,1,1,.264.728l-2.583.935a.382.382,0,0,1-.132.023" transform="translate(-161.901 -188.865)" fill="#252362"/>
      <path id="Path_49806" data-name="Path 49806" d="M260.894,469.086a.387.387,0,0,1-.264-.671c.563-.523,13.858-12.845,19.964-16.509a.387.387,0,0,1,.4.664c-6.038,3.623-19.7,16.284-19.836,16.412a.387.387,0,0,1-.263.1" transform="translate(-161.803 -280.65)" fill="#252362"/>
      <path id="Path_49807" data-name="Path 49807" d="M318.6,443.746a.387.387,0,0,1-.274-.661l3.44-3.439a.387.387,0,1,1,.548.547l-3.44,3.44a.388.388,0,0,1-.274.113" transform="translate(-197.647 -272.999)" fill="#252362"/>
      <path id="Path_49808" data-name="Path 49808" d="M408.083,382.433a.387.387,0,0,1-.169-.736l15.723-7.616a.387.387,0,0,1,.338.7l-15.723,7.616a.389.389,0,0,1-.168.039" transform="translate(-253.224 -232.322)" fill="#252362"/>
      <path id="Path_49809" data-name="Path 49809" d="M421.792,271.288a.382.382,0,0,1-.117-.018c-.155-.049-15.5-4.92-16.957-5.407a.387.387,0,0,1,.245-.735c1.455.485,16.792,5.354,16.947,5.4a.387.387,0,0,1-.117.756" transform="translate(-251.21 -164.661)" fill="#252362"/>
      <path id="Path_49810" data-name="Path 49810" d="M457.873,283.48a.392.392,0,0,1-.111-.016l-2.457-.737a.387.387,0,1,1,.222-.742l2.457.737a.387.387,0,0,1-.111.758" transform="translate(-282.623 -175.134)" fill="#252362"/>
      <path id="Path_49811" data-name="Path 49811" d="M453.472,368.912a.387.387,0,0,1-.139-.749l3.194-1.228a.387.387,0,0,1,.278.723l-3.194,1.228a.383.383,0,0,1-.139.026" transform="translate(-281.416 -227.891)" fill="#252362"/>
    </g>
  </g>
</svg>
