<svg xmlns="http://www.w3.org/2000/svg" data-name="Layer 1" viewBox="0 0 128 128" id="uniswap"><path d="M99.3,111.18a16.71,16.71,0,0,0,9-9.36c2.49-6.92,1.46-14.63-3.06-18.53s-15.33-9.64-15.33-9.64-2.71,5.19,2,12.46c4.5,7,6.94,10.63,8.45,14.55C102.3,105.7,99.3,111.18,99.3,111.18Z"></path><path d="M110.9 87.18s1.07-7.43-10.63-12C91.4 71.7 84 68.74 80.4 64.38a12 12 0 01-2.68-9.78s2.86 3.45 14.21 4.64c10.44 1.1 17 4.83 19.74 10.83A18 18 0 01110.9 87.18zM84.69 71.19s2.45 7.58-1.94 12.07c-3.83 3.91-9.5 3.92-14 4.79a24.54 24.54 0 00-8.71 3.52 58.66 58.66 0 0113-1.85c6.14 0 11.35-2.51 13.26-6.84C89.53 75.63 84.69 71.19 84.69 71.19zM62.9 102.41c3.57-1.53 7.29.21 9.64 3.36s3.32 9.78 8.4 12.77 10.51-1.77 10.51-1.77-5.08 2.15-8.14.66c-3.29-1.6-3.79-4.4-4.37-9.22-1-7.87-5.13-11-8.76-12.32A20.76 20.76 0 0054.62 97 48.3 48.3 0 0045 103.37s6 1 8.4 2.43 5.46 6.29 8.5 7.24c2.79.88 5.68.44 7.24-1.82s.88-6.22-1.66-7.07c-3.11-1.05-5.33.43-5.2 2.35a2 2 0 001.81 2.09s-2-1-1.16-2.7c1-1.87 3.3-1.6 4.55-.72 1.53 1.08 1.76 4.8-.85 5.86s-5.91-.67-6.41-2.74S59.91 103.7 62.9 102.41zM55.19 50.37L12.72 3.29s36.07 44.48 37.36 46 2 2.86.88 3.89a6.58 6.58 0 01-3.26 1.44 4.34 4.34 0 01-4.49-1.72C41.39 50.71 28.1 29.68 28.1 29.68S40 51.22 40.61 52.49s1 2.39.4 3.19a15.08 15.08 0 00-2.47 3.46c-.66 1.62-1.2 6.36-1.75 8.41a33.18 33.18 0 01-7 11.86c-2.86 3-5.07 6.9-4.2 12.41.83 5.27 4.22 9.45 4.79 10.35a5.3 5.3 0 011 2.75s8.5-1 13.35-5.45c4.36-4 2-8.48.72-9.61-.91-.81-6.74-4.72-7.32-6.78S36.61 79.57 39.39 74s2.07-6.16 2.44-8.08.29-5.88 2.5-6.68 5-.43 7.66-2C55.87 54.88 55.19 50.37 55.19 50.37zm-24 41.88A1.18 1.18 0 0130 91c0-.67.7-1.15.58-1.57s-.73-.44-.86-1c-.07-.3.19-.87 1.29-.91A2.45 2.45 0 0133.32 90 2.33 2.33 0 0131.18 92.25zM58.74 59.33a5.25 5.25 0 00-4.87 6c.33 2.54 3.67 2.35 5.74 1.71s4.28-1 4.09-3.59S60.41 59.24 58.74 59.33zm.07 4.11c-1.3 0-2.35-.72-2.35-1.61s1-1.61 2.35-1.61 2.35.72 2.35 1.61S60.11 63.44 58.81 63.44zM50.77 32.09s4.67.44 6.93 4 2 8.33 3.23 10.44a33.52 33.52 0 002 3.35c.35.44.62 1.1-.22 1.25-2.06.38-6.7-1.5-9.24-6.52C49.67 37.14 50.77 32.09 50.77 32.09zM98.36 31.21s-1.32 2.7-.31 7.45a6.41 6.41 0 002 3.41 64.49 64.49 0 015.38 6l-4.7-3.81c-1-.8-1.6-.77-1.66.08s-.42 4.56-.55 5.37a19.15 19.15 0 01-1.17 3.06s.49-2.31.54-2.94c.11-1.54.09-6.24-1.08-7.73-2-2.54-8-4.82-8-4.82a25 25 0 016.75 2c.9.42 1.1.11 1.1-.52a39.41 39.41 0 01.52-5A6 6 0 0198.36 31.21z"></path><path d="M100.67,48.39c-.78,4.42-2.29,6-2.78,6.38a1.81,1.81,0,0,1-2.3.09,1.83,1.83,0,0,1-.36-2.26,8.45,8.45,0,0,0,.9-2.51,22.06,22.06,0,0,0-.44-6,28,28,0,0,0-5.28-2.81c-11.21-4.58-19.87-1.72-19.87-1.72s-4.63-5.58-9.17-8a20,20,0,0,0-10.3-2s6.4,1,10,3.9c6.46,5.27,13.15,16.25,17.87,18.81,9.67,5.25,18.12,2.12,23.31,4.72,3.92,2,5,4.41,5,4.41A27.54,27.54,0,0,0,100.67,48.39Z"></path></svg>