<svg xmlns="http://www.w3.org/2000/svg" width="19.24" height="19.239" viewBox="0 0 19.24 19.239">
  <g id="Group_149780" data-name="Group 149780" transform="translate(0 -0.001)">
    <path id="Path_102490" data-name="Path 102490" d="M18.037,21a1.2,1.2,0,0,0-1.2,1.2v3.006H2.4V22.2a1.2,1.2,0,0,0-2.4,0v3.006a2.407,2.407,0,0,0,2.4,2.4h14.43a2.407,2.407,0,0,0,2.4-2.4V22.2a1.2,1.2,0,0,0-1.2-1.2Z" transform="translate(0 -8.373)" fill="#0052ff"/>
    <path id="Path_102491" data-name="Path 102491" d="M7.2,7.215a1.194,1.194,0,0,0,.85-.352L10.81,4.106v9.723a1.2,1.2,0,0,0,2.4,0V4.106l2.757,2.757a1.2,1.2,0,1,0,1.7-1.7L12.864.355a1.177,1.177,0,0,0-.391-.262,1.2,1.2,0,0,0-1.311.26L6.352,5.163A1.2,1.2,0,0,0,7.2,7.215Z" transform="translate(-2.393)" fill="#0052ff"/>
  </g>
</svg>
