<svg xmlns="http://www.w3.org/2000/svg" width="32.984" height="24" viewBox="0 0 32.984 24">
  <g id="Group_51795" data-name="Group 51795" transform="translate(0 -66.65)">
    <path id="Path_48790" data-name="Path 48790" d="M25.773,90.65H18.7V83.5h2.339a.732.732,0,0,0,.593-1.159l-4.549-6.295a.725.725,0,0,0-1.179,0L11.35,82.34a.73.73,0,0,0,.593,1.159h2.339V90.65H6.356A7.088,7.088,0,0,1,0,83.56a6.714,6.714,0,0,1,3.329-5.8,4.5,4.5,0,0,1-.276-1.57,4.565,4.565,0,0,1,4.57-4.57,4.491,4.491,0,0,1,1.564.276A9.148,9.148,0,0,1,26.568,74.92a7.958,7.958,0,0,1-.8,15.73Z" fill="#1e1e1e"/>
  </g>
</svg>
