<svg width="275" height="542" viewBox="0 0 275 542" fill="none" xmlns="http://www.w3.org/2000/svg">
<g style="mix-blend-mode:color-dodge" filter="url(#filter0_d_6_1385)">
<path d="M265.067 39.1559C247.249 75.8408 225.059 109.651 199.774 137.827C176.351 163.972 149.993 185.777 122.72 197.191C96.4059 208.219 69.9751 208.593 48.4338 195.033C28.2788 182.289 13.4415 157.522 12.3447 124.251C11.4103 93.6888 21.2353 57.8735 40.4496 33.3306C50.6156 20.2728 64.1406 9.22096 76.6639 9.68722C89.0271 9.92313 96.8182 21.7234 101.094 35.5343C110.555 66.8208 105.587 110.095 97.7341 146.746C89.192 186.882 74.1484 226.616 53.9845 261.456C35.8422 292.725 13.4863 319.934 -10.9001 341.158C-35.0736 362.099 -61.2774 377.409 -87.3286 384.809C-114.019 392.35 -140.718 391.397 -163.536 380.24C-185.127 369.67 -203.584 349.355 -211.712 319.752C-218.77 293.691 -218.054 261.733 -210.089 231.135C-202.177 201.049 -186.803 172.748 -165.77 155.534C-143.566 137.297 -119.056 133.804 -97.8952 139.631C-75.7747 145.778 -57.2155 161.528 -43.4997 183.621C-29.784 205.713 -20.8056 233.478 -16.6207 263.887C-12.2758 294.527 -12.7243 327.812 -17.4357 361.442C-22.1467 395.427 -31.4403 429.651 -44.7323 462.009C-60.4173 499.76 -81.0608 534.616 -104.693 564.937C-116.136 579.692 -128.38 593.294 -140.997 605.887" stroke="url(#paint0_linear_6_1385)" stroke-width="2" stroke-miterlimit="10" stroke-linecap="round" stroke-dasharray="10 10" style="mix-blend-mode:color-dodge"/>
</g>
<defs>
<filter id="filter0_d_6_1385" x="-225.568" y="0.672852" width="499.635" height="614.214" filterUnits="userSpaceOnUse" color-interpolation-filters="sRGB">
<feFlood flood-opacity="0" result="BackgroundImageFix"/>
<feColorMatrix in="SourceAlpha" type="matrix" values="0 0 0 0 0 0 0 0 0 0 0 0 0 0 0 0 0 0 127 0" result="hardAlpha"/>
<feOffset/>
<feGaussianBlur stdDeviation="4"/>
<feColorMatrix type="matrix" values="0 0 0 0 0.937255 0 0 0 0 0.882353 0 0 0 0 0.882353 0 0 0 0.5 0"/>
<feBlend mode="normal" in2="BackgroundImageFix" result="effect1_dropShadow_6_1385"/>
<feBlend mode="normal" in="SourceGraphic" in2="effect1_dropShadow_6_1385" result="shape"/>
</filter>
<linearGradient id="paint0_linear_6_1385" x1="-131.005" y1="609.223" x2="79.9617" y2="-22.6465" gradientUnits="userSpaceOnUse">
<stop stop-color="#40B87F"/>
<stop offset="1" stop-color="#B9D83A"/>
</linearGradient>
</defs>
</svg>
