<svg xmlns="http://www.w3.org/2000/svg" width="18.005" height="17.969" viewBox="0 0 18.005 17.969">
  <g id="Group_106774" data-name="Group 106774" transform="translate(0 -0.316)">
    <path id="Path_49516" data-name="Path 49516" d="M9.324,18.284c1.377-.2,2.584-1.633,3.343-3.755a16.342,16.342,0,0,0-3.343-.394Zm2.2-.337c.081-.024.162-.047.243-.073s.135-.045.2-.069.158-.056.237-.085.133-.052.2-.08l.229-.1q.212-.094.419-.2l.193-.1q.108-.058.215-.119t.189-.111l.208-.129q.093-.059.184-.12t.2-.141l.178-.129.195-.153c.057-.046.115-.091.171-.138s.126-.109.188-.164.11-.1.163-.146.121-.117.181-.176.1-.1.155-.154l.028-.03a10.815,10.815,0,0,0-2.2-.848,7.985,7.985,0,0,1-2.057,3.339l.078-.019c.069-.019.136-.041.2-.06ZM18,9.622H14.146a16.687,16.687,0,0,1-.65,4.452,11.191,11.191,0,0,1,2.442.972A8.99,8.99,0,0,0,18,9.622ZM9.324,8.978H13.5a16.1,16.1,0,0,0-.633-4.293,16.949,16.949,0,0,1-3.545.423Zm0-8.662V4.464a16.354,16.354,0,0,0,3.343-.394C11.908,1.949,10.7.512,9.324.316Zm0,13.177a16.96,16.96,0,0,1,3.545.423A16.1,16.1,0,0,0,13.5,9.622H9.324Zm6.615-9.938a11.191,11.191,0,0,1-2.442.972,16.687,16.687,0,0,1,.65,4.452H18a8.993,8.993,0,0,0-2.066-5.424ZM15.5,3.067l-.028-.03c-.051-.052-.1-.1-.156-.154s-.119-.118-.181-.176-.108-.1-.163-.146-.125-.111-.189-.165-.113-.092-.169-.137-.13-.1-.2-.154-.117-.087-.176-.129-.135-.1-.2-.143-.121-.08-.182-.119-.139-.088-.21-.131-.125-.074-.188-.11-.144-.081-.217-.12l-.193-.1c-.074-.037-.149-.073-.225-.109s-.13-.061-.2-.09-.153-.064-.23-.1L12.2.881Q12.085.837,11.966.8l-.2-.069C11.684.7,11.6.677,11.521.654c-.067-.02-.134-.04-.2-.058L11.24.577A7.985,7.985,0,0,1,13.3,3.916,10.8,10.8,0,0,0,15.5,3.067ZM0,8.978H3.858a16.693,16.693,0,0,1,.65-4.452,11.177,11.177,0,0,1-2.442-.972A8.99,8.99,0,0,0,0,8.978Zm8.681,9.306V14.136a16.354,16.354,0,0,0-3.343.394C6.1,16.652,7.3,18.089,8.681,18.285Zm0-8.662H4.5a16.092,16.092,0,0,0,.633,4.294,16.937,16.937,0,0,1,3.545-.423Zm0-9.306C7.3.512,6.1,1.949,5.337,4.071a16.332,16.332,0,0,0,3.343.394Zm0,4.792a16.949,16.949,0,0,1-3.545-.423A16.091,16.091,0,0,0,4.5,8.978H8.681ZM6.762.576,6.684.6c-.068.018-.135.038-.2.058S6.319.7,6.238.727,6.1.772,6.035.8,5.878.851,5.8.881s-.134.052-.2.08l-.229.1c-.066.029-.132.06-.2.09s-.148.071-.222.108q-.207.1-.408.219-.1.054-.19.111c-.07.042-.139.086-.208.129s-.123.079-.184.121-.135.093-.2.141L3.583,2.1c-.066.049-.129.1-.195.152s-.115.091-.171.138-.125.108-.188.163-.11.1-.164.147-.121.116-.18.175-.1.1-.156.154l-.028.03a10.8,10.8,0,0,0,2.2.849A7.982,7.982,0,0,1,6.762.576ZM2.684,15.718c.06.059.119.118.181.176s.108.1.163.146.125.111.189.165.112.092.169.137.129.1.2.154.117.086.176.129.135.1.2.143.121.08.182.119.139.088.21.131.125.074.188.11.144.081.217.12l.193.1c.074.037.149.073.225.109s.13.06.2.089.153.064.23.1.132.054.2.079.157.058.236.085.134.047.2.069.161.05.244.074c.067.02.134.04.2.058l.079.019a7.987,7.987,0,0,1-2.057-3.339,10.8,10.8,0,0,0-2.2.849l.028.03C2.579,15.616,2.631,15.667,2.684,15.718Zm-.618-.672a11.193,11.193,0,0,1,2.442-.972,16.693,16.693,0,0,1-.65-4.452H0a8.992,8.992,0,0,0,2.066,5.424Zm0,0" fill="#80838e"/>
  </g>
</svg>
